<svg width="1361" height="753" viewBox="0 0 1361 753" fill="none" xmlns="http://www.w3.org/2000/svg">
<rect width="1361" height="753" fill="white"/>
<rect x="75" y="147" width="474" height="294" fill="white" stroke="black" stroke-width="6"/>
<rect x="812" y="147" width="474" height="294" fill="white" stroke="black" stroke-width="6"/>
<path d="M505 101.909C505 96.8473 506.475 91.9835 509.424 87.3177C512.373 82.652 516.092 78.9546 520.582 76.2256C525.072 73.4966 529.561 72.11 534.051 72.066C538.012 72.066 541.16 73.1884 543.492 75.4333C543.889 75.8735 544.219 76.2476 544.483 76.5557C544.747 76.8638 544.923 77.0839 545.011 77.216L545.077 77.414C545.209 77.414 545.803 76.8418 546.86 75.6974C547.168 75.4333 547.498 75.1252 547.85 74.773C548.202 74.4209 548.554 74.0688 548.906 73.7166C549.259 73.3645 549.479 73.1224 549.567 72.9904L550.557 72H550.953C551.569 72 551.878 72.1541 551.878 72.4622C551.878 72.6382 551.173 75.6534 549.765 81.5076C548.18 87.6259 547.388 90.707 547.388 90.751C547.3 90.9711 547.19 91.1032 547.058 91.1472C546.926 91.1912 546.53 91.2352 545.869 91.2792H544.813C544.549 91.0151 544.417 90.8171 544.417 90.685C544.417 90.641 544.439 90.4869 544.483 90.2228C544.527 89.9587 544.571 89.5186 544.615 88.9023C544.659 88.2861 544.681 87.5818 544.681 86.7895C544.681 83.6644 543.977 80.9354 542.568 78.6025C541.16 76.2696 538.761 75.0812 535.371 75.0371C534.579 75.0371 533.721 75.1032 532.796 75.2352C531.872 75.3673 530.706 75.6534 529.297 76.0935C527.889 76.5337 526.546 77.1499 525.27 77.9422C523.993 78.7345 522.607 79.7909 521.11 81.1114C519.613 82.4319 518.337 83.9945 517.281 85.7992C516.224 87.6039 515.19 89.8487 514.177 92.5337C513.165 95.2187 512.483 98.1678 512.131 101.381C512.043 102.173 511.999 103.032 511.999 103.956C511.999 106.069 512.307 107.939 512.923 109.568C513.539 111.197 514.331 112.451 515.3 113.331C516.268 114.212 517.369 114.96 518.601 115.576C519.834 116.193 520.978 116.567 522.034 116.699C523.091 116.831 524.081 116.919 525.006 116.963C527.382 116.963 529.561 116.457 531.542 115.444C533.523 114.432 534.887 113.133 535.635 111.549C535.768 111.197 536.098 109.986 536.626 107.917C537.154 105.849 537.418 104.682 537.418 104.418C537.418 104.066 537.132 103.846 536.56 103.758C535.988 103.67 534.667 103.604 532.598 103.56H530.155C529.891 103.296 529.759 103.12 529.759 103.032C529.759 102.944 529.803 102.525 529.891 101.777C530.067 101.205 530.287 100.787 530.552 100.523H531.674C533.435 100.611 536.516 100.655 540.917 100.655C542.678 100.655 544.109 100.655 545.209 100.655C546.309 100.655 547.102 100.633 547.586 100.589C548.07 100.545 548.334 100.545 548.378 100.589C548.994 100.589 549.303 100.787 549.303 101.183C549.303 101.271 549.259 101.579 549.171 102.107C548.95 102.944 548.73 103.406 548.51 103.494C548.378 103.538 548.048 103.56 547.52 103.56C546.64 103.56 545.737 103.626 544.813 103.758C544.505 103.89 544.285 104.088 544.153 104.352C544.021 104.616 543.713 105.739 543.228 107.719C542.832 109.172 542.502 110.404 542.238 111.417C541.138 115.906 540.521 118.217 540.389 118.349C540.301 118.437 540.191 118.481 540.059 118.481C539.619 118.481 539.003 118.041 538.21 117.161C537.418 116.281 536.912 115.598 536.692 115.114C536.692 115.07 536.648 115.07 536.56 115.114C536.472 115.158 536.34 115.268 536.164 115.444C532.906 118.481 528.505 120 522.959 120C517.633 120 513.319 118.305 510.018 114.916C506.717 111.527 505.044 107.191 505 101.909Z" fill="black"/>
<path d="M822.845 75.2328C821.252 75.2328 820.408 75.1391 820.315 74.9517C820.268 74.858 820.245 74.6706 820.245 74.3895C820.245 73.265 820.502 72.4919 821.018 72.0703C821.111 72.0234 821.51 72 822.212 72C824.133 72.0937 827.319 72.1406 831.77 72.1406C833.363 72.1406 834.839 72.1406 836.198 72.1406C837.556 72.1406 838.611 72.1171 839.36 72.0703C840.11 72.0234 840.578 72.0234 840.766 72.0703C841.515 72.0703 841.89 72.3045 841.89 72.7731C841.89 72.8668 841.843 73.1947 841.75 73.757C841.515 74.5534 841.281 75.022 841.047 75.1625H840.906C840.813 75.1625 840.695 75.1625 840.555 75.1625C840.414 75.1625 840.25 75.1625 840.063 75.1625C839.876 75.1625 839.665 75.1859 839.43 75.2328C839.196 75.2796 838.985 75.2796 838.798 75.2328C836.971 75.2796 835.799 75.3499 835.284 75.4436C834.769 75.5373 834.347 75.795 834.019 76.2167C833.878 76.4041 833.129 79.2855 831.77 84.8609C831.442 86.0791 831.091 87.4378 830.716 88.937C830.341 90.4363 830.06 91.5373 829.873 92.2401L829.592 93.2943C829.592 93.388 832.988 93.4348 839.782 93.4348H849.972L850.042 93.224C850.042 93.0835 850.769 90.2021 852.221 84.5798C853.533 79.1918 854.189 76.3104 854.189 75.9356C854.189 75.5608 852.854 75.3265 850.183 75.2328C849.105 75.2328 848.403 75.1859 848.075 75.0922C847.747 74.9985 847.583 74.7877 847.583 74.4597C847.583 74.366 847.63 74.0849 847.723 73.6164C847.911 72.8199 848.051 72.3748 848.145 72.2811C848.239 72.1874 848.613 72.1171 849.269 72.0703C849.504 72.0703 850.488 72.0937 852.221 72.1406C853.955 72.1874 856.157 72.2108 858.827 72.2108C861.732 72.2108 863.958 72.1874 865.504 72.1406C867.05 72.0937 867.893 72.0703 868.034 72.0703C868.83 72.0703 869.228 72.3045 869.228 72.7731C869.228 74.0381 868.947 74.8346 868.385 75.1625H868.245C868.151 75.1625 868.034 75.1625 867.893 75.1625C867.753 75.1625 867.589 75.1625 867.401 75.1625C867.214 75.1625 867.003 75.1859 866.769 75.2328C866.534 75.2796 866.324 75.2796 866.136 75.2328C864.309 75.2796 863.138 75.3499 862.622 75.4436C862.107 75.5373 861.685 75.795 861.357 76.2167C861.217 76.451 859.53 83.0805 856.297 96.1054C853.064 109.13 851.425 115.736 851.378 115.924C851.378 116.252 851.471 116.416 851.659 116.416C852.034 116.556 853.299 116.673 855.454 116.767H857.633C857.914 117.142 858.054 117.353 858.054 117.4C858.054 117.447 857.984 117.868 857.843 118.665C857.656 119.274 857.422 119.719 857.141 120H856.086C854.353 119.906 851.214 119.859 846.669 119.859C845.076 119.859 843.6 119.859 842.242 119.859C840.883 119.859 839.805 119.859 839.009 119.859C838.212 119.859 837.72 119.883 837.533 119.93C836.736 119.93 836.338 119.719 836.338 119.297C836.338 119.063 836.408 118.735 836.549 118.313C836.783 117.423 837.018 116.931 837.252 116.837C837.439 116.791 837.791 116.767 838.306 116.767H838.728C839.993 116.767 841.398 116.697 842.944 116.556C843.225 116.51 843.413 116.486 843.507 116.486C843.6 116.486 843.741 116.369 843.928 116.135C844.116 115.9 844.256 115.69 844.35 115.502C844.444 115.315 844.584 114.893 844.772 114.237C844.959 113.581 845.123 112.925 845.264 112.269C845.404 111.613 845.662 110.606 846.037 109.247C846.365 107.936 846.622 106.881 846.81 106.085C848.356 99.9004 849.129 96.7848 849.129 96.7379C849.129 96.6911 845.732 96.6676 838.939 96.6676H828.748L826.429 106.155C824.836 112.433 824.04 115.69 824.04 115.924C824.04 116.252 824.227 116.463 824.602 116.556C824.977 116.65 826.148 116.72 828.116 116.767H830.294C830.575 117.142 830.716 117.353 830.716 117.4C830.716 117.447 830.646 117.868 830.505 118.665C830.318 119.274 830.083 119.719 829.802 120H828.748C827.015 119.906 823.876 119.859 819.331 119.859C817.738 119.859 816.262 119.859 814.903 119.859C813.545 119.859 812.467 119.859 811.671 119.859C810.874 119.859 810.382 119.883 810.195 119.93C809.398 119.93 809 119.719 809 119.297C809 119.204 809.07 118.876 809.211 118.313C809.445 117.423 809.679 116.931 809.914 116.837C810.101 116.791 810.452 116.767 810.968 116.767H811.389C812.654 116.767 814.06 116.697 815.606 116.556C816.262 116.416 816.707 116.135 816.941 115.713C817.082 115.526 818.769 109.013 822.001 96.1757C825.234 83.3382 826.851 76.5681 826.851 75.8653C826.851 75.5373 825.515 75.3265 822.845 75.2328Z" fill="black"/>
<path d="M790 96L777.3 76.7116L766.946 97.3544L790 96ZM570 96C571.139 97.6442 571.138 97.6447 571.137 97.6451C571.137 97.6451 571.137 97.6454 571.137 97.6454C571.137 97.6454 571.137 97.6451 571.138 97.6444C571.14 97.643 571.145 97.6401 571.151 97.6359C571.163 97.6274 571.184 97.6131 571.214 97.5934C571.273 97.554 571.366 97.4926 571.493 97.4106C571.746 97.2467 572.137 97.0007 572.665 96.6842C573.721 96.0512 575.328 95.1362 577.499 94.0329C581.84 91.8263 588.434 88.8654 597.376 85.8982C615.258 79.9649 642.545 74 680 74V72V70C642.112 70 614.4 76.0351 596.117 82.1018C586.977 85.1346 580.198 88.1737 575.686 90.4671C573.43 91.6138 571.742 92.5738 570.608 93.2533C570.041 93.5931 569.613 93.8626 569.323 94.0503C569.177 94.1441 569.066 94.2175 568.99 94.2689C568.951 94.2946 568.921 94.3148 568.9 94.3293C568.889 94.3366 568.881 94.3424 568.874 94.3469C568.871 94.3491 568.868 94.3509 568.866 94.3524C568.865 94.3531 568.864 94.354 568.863 94.3544C568.862 94.3551 568.861 94.3558 570 96ZM680 72V74C725.766 74 756.355 82.9059 773.153 89.7809L773.911 87.9299L774.668 86.0789C757.402 79.0127 726.3 70 680 70V72Z" fill="black"/>
<line x1="72" y1="631" x2="552" y2="631" stroke="black" stroke-width="6"/>
<path d="M667.291 120.655C667.291 121.891 667.545 123 668.055 123.982C668.564 124.964 669.218 125.709 670.018 126.218C670.818 126.727 671.6 127.145 672.364 127.473C673.127 127.8 673.764 128.036 674.273 128.182L675.091 128.291L675.2 128.236L675.909 126C676.564 123.891 677.164 122.091 677.709 120.6C678.255 119.109 678.964 117.509 679.836 115.8C680.709 114.091 681.582 112.709 682.455 111.655C683.327 110.6 684.4 109.727 685.673 109.036C686.945 108.345 688.273 108 689.655 108C691.291 108 692.745 108.582 694.018 109.745C695.291 110.909 695.945 112.873 695.982 115.636C695.982 118.473 695.2 121.2 693.636 123.818C692.073 126.436 689.927 128.564 687.2 130.2C684.473 131.836 681.6 132.655 678.582 132.655C677.636 132.655 677.164 132.691 677.164 132.764L676.782 134.727C676.564 136 676.309 137.4 676.018 138.927C675.727 140.455 675.527 141.436 675.418 141.873C675.236 142.745 674.764 143.345 674 143.673C673.6 143.891 673.145 144 672.636 144C671.509 143.891 670.945 143.291 670.945 142.2C670.945 141.836 671.945 138.509 673.945 132.218L673.673 132.109C673.491 132.036 673.236 131.945 672.909 131.836C672.582 131.727 672.182 131.564 671.709 131.345C671.236 131.127 670.764 130.873 670.291 130.582C669.818 130.291 669.327 129.964 668.818 129.6C668.309 129.236 667.836 128.782 667.4 128.236C666.964 127.691 666.545 127.109 666.145 126.491C665.745 125.873 665.473 125.164 665.327 124.364C665.182 123.564 665.073 122.691 665 121.745C665 120 665.473 117.8 666.418 115.145C667.364 112.491 668.691 110.309 670.4 108.6H671.109C671.873 108.6 672.255 108.745 672.255 109.036C672.255 109.255 672.109 109.509 671.818 109.8C670.327 111.545 669.218 113.527 668.491 115.745C667.764 117.964 667.364 119.6 667.291 120.655ZM693.582 116.945C693.582 115.418 693.145 114.218 692.273 113.345C691.4 112.473 690.236 112.018 688.782 111.982C687 111.982 685.327 112.709 683.764 114.164C682.2 115.618 680.909 117.636 679.891 120.218C679.382 121.455 678.873 123.436 678.364 126.164L677.873 128.618C678.527 128.691 678.891 128.727 678.964 128.727C683.218 128.727 686.709 127.473 689.436 124.964C692.164 122.455 693.545 119.782 693.582 116.945Z" fill="black"/>
<rect x="812" y="147" width="314" height="293" fill="black" fill-opacity="0.1" stroke="black" stroke-width="6"/>
<path d="M586.586 632.414C587.367 633.195 588.633 633.195 589.414 632.414L602.142 619.686C602.923 618.905 602.923 617.639 602.142 616.858C601.361 616.077 600.095 616.077 599.314 616.858L588 628.172L576.686 616.858C575.905 616.077 574.639 616.077 573.858 616.858C573.077 617.639 573.077 618.905 573.858 619.686L586.586 632.414ZM588 444L586 444L586 631L588 631L590 631L590 444L588 444Z" fill="black"/>
<path d="M615.606 546.284C614.883 546.284 614.521 545.933 614.521 545.231V544.88L614.936 543.986C616.531 540.625 617.691 537.721 618.414 535.275L618.669 534.509H617.648C616.84 534.509 616.265 534.541 615.925 534.605C615.585 534.668 615.17 534.87 614.68 535.211C614.446 535.36 614.212 535.551 613.978 535.785C613.744 536.019 613.542 536.243 613.372 536.455C613.202 536.668 613.106 536.796 613.085 536.838C613.042 536.86 612.883 536.87 612.606 536.87C612.202 536.87 612 536.764 612 536.551C612 536.423 612.202 536.051 612.606 535.434C613.01 534.817 613.596 534.158 614.361 533.456C615.127 532.754 615.882 532.35 616.627 532.243C616.776 532.201 619.169 532.179 623.807 532.179C627.211 532.179 628.955 532.19 629.04 532.211C629.465 532.36 629.678 532.658 629.678 533.105C629.678 533.764 629.338 534.211 628.657 534.445C628.529 534.488 627.796 534.509 626.455 534.509H624.413L624.317 535.051C624.062 536.583 623.934 537.849 623.934 538.849C623.934 539.955 624.03 540.944 624.222 541.816C624.413 542.688 624.615 543.369 624.828 543.858C625.041 544.348 625.147 544.646 625.147 544.752C625.147 545.114 624.998 545.454 624.7 545.773C624.402 546.092 624.019 546.252 623.551 546.252C623.317 546.252 623.126 546.22 622.977 546.156C622.828 546.092 622.658 545.837 622.467 545.39C622.275 544.943 622.105 544.305 621.956 543.476C621.935 543.284 621.924 542.816 621.924 542.071C621.924 541.029 622.02 539.912 622.211 538.721C622.403 537.53 622.594 536.551 622.786 535.785C622.977 535.019 623.083 534.594 623.105 534.509H619.978L619.946 534.636C619.946 534.7 619.744 535.541 619.339 537.157C618.935 538.774 618.478 540.487 617.967 542.295C617.457 544.103 617.127 545.135 616.978 545.39C616.744 545.986 616.287 546.284 615.606 546.284Z" fill="black"/>
<path d="M640.234 534.86C640.234 534.583 640.383 534.371 640.681 534.222H661.008C661.327 534.392 661.486 534.605 661.486 534.86C661.486 535.094 661.337 535.296 661.039 535.466L650.892 535.498H640.745C640.404 535.392 640.234 535.179 640.234 534.86ZM640.234 541.05C640.234 540.731 640.404 540.519 640.745 540.412H661.039C661.337 540.625 661.486 540.838 661.486 541.05C661.486 541.327 661.327 541.54 661.008 541.689H640.681C640.383 541.54 640.234 541.327 640.234 541.05Z" fill="black"/>
<path d="M673.733 537.891C673.733 535.445 674.446 533.094 675.871 530.839C677.297 528.584 679.094 526.797 681.264 525.478C683.434 524.159 685.604 523.489 687.774 523.468C689.688 523.468 691.209 524.01 692.337 525.095C692.528 525.308 692.688 525.489 692.816 525.638C692.943 525.787 693.028 525.893 693.071 525.957L693.103 526.053C693.167 526.053 693.454 525.776 693.964 525.223C694.113 525.095 694.273 524.946 694.443 524.776C694.613 524.606 694.783 524.436 694.954 524.266C695.124 524.095 695.23 523.978 695.273 523.915L695.751 523.436H695.943C696.241 523.436 696.39 523.51 696.39 523.659C696.39 523.744 696.049 525.202 695.368 528.031C694.603 530.988 694.22 532.477 694.22 532.498C694.177 532.605 694.124 532.669 694.06 532.69C693.996 532.711 693.805 532.732 693.486 532.754H692.975C692.848 532.626 692.784 532.53 692.784 532.467C692.784 532.445 692.794 532.371 692.816 532.243C692.837 532.116 692.858 531.903 692.879 531.605C692.901 531.307 692.911 530.967 692.911 530.584C692.911 529.073 692.571 527.754 691.89 526.627C691.209 525.499 690.05 524.925 688.412 524.904C688.029 524.904 687.614 524.936 687.168 525C686.721 525.063 686.157 525.202 685.476 525.414C684.796 525.627 684.147 525.925 683.53 526.308C682.913 526.691 682.243 527.201 681.519 527.84C680.796 528.478 680.179 529.233 679.669 530.105C679.158 530.977 678.658 532.062 678.169 533.36C677.68 534.658 677.35 536.083 677.18 537.636C677.137 538.019 677.116 538.434 677.116 538.88C677.116 539.902 677.265 540.806 677.563 541.593C677.86 542.38 678.243 542.986 678.711 543.412C679.179 543.837 679.711 544.199 680.307 544.497C680.902 544.794 681.456 544.975 681.966 545.039C682.477 545.103 682.955 545.146 683.402 545.167C684.551 545.167 685.604 544.922 686.561 544.433C687.519 543.944 688.178 543.316 688.54 542.55C688.603 542.38 688.763 541.795 689.018 540.795C689.274 539.795 689.401 539.231 689.401 539.104C689.401 538.934 689.263 538.827 688.986 538.785C688.71 538.742 688.072 538.71 687.072 538.689H685.891C685.763 538.561 685.7 538.476 685.7 538.434C685.7 538.391 685.721 538.189 685.763 537.827C685.849 537.551 685.955 537.349 686.083 537.221H686.625C687.476 537.264 688.965 537.285 691.092 537.285C691.943 537.285 692.635 537.285 693.167 537.285C693.698 537.285 694.081 537.274 694.315 537.253C694.549 537.232 694.677 537.232 694.698 537.253C694.996 537.253 695.145 537.349 695.145 537.54C695.145 537.583 695.124 537.732 695.081 537.987C694.975 538.391 694.868 538.615 694.762 538.657C694.698 538.678 694.539 538.689 694.283 538.689C693.858 538.689 693.422 538.721 692.975 538.785C692.826 538.849 692.72 538.944 692.656 539.072C692.592 539.2 692.443 539.742 692.209 540.699C692.018 541.401 691.858 541.997 691.731 542.486C691.199 544.656 690.901 545.773 690.837 545.837C690.795 545.879 690.741 545.901 690.678 545.901C690.465 545.901 690.167 545.688 689.784 545.263C689.401 544.837 689.157 544.507 689.05 544.273C689.05 544.252 689.029 544.252 688.986 544.273C688.944 544.295 688.88 544.348 688.795 544.433C687.221 545.901 685.093 546.635 682.413 546.635C679.839 546.635 677.754 545.816 676.159 544.178C674.563 542.54 673.755 540.444 673.733 537.891Z" fill="black"/>
<path d="M710.717 522C710.909 522 711.068 522.064 711.196 522.191C711.323 522.319 711.387 522.468 711.387 522.638C711.387 522.745 709.547 527.871 705.867 538.019C702.187 548.166 700.283 553.357 700.155 553.591C700.006 553.804 699.825 553.91 699.612 553.91C699.464 553.91 699.325 553.857 699.198 553.751C699.07 553.644 699.006 553.495 699.006 553.304C699.006 553.091 700.857 547.9 704.559 537.732C708.26 527.563 710.143 522.425 710.207 522.319C710.292 522.106 710.462 522 710.717 522Z" fill="black"/>
<path d="M716.174 537.955C716.174 536.487 716.28 535.094 716.493 533.775C716.706 532.456 716.95 531.318 717.227 530.36C717.503 529.403 717.897 528.467 718.408 527.552C718.918 526.638 719.322 525.925 719.62 525.414C719.918 524.904 720.365 524.351 720.96 523.755C721.556 523.159 721.907 522.798 722.013 522.67C722.12 522.542 722.386 522.319 722.811 522H723.226H723.354C723.651 522 723.8 522.096 723.8 522.287C723.8 522.351 723.62 522.574 723.258 522.957C722.896 523.34 722.46 523.904 721.95 524.649C721.439 525.393 720.918 526.308 720.386 527.393C719.854 528.478 719.407 529.946 719.046 531.796C718.684 533.647 718.503 535.7 718.503 537.955C718.503 540.21 718.684 542.252 719.046 544.082C719.407 545.911 719.843 547.39 720.354 548.517C720.865 549.645 721.386 550.56 721.918 551.262C722.449 551.964 722.896 552.527 723.258 552.953C723.62 553.378 723.8 553.602 723.8 553.623C723.8 553.814 723.641 553.91 723.322 553.91H723.226H722.811L721.918 553.144C719.918 551.336 718.461 549.081 717.546 546.379C716.631 543.678 716.174 540.87 716.174 537.955Z" fill="black"/>
<path d="M729.672 526.085C729.523 525.936 729.406 525.84 729.321 525.797C729.236 525.755 729.066 525.723 728.81 525.702C728.555 525.68 728.098 525.648 727.438 525.606H726.385V524.138H726.736C727.183 524.202 728.715 524.234 731.331 524.234C734.203 524.234 735.735 524.202 735.926 524.138H736.277V525.606H735.575C733.916 525.606 733.065 525.787 733.022 526.148C733.001 526.191 732.99 527.871 732.99 531.19L733.022 536.136L737.681 531.605C738.66 530.648 739.724 529.616 740.872 528.51C741.702 527.701 742.181 527.223 742.308 527.074C742.436 526.925 742.51 526.755 742.532 526.563V526.531C742.532 526.063 742.234 525.765 741.638 525.638C741.596 525.638 741.542 525.638 741.479 525.638C741.415 525.638 741.362 525.627 741.319 525.606H741.191V524.138H741.51C741.893 524.202 743.287 524.234 745.691 524.234C747.265 524.234 748.18 524.202 748.435 524.138H748.626V525.606H748.18C746.584 525.691 745.318 526.116 744.382 526.882C744.276 526.989 743.276 527.957 741.383 529.786C739.49 531.616 738.543 532.541 738.543 532.562C738.543 532.584 739.702 534.339 742.021 537.827C744.34 541.316 745.574 543.167 745.723 543.38C745.999 543.805 746.329 544.082 746.712 544.209C747.095 544.337 747.658 544.422 748.403 544.465H749.073V545.933H748.818C748.626 545.869 747.424 545.837 745.212 545.837C742.617 545.837 741.096 545.869 740.649 545.933H740.298V544.465H740.553C741.532 544.465 742.021 544.188 742.021 543.635C742.021 543.507 741.989 543.38 741.925 543.252L736.309 534.732C736.224 534.796 735.607 535.381 734.458 536.487L732.99 537.923V540.955C732.99 542.954 733.022 543.997 733.086 544.082C733.256 544.316 733.969 544.443 735.224 544.465H736.277V545.933H735.926C735.479 545.869 733.948 545.837 731.331 545.837C728.459 545.837 726.928 545.869 726.736 545.933H726.385V544.465H727.438C728.332 544.443 728.874 544.412 729.066 544.369C729.257 544.326 729.459 544.199 729.672 543.986V526.085Z" fill="black"/>
<path d="M751.307 538.976C751.307 537.806 751.52 536.742 751.945 535.785C752.371 534.828 752.902 534.051 753.541 533.456C754.179 532.86 754.87 532.413 755.615 532.116C756.359 531.818 757.061 531.658 757.721 531.637C758.848 531.637 759.816 531.828 760.625 532.211C761.433 532.594 762.05 533.126 762.475 533.807C762.901 534.488 763.199 535.168 763.369 535.849C763.539 536.53 763.635 537.285 763.656 538.115C763.656 538.264 763.582 538.412 763.433 538.561H754.434V539.04C754.434 542.188 755.498 544.103 757.625 544.784C758.051 544.911 758.519 544.975 759.029 544.975C759.923 544.975 760.688 544.635 761.327 543.954C761.688 543.593 761.976 543.146 762.188 542.614L762.507 541.848C762.571 541.784 762.741 541.752 763.018 541.752H763.114C763.475 541.752 763.656 541.859 763.656 542.071C763.656 542.157 763.624 542.295 763.56 542.486C763.156 543.656 762.486 544.582 761.55 545.263C760.614 545.943 759.561 546.284 758.391 546.284C756.37 546.284 754.689 545.55 753.349 544.082C752.009 542.614 751.328 540.912 751.307 538.976ZM761.039 537.157C760.805 534.434 759.795 532.988 758.008 532.818H757.944C757.774 532.818 757.604 532.828 757.434 532.849C757.263 532.871 756.998 532.956 756.636 533.105C756.274 533.254 755.966 533.477 755.71 533.775C755.455 534.073 755.211 534.509 754.977 535.083C754.743 535.658 754.572 536.36 754.466 537.189V537.413H761.039V537.157Z" fill="black"/>
<path d="M765.73 544.465H766.177C767.007 544.465 767.507 544.316 767.677 544.018V543.763C767.677 543.571 767.677 543.327 767.677 543.029C767.677 542.731 767.687 542.401 767.709 542.04C767.73 541.678 767.73 541.263 767.709 540.795C767.687 540.327 767.687 539.88 767.709 539.455C767.709 538.795 767.709 538.093 767.709 537.349C767.709 536.604 767.709 535.977 767.709 535.466L767.677 534.732C767.613 534.328 767.464 534.062 767.23 533.934C766.996 533.807 766.517 533.711 765.794 533.647H765.22V532.913C765.22 532.424 765.241 532.179 765.284 532.179L765.603 532.147C765.815 532.126 766.113 532.105 766.496 532.084C766.879 532.062 767.262 532.041 767.645 532.02C767.985 531.999 768.358 531.977 768.762 531.956C769.166 531.935 769.474 531.903 769.687 531.86C769.9 531.818 770.017 531.807 770.038 531.828H770.134V534.03C770.964 532.584 771.995 531.86 773.229 531.86H773.421C774.378 531.86 775.08 532.094 775.527 532.562C775.973 533.03 776.197 533.52 776.197 534.03C776.197 534.477 776.059 534.86 775.782 535.179C775.505 535.498 775.101 535.658 774.569 535.658C774.038 535.658 773.644 535.487 773.389 535.147C773.133 534.807 772.995 534.445 772.974 534.062C772.974 533.871 772.995 533.7 773.038 533.551C773.08 533.403 773.133 533.275 773.197 533.169C773.261 533.062 773.293 533.009 773.293 533.009C773.25 532.966 773.006 533.009 772.559 533.137C772.219 533.307 771.963 533.466 771.793 533.615C770.793 534.573 770.293 536.477 770.293 539.327V541.018C770.293 541.295 770.293 541.582 770.293 541.88C770.293 542.178 770.293 542.454 770.293 542.71C770.293 542.965 770.304 543.178 770.325 543.348C770.347 543.518 770.347 543.678 770.325 543.827V543.986C770.347 544.029 770.379 544.071 770.421 544.114C770.464 544.156 770.517 544.188 770.581 544.209C770.644 544.231 770.698 544.263 770.74 544.305C770.783 544.348 770.857 544.369 770.964 544.369C771.07 544.369 771.144 544.38 771.187 544.401C771.229 544.422 771.325 544.433 771.474 544.433C771.623 544.433 771.719 544.433 771.761 544.433C771.804 544.433 771.91 544.443 772.08 544.465C772.251 544.486 772.357 544.486 772.4 544.465H773.389V545.933H773.102C772.719 545.869 771.368 545.837 769.049 545.837C766.858 545.837 765.666 545.869 765.475 545.933H765.22V544.465H765.73Z" fill="black"/>
<path d="M788.833 551.102C788.876 551.102 788.94 551.123 789.025 551.166C789.11 551.208 789.227 551.24 789.376 551.262C789.525 551.283 789.652 551.294 789.759 551.294C790.035 551.294 790.29 551.155 790.524 550.879C790.758 550.602 790.929 550.294 791.035 549.953C791.248 549.379 791.609 547.751 792.12 545.071C792.631 542.391 793.12 539.838 793.588 537.413C794.056 534.987 794.29 533.764 794.29 533.743V533.647H792.79C791.79 533.647 791.258 533.626 791.195 533.583C791.109 533.52 791.067 533.413 791.067 533.264L791.29 532.371C791.333 532.264 791.418 532.211 791.546 532.211C791.673 532.211 792.173 532.201 793.045 532.179C794.066 532.179 794.577 532.169 794.577 532.147C794.577 532.105 794.673 531.573 794.864 530.552C795.056 529.531 795.183 528.914 795.247 528.701C796.034 525.191 797.587 523.436 799.906 523.436C800.693 523.479 801.342 523.713 801.853 524.138C802.363 524.563 802.618 525.127 802.618 525.829C802.618 526.595 802.395 527.148 801.948 527.489C801.502 527.829 801.055 528.01 800.608 528.031C799.672 528.031 799.204 527.584 799.204 526.691C799.204 526.287 799.321 525.936 799.555 525.638C799.789 525.34 800.044 525.117 800.321 524.968L800.608 524.808C800.268 524.68 799.949 524.617 799.651 524.617C799.395 524.617 799.151 524.723 798.917 524.936C798.683 525.148 798.523 525.446 798.438 525.829C798.289 526.446 798.119 527.276 797.928 528.318C797.736 529.361 797.566 530.243 797.417 530.967C797.268 531.69 797.194 532.073 797.194 532.116C797.194 532.158 797.779 532.179 798.949 532.179C799.906 532.179 800.459 532.19 800.608 532.211C800.757 532.233 800.874 532.296 800.959 532.403C800.98 532.488 800.959 532.669 800.895 532.945C800.831 533.222 800.778 533.392 800.736 533.456C800.693 533.562 800.597 533.615 800.449 533.615C800.3 533.615 799.725 533.626 798.725 533.647H796.938L796.204 537.54C795.183 542.816 794.471 546.113 794.066 547.432C793.492 549.241 792.748 550.581 791.833 551.453C791.046 552.134 790.269 552.474 789.503 552.474C788.823 552.474 788.206 552.272 787.653 551.868C787.099 551.464 786.823 550.889 786.823 550.145C786.823 549.358 787.046 548.783 787.493 548.422C787.94 548.06 788.386 547.879 788.833 547.879C789.769 547.879 790.237 548.326 790.237 549.219C790.237 549.624 790.12 549.975 789.886 550.272C789.652 550.57 789.397 550.794 789.12 550.942L788.833 551.102Z" fill="black"/>
<path d="M804.533 522.032L804.661 522C804.767 522 804.873 522 804.98 522H805.363L806.256 522.766C808.256 524.574 809.713 526.829 810.628 529.531C811.543 532.233 812 535.041 812 537.955C812 539.402 811.894 540.795 811.681 542.135C811.468 543.476 811.224 544.614 810.947 545.55C810.67 546.486 810.277 547.422 809.766 548.358C809.256 549.294 808.852 550.006 808.554 550.496C808.256 550.985 807.82 551.528 807.245 552.123C806.671 552.719 806.331 553.07 806.224 553.176C806.118 553.283 805.873 553.485 805.49 553.783C805.427 553.846 805.384 553.889 805.363 553.91H804.98C804.81 553.91 804.693 553.91 804.629 553.91C804.565 553.91 804.512 553.878 804.469 553.814C804.427 553.751 804.395 553.655 804.373 553.527C804.395 553.506 804.512 553.368 804.724 553.112C808.022 549.687 809.671 544.635 809.671 537.955C809.671 531.275 808.022 526.223 804.724 522.798C804.512 522.542 804.395 522.404 804.373 522.383C804.373 522.213 804.427 522.096 804.533 522.032Z" fill="black"/>
<circle cx="397" cy="631" r="12" fill="black"/>
<line x1="398.249" y1="632.197" x2="314.249" y2="439.197" stroke="black" stroke-width="6"/>
<line x1="398.28" y1="629.735" x2="485.28" y2="442.735" stroke="black" stroke-width="6"/>
<path d="M388 673.315C388 671.683 388.272 670.195 388.816 668.85C389.36 667.504 390.061 666.388 390.919 665.501C391.778 664.614 392.737 663.869 393.796 663.268C394.855 662.667 395.857 662.224 396.801 661.937C397.746 661.651 398.648 661.522 399.506 661.551H399.635C400.923 661.551 402.039 661.866 402.984 662.496C403.928 663.125 404.401 664.055 404.401 665.286C404.401 667.862 402.812 669.551 399.635 670.352C398.233 670.725 396.315 670.925 393.882 670.953C392.823 670.953 392.279 670.982 392.25 671.039C392.25 671.097 392.165 671.597 391.993 672.542C391.821 673.487 391.721 674.317 391.692 675.032C391.692 676.377 391.993 677.436 392.594 678.209C393.195 678.982 394.097 679.383 395.299 679.411C396.501 679.44 397.832 679.168 399.292 678.596C400.751 678.023 402.068 677.079 403.241 675.762C403.499 675.476 403.671 675.333 403.757 675.333C403.871 675.333 404.057 675.462 404.315 675.719C404.572 675.977 404.716 676.177 404.744 676.32C404.773 676.463 404.644 676.692 404.358 677.007C404.072 677.322 403.642 677.708 403.07 678.166C402.497 678.624 401.839 679.068 401.095 679.497C400.351 679.927 399.449 680.284 398.39 680.571C397.331 680.857 396.243 681 395.127 681C392.866 681 391.12 680.242 389.889 678.725C388.658 677.208 388.029 675.404 388 673.315ZM402.34 665.372C402.168 663.884 401.195 663.14 399.42 663.14C398.476 663.14 397.603 663.34 396.801 663.741C396 664.141 395.356 664.628 394.869 665.2C394.383 665.773 393.968 666.36 393.624 666.961C393.281 667.562 393.052 668.077 392.937 668.506C392.823 668.936 392.751 669.208 392.723 669.322C392.723 669.351 393.009 669.365 393.581 669.365C396.816 669.365 399.077 669.021 400.365 668.335C401.653 667.648 402.311 666.66 402.34 665.372Z" fill="black"/>
<path d="M390.945 658.975V657H406.444V658.975H390.945Z" fill="black"/>
<rect x="315" y="147" width="170" height="293" fill="black" fill-opacity="0.1" stroke="black" stroke-width="6"/>
<path d="M375.744 460.625C375.619 460.501 375.522 460.421 375.451 460.385C375.38 460.35 375.238 460.323 375.024 460.305C374.811 460.287 374.43 460.261 373.879 460.225H373V459H373.293C373.666 459.053 374.945 459.08 377.129 459.08C379.526 459.08 380.805 459.053 380.964 459H381.257V460.225H380.671C379.286 460.225 378.576 460.376 378.541 460.678C378.523 460.714 378.514 462.117 378.514 464.887L378.541 469.016L382.43 465.233C383.246 464.434 384.134 463.573 385.093 462.649C385.786 461.974 386.185 461.575 386.292 461.451C386.398 461.326 386.461 461.184 386.478 461.024V460.998C386.478 460.607 386.23 460.358 385.733 460.252C385.697 460.252 385.653 460.252 385.599 460.252C385.546 460.252 385.502 460.243 385.466 460.225H385.36V459H385.626C385.946 459.053 387.109 459.08 389.115 459.08C390.43 459.08 391.193 459.053 391.406 459H391.566V460.225H391.193C389.861 460.296 388.805 460.651 388.023 461.291C387.935 461.38 387.1 462.188 385.519 463.715C383.939 465.242 383.149 466.014 383.149 466.032C383.149 466.05 384.117 467.515 386.052 470.427C387.988 473.34 389.018 474.885 389.142 475.062C389.373 475.417 389.648 475.648 389.968 475.755C390.287 475.861 390.758 475.932 391.38 475.968H391.939V477.193H391.726C391.566 477.14 390.563 477.113 388.716 477.113C386.549 477.113 385.28 477.14 384.907 477.193H384.614V475.968H384.827C385.644 475.968 386.052 475.737 386.052 475.275C386.052 475.169 386.026 475.062 385.972 474.956L381.284 467.844C381.213 467.897 380.698 468.385 379.739 469.309L378.514 470.507V473.038C378.514 474.707 378.541 475.577 378.594 475.648C378.736 475.844 379.331 475.95 380.378 475.968H381.257V477.193H380.964C380.592 477.14 379.313 477.113 377.129 477.113C374.731 477.113 373.453 477.14 373.293 477.193H373V475.968H373.879C374.625 475.95 375.078 475.923 375.238 475.888C375.397 475.852 375.566 475.746 375.744 475.568V460.625Z" fill="black"/>
<path d="M393.804 471.386C393.804 470.41 393.981 469.522 394.336 468.723C394.691 467.923 395.135 467.275 395.668 466.778C396.201 466.281 396.778 465.908 397.4 465.659C398.021 465.411 398.607 465.277 399.158 465.26C400.099 465.26 400.907 465.42 401.582 465.739C402.256 466.059 402.771 466.503 403.127 467.071C403.482 467.639 403.73 468.208 403.872 468.776C404.014 469.344 404.094 469.974 404.112 470.667C404.112 470.791 404.05 470.916 403.926 471.04H396.414V471.44C396.414 474.068 397.302 475.666 399.078 476.234C399.433 476.341 399.824 476.394 400.25 476.394C400.996 476.394 401.635 476.11 402.168 475.542C402.47 475.24 402.709 474.867 402.887 474.423L403.153 473.784C403.206 473.73 403.349 473.704 403.579 473.704H403.659C403.961 473.704 404.112 473.792 404.112 473.97C404.112 474.041 404.085 474.156 404.032 474.316C403.695 475.293 403.135 476.065 402.354 476.634C401.573 477.202 400.694 477.486 399.717 477.486C398.03 477.486 396.627 476.873 395.508 475.648C394.39 474.423 393.821 473.002 393.804 471.386ZM401.928 469.868C401.733 467.595 400.889 466.387 399.397 466.245H399.344C399.202 466.245 399.06 466.254 398.918 466.272C398.776 466.29 398.554 466.361 398.252 466.485C397.95 466.609 397.693 466.796 397.48 467.044C397.266 467.293 397.062 467.657 396.867 468.137C396.672 468.616 396.529 469.202 396.441 469.895V470.081H401.928V469.868Z" fill="black"/>
<path d="M405.844 475.968H406.216C406.909 475.968 407.326 475.844 407.468 475.595V475.382C407.468 475.222 407.468 475.018 407.468 474.769C407.468 474.521 407.477 474.245 407.495 473.943C407.513 473.642 407.513 473.295 407.495 472.905C407.477 472.514 407.477 472.141 407.495 471.786C407.495 471.235 407.495 470.649 407.495 470.028C407.495 469.406 407.495 468.882 407.495 468.456L407.468 467.844C407.415 467.506 407.291 467.284 407.095 467.178C406.9 467.071 406.501 466.991 405.897 466.938H405.417V466.325C405.417 465.917 405.435 465.713 405.471 465.713L405.737 465.686C405.915 465.668 406.163 465.65 406.483 465.633C406.802 465.615 407.122 465.597 407.442 465.579C407.726 465.562 408.037 465.544 408.374 465.526C408.711 465.508 408.969 465.482 409.147 465.446C409.324 465.411 409.422 465.402 409.44 465.42H409.519V467.257C410.212 466.05 411.073 465.446 412.103 465.446H412.263C413.062 465.446 413.648 465.642 414.021 466.032C414.394 466.423 414.58 466.831 414.58 467.257C414.58 467.63 414.465 467.95 414.234 468.216C414.003 468.483 413.666 468.616 413.222 468.616C412.778 468.616 412.45 468.474 412.236 468.19C412.023 467.906 411.908 467.604 411.89 467.284C411.89 467.124 411.908 466.982 411.943 466.858C411.979 466.734 412.023 466.627 412.077 466.538C412.13 466.449 412.157 466.405 412.157 466.405C412.121 466.37 411.917 466.405 411.544 466.512C411.26 466.654 411.047 466.787 410.905 466.911C410.07 467.71 409.653 469.3 409.653 471.679V473.091C409.653 473.322 409.653 473.562 409.653 473.81C409.653 474.059 409.653 474.29 409.653 474.503C409.653 474.716 409.662 474.893 409.679 475.036C409.697 475.178 409.697 475.311 409.679 475.435V475.568C409.697 475.604 409.724 475.639 409.759 475.675C409.795 475.71 409.839 475.737 409.892 475.755C409.946 475.772 409.99 475.799 410.026 475.835C410.061 475.87 410.123 475.888 410.212 475.888C410.301 475.888 410.363 475.897 410.398 475.915C410.434 475.932 410.514 475.941 410.638 475.941C410.762 475.941 410.842 475.941 410.878 475.941C410.913 475.941 411.002 475.95 411.144 475.968C411.286 475.986 411.375 475.986 411.411 475.968H412.236V477.193H411.997C411.677 477.14 410.549 477.113 408.614 477.113C406.785 477.113 405.79 477.14 405.63 477.193H405.417V475.968H405.844Z" fill="black"/>
<path d="M424.436 471.599C424.436 472.203 424.561 472.745 424.809 473.224C425.058 473.704 425.377 474.068 425.768 474.316C426.159 474.565 426.541 474.769 426.913 474.929C427.286 475.089 427.597 475.204 427.846 475.275L428.245 475.329L428.299 475.302L428.645 474.21C428.965 473.18 429.258 472.301 429.524 471.573C429.79 470.845 430.137 470.063 430.563 469.229C430.989 468.394 431.415 467.719 431.841 467.204C432.267 466.689 432.791 466.263 433.413 465.926C434.034 465.588 434.683 465.42 435.357 465.42C436.157 465.42 436.867 465.704 437.488 466.272C438.11 466.84 438.43 467.799 438.447 469.149C438.447 470.534 438.066 471.866 437.302 473.144C436.538 474.423 435.491 475.462 434.159 476.261C432.827 477.06 431.424 477.459 429.95 477.459C429.488 477.459 429.258 477.477 429.258 477.513L429.071 478.472C428.965 479.093 428.84 479.777 428.698 480.523C428.556 481.269 428.458 481.748 428.405 481.961C428.316 482.387 428.085 482.68 427.713 482.84C427.517 482.947 427.295 483 427.047 483C426.496 482.947 426.221 482.654 426.221 482.121C426.221 481.943 426.709 480.319 427.686 477.246L427.553 477.193C427.464 477.158 427.34 477.113 427.18 477.06C427.02 477.007 426.825 476.927 426.594 476.82C426.363 476.714 426.132 476.589 425.901 476.447C425.67 476.305 425.431 476.145 425.182 475.968C424.933 475.79 424.703 475.568 424.489 475.302C424.276 475.036 424.072 474.751 423.877 474.45C423.681 474.148 423.548 473.801 423.477 473.411C423.406 473.02 423.353 472.594 423.317 472.132C423.317 471.28 423.548 470.205 424.01 468.909C424.472 467.613 425.12 466.547 425.955 465.713H426.301C426.674 465.713 426.86 465.784 426.86 465.926C426.86 466.032 426.789 466.156 426.647 466.299C425.919 467.151 425.377 468.119 425.022 469.202C424.667 470.285 424.472 471.084 424.436 471.599ZM437.275 469.788C437.275 469.042 437.062 468.456 436.636 468.03C436.21 467.604 435.642 467.382 434.931 467.364C434.061 467.364 433.244 467.719 432.481 468.43C431.717 469.14 431.087 470.125 430.589 471.386C430.341 471.99 430.092 472.958 429.844 474.29L429.604 475.488C429.923 475.524 430.101 475.542 430.137 475.542C432.214 475.542 433.919 474.929 435.251 473.704C436.583 472.478 437.258 471.173 437.275 469.788Z" fill="black"/>
<circle cx="390" cy="294" r="3" fill="black"/>
<path d="M401 295.679C401 294.337 401.224 293.113 401.671 292.006C402.118 290.9 402.695 289.982 403.401 289.252C404.108 288.522 404.896 287.91 405.767 287.416C406.638 286.921 407.462 286.556 408.239 286.321C409.016 286.086 409.758 285.98 410.464 286.003H410.57C411.629 286.003 412.547 286.262 413.324 286.78C414.101 287.298 414.49 288.063 414.49 289.075C414.49 291.194 413.183 292.583 410.57 293.242C409.416 293.548 407.839 293.713 405.838 293.737C404.967 293.737 404.52 293.76 404.496 293.807C404.496 293.854 404.425 294.266 404.284 295.043C404.143 295.82 404.06 296.503 404.037 297.091C404.037 298.198 404.284 299.069 404.778 299.705C405.273 300.34 406.014 300.67 407.003 300.693C407.992 300.717 409.087 300.493 410.287 300.022C411.488 299.552 412.571 298.775 413.536 297.692C413.748 297.456 413.889 297.339 413.96 297.339C414.054 297.339 414.207 297.445 414.419 297.657C414.631 297.868 414.749 298.033 414.772 298.151C414.796 298.269 414.69 298.457 414.454 298.716C414.219 298.975 413.866 299.293 413.395 299.669C412.924 300.046 412.383 300.411 411.77 300.764C411.158 301.117 410.417 301.411 409.546 301.647C408.675 301.882 407.78 302 406.862 302C405.002 302 403.566 301.376 402.554 300.128C401.541 298.881 401.024 297.398 401 295.679ZM412.795 289.146C412.653 287.922 411.853 287.31 410.393 287.31C409.616 287.31 408.898 287.475 408.239 287.804C407.58 288.134 407.05 288.534 406.65 289.005C406.25 289.476 405.909 289.958 405.626 290.453C405.343 290.947 405.155 291.371 405.061 291.724C404.967 292.077 404.908 292.301 404.884 292.395C404.884 292.418 405.12 292.43 405.591 292.43C408.251 292.43 410.111 292.148 411.17 291.583C412.23 291.018 412.771 290.205 412.795 289.146Z" fill="black"/>
<path d="M945.008 479.96C945.008 480.504 945.12 480.992 945.344 481.424C945.568 481.856 945.856 482.184 946.208 482.408C946.56 482.632 946.904 482.816 947.24 482.96C947.576 483.104 947.856 483.208 948.08 483.272L948.44 483.32L948.488 483.296L948.8 482.312C949.088 481.384 949.352 480.592 949.592 479.936C949.832 479.28 950.144 478.576 950.528 477.824C950.912 477.072 951.296 476.464 951.68 476C952.064 475.536 952.536 475.152 953.096 474.848C953.656 474.544 954.24 474.392 954.848 474.392C955.568 474.392 956.208 474.648 956.768 475.16C957.328 475.672 957.616 476.536 957.632 477.752C957.632 479 957.288 480.2 956.6 481.352C955.912 482.504 954.968 483.44 953.768 484.16C952.568 484.88 951.304 485.24 949.976 485.24C949.56 485.24 949.352 485.256 949.352 485.288L949.184 486.152C949.088 486.712 948.976 487.328 948.848 488C948.72 488.672 948.632 489.104 948.584 489.296C948.504 489.68 948.296 489.944 947.96 490.088C947.784 490.184 947.584 490.232 947.36 490.232C946.864 490.184 946.616 489.92 946.616 489.44C946.616 489.28 947.056 487.816 947.936 485.048L947.816 485C947.736 484.968 947.624 484.928 947.48 484.88C947.336 484.832 947.16 484.76 946.952 484.664C946.744 484.568 946.536 484.456 946.328 484.328C946.12 484.2 945.904 484.056 945.68 483.896C945.456 483.736 945.248 483.536 945.056 483.296C944.864 483.056 944.68 482.8 944.504 482.528C944.328 482.256 944.208 481.944 944.144 481.592C944.08 481.24 944.032 480.856 944 480.44C944 479.672 944.208 478.704 944.624 477.536C945.04 476.368 945.624 475.408 946.376 474.656H946.688C947.024 474.656 947.192 474.72 947.192 474.848C947.192 474.944 947.128 475.056 947 475.184C946.344 475.952 945.856 476.824 945.536 477.8C945.216 478.776 945.04 479.496 945.008 479.96ZM956.576 478.328C956.576 477.656 956.384 477.128 956 476.744C955.616 476.36 955.104 476.16 954.464 476.144C953.68 476.144 952.944 476.464 952.256 477.104C951.568 477.744 951 478.632 950.552 479.768C950.328 480.312 950.104 481.184 949.88 482.384L949.664 483.464C949.952 483.496 950.112 483.512 950.144 483.512C952.016 483.512 953.552 482.96 954.752 481.856C955.952 480.752 956.56 479.576 956.576 478.328Z" fill="black"/>
<path d="M960.752 479C960.752 477.896 960.832 476.848 960.992 475.856C961.152 474.864 961.336 474.008 961.544 473.288C961.752 472.568 962.048 471.864 962.432 471.176C962.816 470.488 963.12 469.952 963.344 469.568C963.568 469.184 963.904 468.768 964.352 468.32C964.8 467.872 965.064 467.6 965.144 467.504C965.224 467.408 965.424 467.24 965.744 467H966.056H966.152C966.376 467 966.488 467.072 966.488 467.216C966.488 467.264 966.352 467.432 966.08 467.72C965.808 468.008 965.48 468.432 965.096 468.992C964.712 469.552 964.32 470.24 963.92 471.056C963.52 471.872 963.184 472.976 962.912 474.368C962.64 475.76 962.504 477.304 962.504 479C962.504 480.696 962.64 482.232 962.912 483.608C963.184 484.984 963.512 486.096 963.896 486.944C964.28 487.792 964.672 488.48 965.072 489.008C965.472 489.536 965.808 489.96 966.08 490.28C966.352 490.6 966.488 490.768 966.488 490.784C966.488 490.928 966.368 491 966.128 491H966.056H965.744L965.072 490.424C963.568 489.064 962.472 487.368 961.784 485.336C961.096 483.304 960.752 481.192 960.752 479Z" fill="black"/>
<path d="M969.032 478.952C969.032 477.112 969.568 475.344 970.64 473.648C971.712 471.952 973.064 470.608 974.696 469.616C976.328 468.624 977.96 468.12 979.592 468.104C981.032 468.104 982.176 468.512 983.024 469.328C983.168 469.488 983.288 469.624 983.384 469.736C983.48 469.848 983.544 469.928 983.576 469.976L983.6 470.048C983.648 470.048 983.864 469.84 984.248 469.424C984.36 469.328 984.48 469.216 984.608 469.088C984.736 468.96 984.864 468.832 984.992 468.704C985.12 468.576 985.2 468.488 985.232 468.44L985.592 468.08H985.736C985.96 468.08 986.072 468.136 986.072 468.248C986.072 468.312 985.816 469.408 985.304 471.536C984.728 473.76 984.44 474.88 984.44 474.896C984.408 474.976 984.368 475.024 984.32 475.04C984.272 475.056 984.128 475.072 983.888 475.088H983.504C983.408 474.992 983.36 474.92 983.36 474.872C983.36 474.856 983.368 474.8 983.384 474.704C983.4 474.608 983.416 474.448 983.432 474.224C983.448 474 983.456 473.744 983.456 473.456C983.456 472.32 983.2 471.328 982.688 470.48C982.176 469.632 981.304 469.2 980.072 469.184C979.784 469.184 979.472 469.208 979.136 469.256C978.8 469.304 978.376 469.408 977.864 469.568C977.352 469.728 976.864 469.952 976.4 470.24C975.936 470.528 975.432 470.912 974.888 471.392C974.344 471.872 973.88 472.44 973.496 473.096C973.112 473.752 972.736 474.568 972.368 475.544C972 476.52 971.752 477.592 971.624 478.76C971.592 479.048 971.576 479.36 971.576 479.696C971.576 480.464 971.688 481.144 971.912 481.736C972.136 482.328 972.424 482.784 972.776 483.104C973.128 483.424 973.528 483.696 973.976 483.92C974.424 484.144 974.84 484.28 975.224 484.328C975.608 484.376 975.968 484.408 976.304 484.424C977.168 484.424 977.96 484.24 978.68 483.872C979.4 483.504 979.896 483.032 980.168 482.456C980.216 482.328 980.336 481.888 980.528 481.136C980.72 480.384 980.816 479.96 980.816 479.864C980.816 479.736 980.712 479.656 980.504 479.624C980.296 479.592 979.816 479.568 979.064 479.552H978.176C978.08 479.456 978.032 479.392 978.032 479.36C978.032 479.328 978.048 479.176 978.08 478.904C978.144 478.696 978.224 478.544 978.32 478.448H978.728C979.368 478.48 980.488 478.496 982.088 478.496C982.728 478.496 983.248 478.496 983.648 478.496C984.048 478.496 984.336 478.488 984.512 478.472C984.688 478.456 984.784 478.456 984.8 478.472C985.024 478.472 985.136 478.544 985.136 478.688C985.136 478.72 985.12 478.832 985.088 479.024C985.008 479.328 984.928 479.496 984.848 479.528C984.8 479.544 984.68 479.552 984.488 479.552C984.168 479.552 983.84 479.576 983.504 479.624C983.392 479.672 983.312 479.744 983.264 479.84C983.216 479.936 983.104 480.344 982.928 481.064C982.784 481.592 982.664 482.04 982.568 482.408C982.168 484.04 981.944 484.88 981.896 484.928C981.864 484.96 981.824 484.976 981.776 484.976C981.616 484.976 981.392 484.816 981.104 484.496C980.816 484.176 980.632 483.928 980.552 483.752C980.552 483.736 980.536 483.736 980.504 483.752C980.472 483.768 980.424 483.808 980.36 483.872C979.176 484.976 977.576 485.528 975.56 485.528C973.624 485.528 972.056 484.912 970.856 483.68C969.656 482.448 969.048 480.872 969.032 478.952Z" fill="black"/>
<path d="M988.136 467.024L988.232 467C988.312 467 988.392 467 988.472 467H988.76L989.432 467.576C990.936 468.936 992.032 470.632 992.72 472.664C993.408 474.696 993.752 476.808 993.752 479C993.752 480.088 993.672 481.136 993.512 482.144C993.352 483.152 993.168 484.008 992.96 484.712C992.752 485.416 992.456 486.12 992.072 486.824C991.688 487.528 991.384 488.064 991.16 488.432C990.936 488.8 990.608 489.208 990.176 489.656C989.744 490.104 989.488 490.368 989.408 490.448C989.328 490.528 989.144 490.68 988.856 490.904C988.808 490.952 988.776 490.984 988.76 491H988.472C988.344 491 988.256 491 988.208 491C988.16 491 988.12 490.976 988.088 490.928C988.056 490.88 988.032 490.808 988.016 490.712C988.032 490.696 988.12 490.592 988.28 490.4C990.76 487.824 992 484.024 992 479C992 473.976 990.76 470.176 988.28 467.6C988.12 467.408 988.032 467.304 988.016 467.288C988.016 467.16 988.056 467.072 988.136 467.024Z" fill="black"/>
<path d="M850.508 524.969C848.392 521.303 847.569 517.282 848.039 512.904C848.51 508.527 850.578 505.28 854.243 503.164C856.101 502.092 858.163 501.487 860.431 501.351C862.698 501.215 864.946 501.384 867.174 501.857C869.402 502.33 871.578 502.768 873.701 503.172C875.824 503.575 877.984 503.762 880.182 503.731C882.38 503.7 884.359 503.177 886.118 502.161C889.149 500.411 890.954 497.838 891.534 494.44C892.113 491.042 891.627 487.999 890.075 485.311C889.737 484.725 889.552 484.18 889.522 483.676C889.492 483.172 889.609 482.811 889.874 482.593C890.559 482.198 891.366 482.806 892.297 484.419C894.386 488.036 895.219 492.019 894.797 496.368C894.376 500.717 892.454 503.879 889.033 505.855L888.446 506.193C886.638 507.237 884.6 507.828 882.332 507.964C880.065 508.1 877.807 507.97 875.558 507.574C873.309 507.178 871.119 506.715 868.989 506.185C866.859 505.656 864.698 505.47 862.508 505.626C860.317 505.783 858.377 506.317 856.687 507.227C854.537 508.469 852.983 510.18 852.027 512.362C851.086 514.795 850.848 517.148 851.313 519.421C851.778 521.694 852.262 523.435 852.764 524.644C853.266 525.853 853.322 526.57 852.931 526.796C852.247 527.191 851.439 526.582 850.508 524.969ZM857.015 536.07C856.648 535.435 856.708 534.749 857.195 534.012L903.896 507.049C904.855 507.016 905.504 507.293 905.842 507.88C906.153 508.418 906.079 509.079 905.62 509.865L882.349 523.399L859.035 536.859C858.112 537.067 857.438 536.804 857.015 536.07ZM865.227 550.293C864.803 549.56 864.912 548.846 865.553 548.15L912.181 521.229C913.148 521.323 913.772 521.614 914.054 522.103C914.393 522.689 914.308 523.39 913.801 524.204L867.1 551.167C866.218 551.22 865.594 550.929 865.227 550.293Z" fill="#FF0000"/>
<circle cx="872" cy="294" r="3" fill="black"/>
<path d="M883 295.968C883 295.056 883.152 294.224 883.456 293.472C883.76 292.72 884.152 292.096 884.632 291.6C885.112 291.104 885.648 290.688 886.24 290.352C886.832 290.016 887.392 289.768 887.92 289.608C888.448 289.448 888.952 289.376 889.432 289.392H889.504C890.224 289.392 890.848 289.568 891.376 289.92C891.904 290.272 892.168 290.792 892.168 291.48C892.168 292.92 891.28 293.864 889.504 294.312C888.72 294.52 887.648 294.632 886.288 294.648C885.696 294.648 885.392 294.664 885.376 294.696C885.376 294.728 885.328 295.008 885.232 295.536C885.136 296.064 885.08 296.528 885.064 296.928C885.064 297.68 885.232 298.272 885.568 298.704C885.904 299.136 886.408 299.36 887.08 299.376C887.752 299.392 888.496 299.24 889.312 298.92C890.128 298.6 890.864 298.072 891.52 297.336C891.664 297.176 891.76 297.096 891.808 297.096C891.872 297.096 891.976 297.168 892.12 297.312C892.264 297.456 892.344 297.568 892.36 297.648C892.376 297.728 892.304 297.856 892.144 298.032C891.984 298.208 891.744 298.424 891.424 298.68C891.104 298.936 890.736 299.184 890.32 299.424C889.904 299.664 889.4 299.864 888.808 300.024C888.216 300.184 887.608 300.264 886.984 300.264C885.72 300.264 884.744 299.84 884.056 298.992C883.368 298.144 883.016 297.136 883 295.968ZM891.016 291.528C890.92 290.696 890.376 290.28 889.384 290.28C888.856 290.28 888.368 290.392 887.92 290.616C887.472 290.84 887.112 291.112 886.84 291.432C886.568 291.752 886.336 292.08 886.144 292.416C885.952 292.752 885.824 293.04 885.76 293.28C885.696 293.52 885.656 293.672 885.64 293.736C885.64 293.752 885.8 293.76 886.12 293.76C887.928 293.76 889.192 293.568 889.912 293.184C890.632 292.8 891 292.248 891.016 291.528Z" fill="black"/>
<path d="M897.117 292.791C896.732 292.791 896.529 292.769 896.506 292.723C896.495 292.701 896.489 292.656 896.489 292.588C896.489 292.316 896.551 292.13 896.676 292.028C896.698 292.016 896.794 292.011 896.964 292.011C897.428 292.033 898.197 292.045 899.272 292.045C899.656 292.045 900.013 292.045 900.341 292.045C900.669 292.045 900.923 292.039 901.104 292.028C901.285 292.016 901.398 292.016 901.444 292.028C901.625 292.028 901.715 292.084 901.715 292.197C901.715 292.22 901.704 292.299 901.681 292.435C901.625 292.627 901.568 292.74 901.511 292.774H901.478C901.455 292.774 901.427 292.774 901.393 292.774C901.359 292.774 901.319 292.774 901.274 292.774C901.229 292.774 901.178 292.78 901.121 292.791C901.065 292.803 901.014 292.803 900.968 292.791C900.527 292.803 900.245 292.82 900.12 292.842C899.996 292.865 899.894 292.927 899.815 293.029C899.781 293.074 899.6 293.77 899.272 295.116C899.192 295.41 899.108 295.738 899.017 296.1C898.927 296.462 898.859 296.728 898.814 296.898L898.746 297.152C898.746 297.175 899.566 297.186 901.206 297.186H903.666L903.683 297.135C903.683 297.101 903.859 296.406 904.209 295.048C904.526 293.747 904.684 293.052 904.684 292.961C904.684 292.871 904.362 292.814 903.717 292.791C903.457 292.791 903.287 292.78 903.208 292.757C903.129 292.735 903.089 292.684 903.089 292.605C903.089 292.582 903.101 292.514 903.123 292.401C903.169 292.209 903.203 292.101 903.225 292.079C903.248 292.056 903.338 292.039 903.497 292.028C903.553 292.028 903.791 292.033 904.209 292.045C904.628 292.056 905.16 292.062 905.804 292.062C906.506 292.062 907.043 292.056 907.416 292.045C907.79 292.033 907.993 292.028 908.027 292.028C908.219 292.028 908.316 292.084 908.316 292.197C908.316 292.503 908.248 292.695 908.112 292.774H908.078C908.055 292.774 908.027 292.774 907.993 292.774C907.959 292.774 907.92 292.774 907.874 292.774C907.829 292.774 907.778 292.78 907.722 292.791C907.665 292.803 907.614 292.803 907.569 292.791C907.128 292.803 906.845 292.82 906.721 292.842C906.596 292.865 906.494 292.927 906.415 293.029C906.381 293.085 905.974 294.686 905.194 297.831C904.413 300.976 904.017 302.571 904.006 302.616C904.006 302.695 904.028 302.735 904.074 302.735C904.164 302.769 904.47 302.797 904.99 302.819H905.516C905.584 302.91 905.618 302.961 905.618 302.972C905.618 302.983 905.601 303.085 905.567 303.278C905.522 303.425 905.465 303.532 905.397 303.6H905.143C904.724 303.577 903.966 303.566 902.869 303.566C902.484 303.566 902.128 303.566 901.8 303.566C901.472 303.566 901.212 303.566 901.019 303.566C900.827 303.566 900.708 303.572 900.663 303.583C900.471 303.583 900.375 303.532 900.375 303.43C900.375 303.374 900.392 303.295 900.426 303.193C900.482 302.978 900.539 302.859 900.595 302.836C900.64 302.825 900.725 302.819 900.85 302.819H900.952C901.257 302.819 901.596 302.802 901.97 302.769C902.037 302.757 902.083 302.752 902.105 302.752C902.128 302.752 902.162 302.723 902.207 302.667C902.252 302.61 902.286 302.559 902.309 302.514C902.332 302.469 902.366 302.367 902.411 302.209C902.456 302.05 902.496 301.892 902.53 301.733C902.563 301.575 902.626 301.332 902.716 301.004C902.795 300.687 902.858 300.433 902.903 300.24C903.276 298.747 903.463 297.995 903.463 297.984C903.463 297.972 902.643 297.967 901.002 297.967H898.542L897.982 300.257C897.598 301.773 897.405 302.559 897.405 302.616C897.405 302.695 897.45 302.746 897.541 302.769C897.631 302.791 897.914 302.808 898.389 302.819H898.915C898.983 302.91 899.017 302.961 899.017 302.972C899.017 302.983 899 303.085 898.966 303.278C898.921 303.425 898.864 303.532 898.797 303.6H898.542C898.124 303.577 897.366 303.566 896.268 303.566C895.884 303.566 895.527 303.566 895.199 303.566C894.871 303.566 894.611 303.566 894.419 303.566C894.227 303.566 894.108 303.572 894.063 303.583C893.87 303.583 893.774 303.532 893.774 303.43C893.774 303.408 893.791 303.328 893.825 303.193C893.882 302.978 893.938 302.859 893.995 302.836C894.04 302.825 894.125 302.819 894.249 302.819H894.351C894.656 302.819 894.996 302.802 895.369 302.769C895.527 302.735 895.635 302.667 895.691 302.565C895.725 302.52 896.133 300.947 896.913 297.848C897.694 294.748 898.084 293.114 898.084 292.944C898.084 292.865 897.762 292.814 897.117 292.791Z" fill="black"/>
<path d="M917.529 291.672C917.529 291.464 917.641 291.304 917.865 291.192H933.153C933.393 291.32 933.513 291.48 933.513 291.672C933.513 291.848 933.401 292 933.177 292.128L925.545 292.152H917.913C917.657 292.072 917.529 291.912 917.529 291.672ZM917.529 296.328C917.529 296.088 917.657 295.928 917.913 295.848H933.177C933.401 296.008 933.513 296.168 933.513 296.328C933.513 296.536 933.393 296.696 933.153 296.808H917.865C917.641 296.696 917.529 296.536 917.529 296.328Z" fill="black"/>
<path d="M943.732 294.96C943.732 295.504 943.844 295.992 944.068 296.424C944.292 296.856 944.58 297.184 944.932 297.408C945.284 297.632 945.628 297.816 945.964 297.96C946.3 298.104 946.58 298.208 946.804 298.272L947.164 298.32L947.212 298.296L947.524 297.312C947.812 296.384 948.076 295.592 948.316 294.936C948.556 294.28 948.868 293.576 949.252 292.824C949.636 292.072 950.02 291.464 950.404 291C950.788 290.536 951.26 290.152 951.82 289.848C952.38 289.544 952.964 289.392 953.572 289.392C954.292 289.392 954.932 289.648 955.492 290.16C956.052 290.672 956.34 291.536 956.356 292.752C956.356 294 956.012 295.2 955.324 296.352C954.636 297.504 953.692 298.44 952.492 299.16C951.292 299.88 950.028 300.24 948.7 300.24C948.284 300.24 948.076 300.256 948.076 300.288L947.908 301.152C947.812 301.712 947.7 302.328 947.572 303C947.444 303.672 947.356 304.104 947.308 304.296C947.228 304.68 947.02 304.944 946.684 305.088C946.508 305.184 946.308 305.232 946.084 305.232C945.588 305.184 945.34 304.92 945.34 304.44C945.34 304.28 945.78 302.816 946.66 300.048L946.54 300C946.46 299.968 946.348 299.928 946.204 299.88C946.06 299.832 945.884 299.76 945.676 299.664C945.468 299.568 945.26 299.456 945.052 299.328C944.844 299.2 944.628 299.056 944.404 298.896C944.18 298.736 943.972 298.536 943.78 298.296C943.588 298.056 943.404 297.8 943.228 297.528C943.052 297.256 942.932 296.944 942.868 296.592C942.804 296.24 942.756 295.856 942.724 295.44C942.724 294.672 942.932 293.704 943.348 292.536C943.764 291.368 944.348 290.408 945.1 289.656H945.412C945.748 289.656 945.916 289.72 945.916 289.848C945.916 289.944 945.852 290.056 945.724 290.184C945.068 290.952 944.58 291.824 944.26 292.8C943.94 293.776 943.764 294.496 943.732 294.96ZM955.3 293.328C955.3 292.656 955.108 292.128 954.724 291.744C954.34 291.36 953.828 291.16 953.188 291.144C952.404 291.144 951.668 291.464 950.98 292.104C950.292 292.744 949.724 293.632 949.276 294.768C949.052 295.312 948.828 296.184 948.604 297.384L948.388 298.464C948.676 298.496 948.836 298.512 948.868 298.512C950.74 298.512 952.276 297.96 953.476 296.856C954.676 295.752 955.284 294.576 955.3 293.328Z" fill="black"/>
<path d="M959.476 294C959.476 292.896 959.556 291.848 959.716 290.856C959.876 289.864 960.06 289.008 960.268 288.288C960.476 287.568 960.772 286.864 961.156 286.176C961.54 285.488 961.844 284.952 962.068 284.568C962.292 284.184 962.628 283.768 963.076 283.32C963.524 282.872 963.788 282.6 963.868 282.504C963.948 282.408 964.148 282.24 964.468 282H964.78H964.876C965.1 282 965.212 282.072 965.212 282.216C965.212 282.264 965.076 282.432 964.804 282.72C964.532 283.008 964.204 283.432 963.82 283.992C963.436 284.552 963.044 285.24 962.644 286.056C962.244 286.872 961.908 287.976 961.636 289.368C961.364 290.76 961.228 292.304 961.228 294C961.228 295.696 961.364 297.232 961.636 298.608C961.908 299.984 962.236 301.096 962.62 301.944C963.004 302.792 963.396 303.48 963.796 304.008C964.196 304.536 964.532 304.96 964.804 305.28C965.076 305.6 965.212 305.768 965.212 305.784C965.212 305.928 965.092 306 964.852 306H964.78H964.468L963.796 305.424C962.292 304.064 961.196 302.368 960.508 300.336C959.82 298.304 959.476 296.192 959.476 294Z" fill="black"/>
<path d="M967.492 295.968C967.492 295.056 967.644 294.224 967.948 293.472C968.252 292.72 968.644 292.096 969.124 291.6C969.604 291.104 970.14 290.688 970.732 290.352C971.324 290.016 971.884 289.768 972.412 289.608C972.94 289.448 973.444 289.376 973.924 289.392H973.996C974.716 289.392 975.34 289.568 975.868 289.92C976.396 290.272 976.66 290.792 976.66 291.48C976.66 292.92 975.772 293.864 973.996 294.312C973.212 294.52 972.14 294.632 970.78 294.648C970.188 294.648 969.884 294.664 969.868 294.696C969.868 294.728 969.82 295.008 969.724 295.536C969.628 296.064 969.572 296.528 969.556 296.928C969.556 297.68 969.724 298.272 970.06 298.704C970.396 299.136 970.9 299.36 971.572 299.376C972.244 299.392 972.988 299.24 973.804 298.92C974.62 298.6 975.356 298.072 976.012 297.336C976.156 297.176 976.252 297.096 976.3 297.096C976.364 297.096 976.468 297.168 976.612 297.312C976.756 297.456 976.836 297.568 976.852 297.648C976.868 297.728 976.796 297.856 976.636 298.032C976.476 298.208 976.236 298.424 975.916 298.68C975.596 298.936 975.228 299.184 974.812 299.424C974.396 299.664 973.892 299.864 973.3 300.024C972.708 300.184 972.1 300.264 971.476 300.264C970.212 300.264 969.236 299.84 968.548 298.992C967.86 298.144 967.508 297.136 967.492 295.968ZM975.508 291.528C975.412 290.696 974.868 290.28 973.876 290.28C973.348 290.28 972.86 290.392 972.412 290.616C971.964 290.84 971.604 291.112 971.332 291.432C971.06 291.752 970.828 292.08 970.636 292.416C970.444 292.752 970.316 293.04 970.252 293.28C970.188 293.52 970.148 293.672 970.132 293.736C970.132 293.752 970.292 293.76 970.612 293.76C972.42 293.76 973.684 293.568 974.404 293.184C975.124 292.8 975.492 292.248 975.508 291.528Z" fill="black"/>
<path d="M979.18 282.024L979.276 282C979.356 282 979.436 282 979.516 282H979.804L980.476 282.576C981.98 283.936 983.076 285.632 983.764 287.664C984.452 289.696 984.796 291.808 984.796 294C984.796 295.088 984.716 296.136 984.556 297.144C984.396 298.152 984.212 299.008 984.004 299.712C983.796 300.416 983.5 301.12 983.116 301.824C982.732 302.528 982.428 303.064 982.204 303.432C981.98 303.8 981.652 304.208 981.22 304.656C980.788 305.104 980.532 305.368 980.452 305.448C980.372 305.528 980.188 305.68 979.9 305.904C979.852 305.952 979.82 305.984 979.804 306H979.516C979.388 306 979.3 306 979.252 306C979.204 306 979.164 305.976 979.132 305.928C979.1 305.88 979.076 305.808 979.06 305.712C979.076 305.696 979.164 305.592 979.324 305.4C981.804 302.824 983.044 299.024 983.044 294C983.044 288.976 981.804 285.176 979.324 282.6C979.164 282.408 979.076 282.304 979.06 282.288C979.06 282.16 979.1 282.072 979.18 282.024Z" fill="black"/>
</svg>
