<svg width="683" height="741" viewBox="0 0 683 741" fill="none" xmlns="http://www.w3.org/2000/svg">
<path d="M320 89.447C320 86.4943 320.86 83.657 322.58 80.9354C324.301 78.2137 326.47 76.0569 329.089 74.4649C331.708 72.873 334.327 72.0642 336.946 72.0385C339.257 72.0385 341.093 72.6933 342.454 74.0028C342.685 74.2595 342.878 74.4778 343.032 74.6575C343.186 74.8372 343.288 74.9656 343.34 75.0426L343.378 75.1582C343.455 75.1582 343.802 74.8244 344.418 74.1568C344.598 74.0028 344.79 73.823 344.996 73.6176C345.201 73.4122 345.407 73.2068 345.612 73.0014C345.818 72.796 345.946 72.6547 345.997 72.5777L346.575 72H346.806C347.166 72 347.345 72.0899 347.345 72.2696C347.345 72.3723 346.934 74.1311 346.113 77.5461C345.188 81.1151 344.726 82.9124 344.726 82.9381C344.675 83.0665 344.611 83.1435 344.534 83.1692C344.457 83.1949 344.226 83.2205 343.84 83.2462H343.224C343.07 83.0922 342.993 82.9766 342.993 82.8996C342.993 82.8739 343.006 82.784 343.032 82.63C343.057 82.4759 343.083 82.2192 343.109 81.8597C343.134 81.5002 343.147 81.0894 343.147 80.6272C343.147 78.8042 342.736 77.2123 341.915 75.8514C341.093 74.4906 339.694 73.7973 337.717 73.7717C337.254 73.7717 336.754 73.8102 336.215 73.8872C335.675 73.9642 334.995 74.1311 334.173 74.3879C333.352 74.6447 332.569 75.0041 331.824 75.4663C331.079 75.9285 330.271 76.5447 329.398 77.315C328.525 78.0853 327.78 78.9968 327.164 80.0495C326.547 81.1022 325.944 82.4117 325.354 83.978C324.763 85.5442 324.365 87.2646 324.16 89.1389C324.108 89.6011 324.083 90.1018 324.083 90.641C324.083 91.8735 324.262 92.9647 324.622 93.9147C324.981 94.8647 325.443 95.5965 326.008 96.11C326.573 96.6236 327.215 97.0601 327.934 97.4195C328.653 97.779 329.32 97.9972 329.937 98.0743C330.553 98.1513 331.131 98.2027 331.67 98.2283C333.056 98.2283 334.327 97.9331 335.483 97.3425C336.638 96.7519 337.434 95.9945 337.871 95.0702C337.948 94.8647 338.14 94.1586 338.448 92.9519C338.757 91.7451 338.911 91.0646 338.911 90.9106C338.911 90.7052 338.744 90.5768 338.41 90.5254C338.076 90.4741 337.306 90.4356 336.099 90.4099H334.674C334.52 90.2558 334.443 90.1531 334.443 90.1018C334.443 90.0504 334.469 89.8065 334.52 89.37C334.623 89.0362 334.751 88.7923 334.905 88.6382H335.56C336.587 88.6896 338.384 88.7153 340.952 88.7153C341.979 88.7153 342.813 88.7153 343.455 88.7153C344.097 88.7153 344.559 88.7024 344.842 88.6768C345.124 88.6511 345.278 88.6511 345.304 88.6768C345.663 88.6768 345.843 88.7923 345.843 89.0234C345.843 89.0747 345.818 89.2545 345.766 89.5626C345.638 90.0504 345.509 90.32 345.381 90.3714C345.304 90.3971 345.111 90.4099 344.803 90.4099C344.29 90.4099 343.763 90.4484 343.224 90.5254C343.044 90.6025 342.916 90.718 342.839 90.8721C342.762 91.0261 342.582 91.6809 342.3 92.8363C342.069 93.6836 341.876 94.4026 341.722 94.9931C341.08 97.6121 340.721 98.9601 340.644 99.0371C340.592 99.0885 340.528 99.1142 340.451 99.1142C340.194 99.1142 339.835 98.8574 339.373 98.3439C338.911 97.8304 338.615 97.4324 338.487 97.1499C338.487 97.1243 338.461 97.1243 338.41 97.1499C338.359 97.1756 338.282 97.2398 338.179 97.3425C336.279 99.1142 333.711 100 330.476 100C327.369 100 324.853 99.0115 322.927 97.0344C321.001 95.0573 320.026 92.5282 320 89.447Z" fill="black"/>
<path d="M491.035 369.886C490.297 369.886 489.86 369.872 489.723 369.845C489.587 369.817 489.518 369.667 489.518 369.394C489.518 368.656 489.669 368.205 489.969 368.041C489.997 368.014 491.773 368 495.299 368C502.377 368 506.108 368.027 506.49 368.082C508.212 368.355 509.647 368.97 510.795 369.927C511.943 370.883 512.531 372.141 512.558 373.698C512.558 375.448 511.765 377.019 510.18 378.413C508.595 379.807 506.777 380.75 504.728 381.242L504.318 381.365C506.067 381.611 507.502 382.239 508.622 383.25C509.743 384.262 510.317 385.519 510.344 387.022C510.344 389.017 509.36 390.944 507.392 392.802C505.425 394.661 503.006 395.713 500.136 395.959C499.945 395.986 497.061 396 491.486 396C486.02 396 483.246 395.973 483.164 395.918C483.055 395.836 483 395.727 483 395.59C483 395.399 483.027 395.207 483.082 395.016C483.219 394.497 483.355 394.21 483.492 394.155C483.601 394.128 483.806 394.114 484.107 394.114H484.353C485.091 394.114 485.911 394.073 486.813 393.991C487.195 393.909 487.455 393.745 487.592 393.499C487.673 393.39 488.657 389.591 490.543 382.102C492.429 374.614 493.372 370.665 493.372 370.255C493.372 370.063 492.593 369.94 491.035 369.886ZM508.171 373.698C508.171 372.878 507.966 372.113 507.556 371.403C507.146 370.692 506.477 370.227 505.548 370.009C505.356 369.954 504.099 369.913 501.776 369.886C501.229 369.886 500.655 369.886 500.054 369.886C499.453 369.886 498.975 369.899 498.619 369.927H498.086C497.676 369.954 497.417 370.091 497.307 370.337C497.253 370.446 496.816 372.086 495.996 375.256C495.996 375.338 495.982 375.42 495.955 375.502L494.684 380.668H498.004C500.218 380.668 501.489 380.64 501.817 380.586C503.457 380.312 504.919 379.52 506.204 378.208C507.488 376.896 508.144 375.393 508.171 373.698ZM505.958 386.612C505.958 385.409 505.643 384.412 505.015 383.619C504.386 382.827 503.566 382.362 502.555 382.225C502.391 382.198 501.257 382.184 499.152 382.184C495.927 382.184 494.301 382.198 494.274 382.225C494.274 382.28 494.041 383.278 493.577 385.218C493.112 387.159 492.634 389.085 492.142 390.999L491.404 393.868C491.404 393.978 491.568 394.032 491.896 394.032C492.224 394.032 493.331 394.06 495.217 394.114C497.649 394.114 498.961 394.101 499.152 394.073C500.847 393.882 502.405 393.089 503.826 391.695C505.247 390.302 505.958 388.607 505.958 386.612Z" fill="black"/>
<path d="M311.765 245.106C311.765 245.732 312.365 246.097 313.564 246.201C314.034 246.201 314.268 246.345 314.268 246.631C314.268 246.657 314.242 246.827 314.19 247.14C314.112 247.505 314.034 247.739 313.955 247.844C313.877 247.948 313.708 248 313.447 248C313.395 248 313.238 248 312.978 248C312.717 248 312.274 247.987 311.648 247.961C311.022 247.935 310.188 247.922 309.145 247.922C307.294 247.922 306.108 247.948 305.587 248H305.274C305.091 247.818 305 247.674 305 247.57C305.052 246.866 305.222 246.41 305.508 246.201H306.056C307.881 246.123 309.21 245.471 310.045 244.246C310.201 244.089 312.561 240.114 317.123 232.318C321.685 224.523 324.006 220.574 324.084 220.469C324.266 220.156 324.579 220 325.022 220H325.335H326C326.156 220.235 326.235 220.365 326.235 220.391L327.33 233.022C328.06 241.443 328.451 245.693 328.503 245.771C328.633 246.058 329.48 246.201 331.045 246.201C331.696 246.201 332.022 246.331 332.022 246.592C332.022 246.644 331.983 246.827 331.905 247.14C331.827 247.531 331.762 247.765 331.709 247.844C331.657 247.922 331.475 247.974 331.162 248C331.084 248 330.901 248 330.615 248C330.328 248 329.819 247.987 329.089 247.961C328.359 247.935 327.408 247.922 326.235 247.922C323.784 247.922 322.181 247.948 321.425 248H320.955C320.799 247.844 320.721 247.726 320.721 247.648C320.721 247.57 320.747 247.335 320.799 246.944C320.903 246.605 320.981 246.397 321.034 246.318L321.19 246.201H321.972C323.38 246.123 324.214 245.901 324.475 245.536L324.006 239.67H314.698L313.369 241.939C312.3 243.737 311.765 244.793 311.765 245.106ZM323.81 237.832C323.81 237.546 323.654 235.512 323.341 231.732C323.028 227.952 322.845 226.048 322.793 226.022L321.737 227.704C321.32 228.408 320.499 229.803 319.274 231.888L315.754 237.832L319.782 237.872C322.467 237.872 323.81 237.858 323.81 237.832Z" fill="black"/>
<path d="M341.994 223.089C341.29 223.089 340.873 223.076 340.743 223.05C340.613 223.024 340.547 222.881 340.547 222.62C340.547 221.916 340.691 221.486 340.978 221.33C341.004 221.304 342.698 221.291 346.061 221.291C352.814 221.291 356.372 221.317 356.737 221.369C358.38 221.629 359.749 222.216 360.844 223.128C361.939 224.041 362.499 225.24 362.525 226.726C362.525 228.395 361.769 229.894 360.257 231.223C358.745 232.553 357.011 233.453 355.056 233.922L354.665 234.039C356.333 234.274 357.702 234.873 358.771 235.838C359.84 236.803 360.387 238.002 360.413 239.436C360.413 241.339 359.475 243.177 357.598 244.95C355.721 246.723 353.413 247.726 350.676 247.961C350.493 247.987 347.743 248 342.425 248C337.21 248 334.564 247.974 334.486 247.922C334.382 247.844 334.33 247.739 334.33 247.609C334.33 247.426 334.356 247.244 334.408 247.061C334.538 246.566 334.669 246.292 334.799 246.24C334.903 246.214 335.099 246.201 335.385 246.201H335.62C336.324 246.201 337.106 246.162 337.966 246.084C338.331 246.006 338.579 245.849 338.709 245.615C338.788 245.51 339.726 241.886 341.525 234.743C343.324 227.6 344.223 223.832 344.223 223.441C344.223 223.259 343.48 223.142 341.994 223.089ZM358.341 226.726C358.341 225.944 358.145 225.214 357.754 224.536C357.363 223.858 356.724 223.415 355.838 223.207C355.655 223.155 354.456 223.115 352.24 223.089C351.719 223.089 351.171 223.089 350.598 223.089C350.024 223.089 349.568 223.102 349.229 223.128H348.721C348.33 223.155 348.082 223.285 347.978 223.52C347.925 223.624 347.508 225.188 346.726 228.212C346.726 228.291 346.713 228.369 346.687 228.447L345.475 233.374H348.642C350.754 233.374 351.966 233.348 352.279 233.296C353.844 233.035 355.238 232.279 356.464 231.028C357.689 229.777 358.315 228.343 358.341 226.726ZM356.229 239.045C356.229 237.898 355.929 236.946 355.33 236.19C354.73 235.434 353.948 234.991 352.983 234.86C352.827 234.834 351.745 234.821 349.737 234.821C346.661 234.821 345.11 234.834 345.084 234.86C345.084 234.912 344.862 235.864 344.419 237.715C343.976 239.566 343.52 241.404 343.05 243.229L342.346 245.966C342.346 246.071 342.503 246.123 342.816 246.123C343.128 246.123 344.184 246.149 345.983 246.201C348.304 246.201 349.555 246.188 349.737 246.162C351.354 245.98 352.84 245.223 354.196 243.894C355.551 242.564 356.229 240.948 356.229 239.045Z" fill="black"/>
<path d="M334 120L334 200" stroke="black" stroke-width="2"/>
<path d="M285 268L204 348" stroke="black" stroke-width="2"/>
<path d="M390.778 274.364L387.082 263.918L378.918 272.082L389.364 275.778L390.778 274.364ZM389.364 274.364L388.657 275.071L462.293 348.707L463 348L463.707 347.293L390.071 273.657L389.364 274.364Z" fill="black"/>
<path d="M163.765 393.106C163.765 393.732 164.365 394.097 165.564 394.201C166.034 394.201 166.268 394.345 166.268 394.631C166.268 394.657 166.242 394.827 166.19 395.14C166.112 395.505 166.034 395.739 165.955 395.844C165.877 395.948 165.708 396 165.447 396C165.395 396 165.238 396 164.978 396C164.717 396 164.274 395.987 163.648 395.961C163.022 395.935 162.188 395.922 161.145 395.922C159.294 395.922 158.108 395.948 157.587 396H157.274C157.091 395.818 157 395.674 157 395.57C157.052 394.866 157.222 394.41 157.508 394.201H158.056C159.881 394.123 161.21 393.471 162.045 392.246C162.201 392.089 164.561 388.114 169.123 380.318C173.685 372.523 176.006 368.574 176.084 368.469C176.266 368.156 176.579 368 177.022 368H177.335H178C178.156 368.235 178.235 368.365 178.235 368.391L179.33 381.022C180.06 389.443 180.451 393.693 180.503 393.771C180.633 394.058 181.48 394.201 183.045 394.201C183.696 394.201 184.022 394.331 184.022 394.592C184.022 394.644 183.983 394.827 183.905 395.14C183.827 395.531 183.762 395.765 183.709 395.844C183.657 395.922 183.475 395.974 183.162 396C183.084 396 182.901 396 182.615 396C182.328 396 181.819 395.987 181.089 395.961C180.359 395.935 179.408 395.922 178.235 395.922C175.784 395.922 174.181 395.948 173.425 396H172.955C172.799 395.844 172.721 395.726 172.721 395.648C172.721 395.57 172.747 395.335 172.799 394.944C172.903 394.605 172.981 394.397 173.034 394.318L173.19 394.201H173.972C175.38 394.123 176.214 393.901 176.475 393.536L176.006 387.67H166.698L165.369 389.939C164.3 391.737 163.765 392.793 163.765 393.106ZM175.81 385.832C175.81 385.546 175.654 383.512 175.341 379.732C175.028 375.952 174.845 374.048 174.793 374.022L173.737 375.704C173.32 376.408 172.499 377.803 171.274 379.888L167.754 385.832L171.782 385.872C174.467 385.872 175.81 385.858 175.81 385.832Z" fill="black"/>
<path d="M291.564 540.358C291.564 540.965 292.145 541.319 293.309 541.42C293.764 541.42 293.992 541.559 293.992 541.837C293.992 541.863 293.967 542.027 293.916 542.331C293.84 542.685 293.764 542.912 293.688 543.014C293.612 543.115 293.448 543.165 293.195 543.165C293.145 543.165 292.993 543.165 292.74 543.165C292.487 543.165 292.057 543.153 291.45 543.127C290.843 543.102 290.033 543.089 289.022 543.089C287.226 543.089 286.075 543.115 285.569 543.165H285.266C285.089 542.988 285 542.849 285 542.748C285.051 542.065 285.215 541.622 285.493 541.42H286.024C287.795 541.344 289.085 540.712 289.894 539.523C290.046 539.371 292.335 535.514 296.762 527.951C301.188 520.388 303.439 516.556 303.515 516.455C303.692 516.152 303.995 516 304.425 516H304.729H305.374C305.526 516.228 305.602 516.354 305.602 516.379L306.664 528.634C307.372 536.804 307.752 540.927 307.802 541.003C307.929 541.281 308.751 541.42 310.268 541.42C310.901 541.42 311.217 541.546 311.217 541.799C311.217 541.85 311.179 542.027 311.103 542.331C311.027 542.71 310.964 542.938 310.913 543.014C310.863 543.089 310.686 543.14 310.382 543.165C310.306 543.165 310.129 543.165 309.851 543.165C309.573 543.165 309.079 543.153 308.371 543.127C307.663 543.102 306.74 543.089 305.602 543.089C303.224 543.089 301.668 543.115 300.935 543.165H300.48C300.328 543.014 300.252 542.9 300.252 542.824C300.252 542.748 300.277 542.52 300.328 542.141C300.429 541.812 300.505 541.61 300.556 541.534L300.707 541.42H301.466C302.832 541.344 303.641 541.129 303.894 540.775L303.439 535.084H294.409L293.119 537.285C292.082 539.03 291.564 540.054 291.564 540.358ZM303.249 533.301C303.249 533.023 303.098 531.05 302.794 527.382C302.491 523.715 302.313 521.868 302.263 521.843L301.238 523.474C300.834 524.157 300.037 525.51 298.848 527.534L295.434 533.301L299.341 533.339C301.947 533.339 303.249 533.326 303.249 533.301Z" fill="black"/>
<path d="M323.896 543.962C323.896 543.962 323.732 543.962 323.403 543.962C323.074 543.962 322.821 543.785 322.644 543.431V535.577C322.644 534.793 322.644 533.781 322.644 532.542C322.67 529.153 322.733 527.281 322.834 526.927C322.859 526.876 322.872 526.838 322.872 526.813C323.277 525.068 324.428 523.575 326.325 522.336C328.222 521.097 330.498 520.477 333.154 520.477C335.961 520.477 338.364 521.16 340.363 522.526C342.361 523.892 343.474 525.65 343.701 527.799C343.727 527.951 343.739 530.62 343.739 535.805V543.431C343.562 543.81 343.309 544 342.98 544C342.753 544 342.513 543.836 342.26 543.507L342.184 527.799C342.007 527.091 341.83 526.535 341.653 526.13C341.475 525.725 341.134 525.27 340.628 524.764C339.844 523.904 338.782 523.234 337.441 522.753C336.101 522.273 334.697 522.02 333.23 521.995C331.13 521.995 329.17 522.5 327.349 523.512C325.528 524.524 324.478 526.004 324.2 527.951C324.175 528.078 324.162 530.708 324.162 535.843V543.431C323.985 543.785 323.732 543.962 323.403 543.962H323.896Z" fill="black"/>
<path d="M363.059 518.997C362.376 518.997 361.971 518.985 361.844 518.959C361.718 518.934 361.655 518.795 361.655 518.542C361.655 517.859 361.794 517.442 362.072 517.29C362.097 517.265 363.741 517.252 367.004 517.252C373.555 517.252 377.008 517.277 377.362 517.328C378.956 517.581 380.283 518.15 381.346 519.035C382.408 519.92 382.952 521.084 382.977 522.526C382.977 524.145 382.244 525.599 380.777 526.889C379.31 528.179 377.628 529.051 375.731 529.507L375.351 529.621C376.97 529.848 378.298 530.43 379.335 531.366C380.372 532.302 380.903 533.465 380.928 534.856C380.928 536.703 380.018 538.486 378.197 540.206C376.376 541.926 374.137 542.9 371.481 543.127C371.304 543.153 368.636 543.165 363.476 543.165C358.417 543.165 355.85 543.14 355.774 543.089C355.673 543.014 355.622 542.912 355.622 542.786C355.622 542.609 355.647 542.432 355.698 542.255C355.825 541.774 355.951 541.509 356.077 541.458C356.179 541.433 356.368 541.42 356.647 541.42H356.874C357.557 541.42 358.316 541.382 359.151 541.306C359.505 541.23 359.745 541.079 359.872 540.851C359.947 540.75 360.858 537.234 362.603 530.303C364.348 523.373 365.221 519.718 365.221 519.339C365.221 519.162 364.5 519.048 363.059 518.997ZM378.918 522.526C378.918 521.767 378.728 521.059 378.348 520.401C377.969 519.743 377.349 519.313 376.489 519.111C376.312 519.06 375.149 519.023 372.999 518.997C372.493 518.997 371.962 518.997 371.405 518.997C370.849 518.997 370.406 519.01 370.077 519.035H369.584C369.205 519.06 368.965 519.187 368.863 519.415C368.813 519.516 368.408 521.033 367.649 523.967C367.649 524.043 367.637 524.119 367.611 524.195L366.435 528.976H369.508C371.557 528.976 372.733 528.95 373.037 528.9C374.554 528.647 375.908 527.913 377.096 526.699C378.285 525.485 378.892 524.094 378.918 522.526ZM376.869 534.477C376.869 533.364 376.578 532.441 375.996 531.707C375.414 530.974 374.656 530.544 373.72 530.417C373.568 530.392 372.518 530.379 370.571 530.379C367.586 530.379 366.081 530.392 366.056 530.417C366.056 530.468 365.841 531.391 365.411 533.187C364.981 534.983 364.538 536.766 364.083 538.537L363.4 541.192C363.4 541.294 363.552 541.344 363.855 541.344C364.159 541.344 365.183 541.369 366.928 541.42C369.18 541.42 370.394 541.407 370.571 541.382C372.139 541.205 373.581 540.472 374.896 539.182C376.211 537.892 376.869 536.323 376.869 534.477Z" fill="black"/>
<path d="M210.859 423.346L208.591 412.499L199.409 419.501L209.268 424.558L210.859 423.346ZM209.457 423.157L208.662 423.763L264.205 496.606L265 496L265.795 495.394L210.252 422.55L209.457 423.157Z" fill="black"/>
<path d="M463 416L403 496" stroke="black" stroke-width="2"/>
<path d="M312.309 394.041C316.316 397.634 320.304 401.342 324.264 405.162L323.571 405.881C325.517 407.758 327.456 409.662 329.387 411.593C331.318 413.524 333.222 415.463 335.099 417.409L335.817 416.715C339.637 420.675 343.346 424.663 346.938 428.671L346.195 429.338C349.862 433.428 353.407 437.538 356.828 441.658L357.596 441.02C361.121 445.265 364.514 449.521 367.772 453.777L366.979 454.385C370.334 458.769 373.544 463.153 376.605 467.524L377.422 466.951C380.604 471.496 383.625 476.027 386.48 480.532L385.636 481.068C388.606 485.755 391.394 490.413 393.995 495.027L394.865 494.536C397.609 499.403 400.148 504.222 402.472 508.975L401.574 509.414C404.031 514.439 406.248 519.389 408.215 524.241L409.14 523.866C411.261 529.097 413.098 534.218 414.635 539.204L413.68 539.498C415.353 544.924 416.672 550.183 417.623 555.241L418.603 555.058C419.667 560.715 420.275 566.131 420.412 571.258L419.415 571.285C419.568 577.017 419.122 582.365 418.06 587.269L419.034 587.481C417.822 593.077 415.819 598.125 412.984 602.53L412.145 601.988C410.706 604.224 409.049 606.288 407.169 608.169C405.288 610.049 403.224 611.706 400.988 613.145L401.529 613.985C397.124 616.82 392.076 618.823 386.48 620.035L386.269 619.06C381.365 620.122 376.017 620.568 370.285 620.415L370.257 621.412C365.13 621.276 359.715 620.668 354.057 619.604L354.241 618.623C349.183 617.672 343.924 616.353 338.498 614.68L338.204 615.636C333.218 614.098 328.097 612.262 322.865 610.141L323.241 609.215C318.389 607.248 313.439 605.031 308.414 602.574L307.975 603.473C303.221 601.149 298.403 598.61 293.535 595.865L294.027 594.995C289.413 592.394 284.755 589.606 280.068 586.636L279.532 587.48C275.026 584.626 270.495 581.605 265.95 578.423L266.524 577.605C262.153 574.544 257.769 571.334 253.385 567.979L252.776 568.772C248.52 565.515 244.265 562.122 240.019 558.597L240.658 557.828C236.538 554.407 232.428 550.862 228.338 547.195L227.67 547.939C223.662 544.346 219.674 540.638 215.715 536.818L216.409 536.099C214.463 534.222 212.524 532.318 210.593 530.387C208.662 528.456 206.758 526.517 204.881 524.571L204.161 525.264C200.837 521.819 197.597 518.352 194.445 514.869L193.04 513.309L193.785 512.642C190.118 508.552 186.573 504.442 183.152 500.322L182.383 500.96C178.858 496.715 175.464 492.459 172.207 488.203L173.001 487.595C169.646 483.211 166.435 478.827 163.375 474.456L162.556 475.029C159.374 470.484 156.353 465.953 153.499 461.447L154.343 460.912C151.374 456.225 148.586 451.567 145.984 446.953L145.114 447.444C142.369 442.577 139.83 437.758 137.506 433.004H137.508L138.406 432.566C135.949 427.541 133.732 422.591 131.764 417.739L130.838 418.114C128.717 412.882 126.881 407.761 125.343 402.776H125.344L126.3 402.481C124.627 397.056 123.308 391.797 122.357 386.739L121.375 386.922C120.312 381.264 119.703 375.849 119.567 370.722L120.565 370.695C120.412 364.963 120.858 359.614 121.92 354.711L120.944 354.499C122.156 348.903 124.159 343.855 126.994 339.45L127.835 339.991C129.274 337.756 130.931 335.692 132.811 333.811C134.692 331.931 136.756 330.274 138.991 328.835L138.449 327.995C142.854 325.16 147.902 323.157 153.498 321.945L153.711 322.92C158.614 321.858 163.963 321.412 169.695 321.565L169.721 320.567C174.848 320.704 180.264 321.312 185.922 322.376L185.739 323.357C190.797 324.308 196.056 325.627 201.481 327.3L201.775 326.344L201.775 326.344C206.761 327.882 211.882 329.718 217.113 331.839L216.739 332.764C221.591 334.732 226.541 336.949 231.566 339.406L232.004 338.508L232.004 338.507C236.757 340.831 241.576 343.37 246.443 346.114L246.444 346.114L245.953 346.985C250.567 349.586 255.225 352.374 259.912 355.343L260.447 354.5C264.952 357.354 269.484 360.375 274.028 363.557L273.456 364.375C277.827 367.435 282.211 370.646 286.595 374.001L287.202 373.208C291.458 376.465 295.714 379.858 299.959 383.383L299.322 384.152C303.442 387.573 307.552 391.118 311.642 394.785L312.309 394.041Z" stroke="black" stroke-opacity="0.25" stroke-width="2" stroke-dasharray="16 16"/>
<path d="M455.309 235.041C459.316 238.634 463.304 242.342 467.264 246.162L466.571 246.881C468.517 248.758 470.456 250.662 472.387 252.593C474.318 254.524 476.222 256.463 478.099 258.409L478.817 257.715C482.637 261.675 486.346 265.663 489.938 269.671L489.195 270.338C492.862 274.428 496.407 278.538 499.828 282.658L500.596 282.02C504.121 286.265 507.514 290.521 510.772 294.777L509.979 295.385C513.334 299.769 516.544 304.153 519.605 308.524L520.422 307.951C523.604 312.496 526.625 317.027 529.48 321.532L528.636 322.068C531.606 326.755 534.394 331.413 536.995 336.027L537.865 335.536C540.609 340.403 543.148 345.222 545.472 349.975L544.574 350.414C547.031 355.439 549.248 360.389 551.215 365.241L552.14 364.866C554.261 370.097 556.098 375.218 557.635 380.204L556.68 380.498C558.353 385.924 559.672 391.183 560.623 396.241L561.603 396.058C562.667 401.715 563.275 407.131 563.412 412.258L562.415 412.285C562.568 418.017 562.122 423.365 561.06 428.269L562.034 428.481C560.822 434.077 558.819 439.125 555.984 443.53L555.145 442.988C553.706 445.224 552.049 447.288 550.169 449.169C548.288 451.049 546.224 452.706 543.988 454.145L544.529 454.985C540.124 457.82 535.076 459.823 529.48 461.035L529.269 460.06C524.365 461.122 519.017 461.568 513.285 461.415L513.257 462.412C508.13 462.276 502.715 461.668 497.057 460.604L497.241 459.623C492.183 458.672 486.924 457.353 481.498 455.68L481.204 456.636C476.218 455.098 471.097 453.262 465.865 451.141L466.241 450.215C461.389 448.248 456.439 446.031 451.414 443.574L450.975 444.473C446.221 442.149 441.403 439.61 436.535 436.865L437.027 435.995C432.413 433.394 427.755 430.606 423.068 427.636L422.532 428.48C418.026 425.626 413.495 422.605 408.95 419.423L409.524 418.605C405.153 415.544 400.769 412.334 396.385 408.979L395.776 409.772C391.52 406.515 387.265 403.122 383.019 399.597L383.658 398.828C379.538 395.407 375.428 391.862 371.338 388.195L370.67 388.939C366.662 385.346 362.674 381.638 358.715 377.818L359.409 377.099C357.463 375.222 355.524 373.318 353.593 371.387C351.662 369.456 349.758 367.517 347.881 365.571L347.161 366.264C343.837 362.819 340.597 359.352 337.445 355.869L336.04 354.309L336.785 353.642C333.118 349.552 329.573 345.442 326.152 341.322L325.383 341.96C321.858 337.715 318.464 333.459 315.207 329.203L316.001 328.595C312.646 324.211 309.435 319.827 306.375 315.456L305.556 316.029C302.374 311.484 299.353 306.953 296.499 302.447L297.343 301.912C294.374 297.225 291.586 292.567 288.984 287.953L288.114 288.444C285.369 283.577 282.83 278.758 280.506 274.004H280.508L281.406 273.566C278.949 268.541 276.732 263.591 274.764 258.739L273.838 259.114C271.717 253.882 269.881 248.761 268.343 243.776H268.344L269.3 243.481C267.627 238.056 266.308 232.797 265.357 227.739L264.375 227.922C263.312 222.264 262.703 216.849 262.567 211.722L263.565 211.695C263.412 205.963 263.858 200.614 264.92 195.711L263.944 195.499C265.156 189.903 267.159 184.855 269.994 180.45L270.835 180.991C272.274 178.756 273.931 176.692 275.811 174.811C277.692 172.931 279.756 171.274 281.991 169.835L281.449 168.995C285.854 166.16 290.902 164.157 296.498 162.945L296.711 163.92C301.614 162.858 306.963 162.412 312.695 162.565L312.721 161.567C317.848 161.704 323.264 162.312 328.922 163.376L328.739 164.357C333.797 165.308 339.056 166.627 344.481 168.3L344.775 167.344L344.775 167.344C349.761 168.882 354.882 170.718 360.113 172.839L359.739 173.764C364.591 175.732 369.541 177.949 374.566 180.406L375.004 179.508L375.004 179.507C379.757 181.831 384.576 184.37 389.443 187.114L389.444 187.114L388.953 187.985C393.567 190.586 398.225 193.374 402.912 196.343L403.447 195.5C407.952 198.354 412.484 201.375 417.028 204.557L416.456 205.375C420.827 208.435 425.211 211.646 429.595 215.001L430.202 214.208C434.458 217.465 438.714 220.858 442.959 224.383L442.322 225.152C446.442 228.573 450.552 232.118 454.642 235.785L455.309 235.041Z" stroke="black" stroke-opacity="0.25" stroke-width="2" stroke-dasharray="16 16"/>
<path d="M308.032 399.959C305.039 396.966 303.203 393.295 302.525 388.945C301.846 384.595 303.004 380.923 305.997 377.93C307.513 376.414 309.349 375.297 311.504 374.578C313.659 373.86 315.874 373.441 318.149 373.321C320.423 373.201 322.638 373.062 324.793 372.902C326.948 372.743 329.083 372.363 331.198 371.765C333.313 371.166 335.089 370.149 336.526 368.712C339 366.238 340.078 363.284 339.758 359.852C339.439 356.42 338.182 353.607 335.987 351.412C335.508 350.933 335.189 350.454 335.029 349.975C334.87 349.497 334.89 349.117 335.089 348.838C335.648 348.279 336.586 348.658 337.903 349.975C340.856 352.929 342.692 356.56 343.41 360.87C344.128 365.18 343.091 368.732 340.297 371.525L339.818 372.004C338.342 373.481 336.526 374.578 334.371 375.297C332.216 376.015 330.001 376.474 327.726 376.673C325.452 376.873 323.217 376.993 321.022 377.033C318.827 377.072 316.692 377.452 314.617 378.17C312.542 378.888 310.806 379.906 309.409 381.223C307.653 382.979 306.595 385.034 306.236 387.388C305.957 389.982 306.336 392.317 307.374 394.392C308.411 396.467 309.329 398.024 310.127 399.061C310.925 400.099 311.165 400.777 310.846 401.097C310.287 401.655 309.349 401.276 308.032 399.959ZM317.191 408.998C316.672 408.479 316.552 407.801 316.832 406.963L354.963 368.832C355.881 368.552 356.579 368.652 357.058 369.131C357.497 369.57 357.597 370.228 357.357 371.106L338.382 390.202L319.346 409.238C318.508 409.677 317.789 409.597 317.191 408.998ZM328.804 420.611C328.205 420.013 328.125 419.294 328.564 418.456L366.636 380.385C367.594 380.225 368.272 380.345 368.671 380.744C369.15 381.223 369.25 381.921 368.97 382.839L330.839 420.97C330.001 421.25 329.323 421.13 328.804 420.611Z" fill="#FF0000"/>
</svg>
