<svg version="1.1" xmlns="http://www.w3.org/2000/svg"
    viewBox="0 0 1081.9999694824219 951.866723378499" width="1081.9999694824219"
    height="951.866723378499"><!-- svg-source:excalidraw -->
    <metadata></metadata>
    <defs>
        <style class="style-fonts">
      </style>
    </defs>
    <rect x="0" y="0" width="1081.9999694824219" height="951.866723378499" fill="#ffffff"></rect>
    <g
        transform="translate(165.99990844726562 124.00003433227539) rotate(0 -3.99993896484375 394.00001525878906)"
        stroke="none">
        <path fill="#1e1e1e"
            d="M 3.12,0 Q 3.12,0 3.05,12.07 2.98,24.15 2.93,43.65 2.88,63.16 2.85,95.60 2.81,128.04 2.79,169.43 2.76,210.81 2.17,260.62 1.57,310.42 0.16,362.66 -1.24,414.89 -1.84,464.66 -2.44,514.43 -2.70,560.30 -2.96,606.18 -3.07,643.50 -3.18,680.82 -3.23,706.46 -3.28,732.10 -3.30,747.02 -3.33,761.94 -3.91,769.53 -4.50,777.13 -4.94,782.66 -5.37,788.20 -5.47,788.61 -5.57,789.03 -5.80,789.39 -6.03,789.75 -6.36,790.02 -6.69,790.28 -7.09,790.43 -7.49,790.58 -7.92,790.59 -8.34,790.61 -8.75,790.48 -9.16,790.36 -9.50,790.11 -9.85,789.86 -10.10,789.52 -10.35,789.17 -10.48,788.77 -10.60,788.36 -10.59,787.93 -10.58,787.51 -10.44,787.11 -10.29,786.71 -10.03,786.37 -9.76,786.04 -9.40,785.81 -9.04,785.58 -8.63,785.47 -8.22,785.37 -7.79,785.40 -7.37,785.44 -6.98,785.60 -6.58,785.77 -6.27,786.05 -5.95,786.34 -5.74,786.71 -5.53,787.08 -5.44,787.50 -5.36,787.91 -5.42,788.34 -5.47,788.76 -5.66,789.14 -5.85,789.52 -6.15,789.83 -6.45,790.13 -6.83,790.32 -7.21,790.51 -7.64,790.57 -8.06,790.63 -8.48,790.55 -8.90,790.47 -9.27,790.26 -9.64,790.05 -9.92,789.74 -10.21,789.42 -10.38,789.03 -10.55,788.64 -10.59,788.21 -10.62,787.79 -10.62,787.79 -10.62,787.79 -10.19,782.25 -9.76,776.72 -9.18,769.32 -8.61,761.93 -8.59,747.01 -8.57,732.09 -8.53,706.45 -8.49,680.81 -8.39,643.48 -8.29,606.15 -8.04,560.26 -7.80,514.36 -7.22,464.55 -6.63,414.74 -5.25,362.55 -3.87,310.36 -3.32,260.59 -2.76,210.81 -2.79,169.43 -2.81,128.04 -2.85,95.60 -2.88,63.16 -2.93,43.65 -2.98,24.15 -3.05,12.07 -3.12,0 -3.07,-0.37 -3.03,-0.74 -2.90,-1.09 -2.76,-1.45 -2.55,-1.76 -2.33,-2.07 -2.05,-2.32 -1.77,-2.57 -1.44,-2.74 -1.10,-2.92 -0.74,-3.01 -0.37,-3.10 0.00,-3.10 0.37,-3.10 0.74,-3.01 1.10,-2.92 1.44,-2.74 1.77,-2.57 2.05,-2.32 2.33,-2.07 2.55,-1.76 2.76,-1.45 2.90,-1.09 3.03,-0.74 3.07,-0.37 3.12,0.00 3.12,0.00 L 3.12,0 Z"></path>
    </g>
    <g transform="translate(10 828.0000495910645) rotate(0 450.99998474121094 -19.000015258789062)"
        stroke="none">
        <path fill="#1e1e1e"
            d="M -0.28,-3.11 Q -0.28,-3.11 6.04,-3.61 12.37,-4.12 28.25,-6.04 44.12,-7.95 69.95,-9.34 95.79,-10.72 128.59,-12.45 161.38,-14.17 202.94,-15.47 244.51,-16.77 291.51,-17.32 338.52,-17.87 388.39,-18.09 438.27,-18.32 487.61,-19.57 536.95,-20.81 586.11,-21.91 635.27,-23.01 679.70,-25.20 724.13,-27.39 757.94,-30.05 791.75,-32.70 817.08,-34.40 842.40,-36.11 858.32,-37.40 874.23,-38.70 881.58,-39.25 888.94,-39.80 892.64,-40.15 896.35,-40.51 899.07,-40.89 901.79,-41.28 902.32,-41.23 902.85,-41.18 903.33,-40.96 903.82,-40.74 904.21,-40.37 904.60,-40.01 904.85,-39.54 905.11,-39.08 905.20,-38.55 905.29,-38.03 905.21,-37.50 905.13,-36.97 904.88,-36.50 904.63,-36.03 904.25,-35.66 903.87,-35.29 903.39,-35.06 902.90,-34.83 902.38,-34.77 901.85,-34.71 901.33,-34.81 900.80,-34.92 900.34,-35.20 899.89,-35.47 899.54,-35.87 899.19,-36.27 898.99,-36.76 898.79,-37.26 898.75,-37.79 898.72,-38.32 898.86,-38.84 898.99,-39.35 899.29,-39.79 899.58,-40.24 900.00,-40.56 900.43,-40.89 900.93,-41.07 901.43,-41.24 901.97,-41.24 902.50,-41.25 903.00,-41.08 903.51,-40.92 903.94,-40.60 904.37,-40.28 904.67,-39.84 904.97,-39.40 905.12,-38.89 905.27,-38.38 905.24,-37.85 905.22,-37.32 905.02,-36.82 904.83,-36.32 904.49,-35.91 904.15,-35.50 903.70,-35.23 903.24,-34.95 902.72,-34.83 902.20,-34.71 902.20,-34.71 902.20,-34.71 899.46,-34.75 896.71,-34.79 893.02,-34.67 889.33,-34.55 882.00,-34.00 874.66,-33.45 858.71,-32.15 842.76,-30.84 817.46,-29.14 792.17,-27.43 758.28,-24.77 724.39,-22.11 679.89,-19.91 635.39,-17.71 586.24,-16.59 537.08,-15.48 487.69,-14.22 438.29,-12.96 388.44,-12.72 338.58,-12.47 291.63,-11.89 244.68,-11.32 203.18,-9.98 161.67,-8.65 128.89,-6.87 96.10,-5.09 70.46,-3.66 44.83,-2.22 28.87,-0.19 12.92,1.82 6.60,2.46 0.28,3.11 -0.09,3.10 -0.47,3.08 -0.83,2.98 -1.19,2.88 -1.52,2.70 -1.85,2.51 -2.12,2.25 -2.40,2.00 -2.60,1.68 -2.80,1.36 -2.93,1.01 -3.05,0.65 -3.08,0.28 -3.12,-0.09 -3.06,-0.46 -3.00,-0.83 -2.86,-1.18 -2.72,-1.53 -2.49,-1.83 -2.27,-2.14 -1.98,-2.38 -1.69,-2.62 -1.35,-2.78 -1.01,-2.95 -0.65,-3.03 -0.28,-3.11 -0.28,-3.11 L -0.28,-3.11 Z"></path>
    </g>
    <g
        transform="translate(163.99993896484375 122.00002670288086) rotate(0 5.9999847412109375 9.999980926513672)"
        stroke="none">
        <path fill="#1e1e1e"
            d="M 2.88,2.40 Q 2.88,2.40 -0.11,5.75 -3.10,9.10 -6.76,12.87 -10.43,16.63 -13.73,19.92 -17.03,23.21 -19.50,25.84 -21.97,28.47 -22.93,31.08 -23.89,33.69 -24.26,33.98 -24.63,34.27 -25.05,34.47 -25.48,34.66 -25.94,34.75 -26.40,34.84 -26.87,34.81 -27.34,34.79 -27.79,34.65 -28.24,34.51 -28.64,34.27 -29.05,34.03 -29.38,33.70 -29.72,33.37 -29.96,32.97 -30.21,32.57 -30.35,32.12 -30.49,31.67 -30.52,31.20 -30.55,30.74 -30.47,30.27 -30.39,29.81 -30.20,29.38 -30.01,28.95 -29.72,28.58 -29.43,28.21 -26.75,26.10 -24.07,23.99 -20.22,19.99 -16.38,15.99 -11.08,11.27 -5.77,6.55 -1.33,1.83 3.10,-2.88 5.51,-5.99 7.92,-9.10 9.89,-10.97 11.85,-12.84 15.09,-13.11 18.33,-13.38 21.29,-10.69 24.25,-8.00 27.37,-2.67 30.50,2.66 33.39,7.09 36.28,11.53 38.34,14.30 40.39,17.07 42.57,16.42 44.75,15.77 44.98,16.13 45.21,16.49 45.34,16.90 45.47,17.31 45.50,17.73 45.54,18.16 45.46,18.58 45.39,19.00 45.22,19.39 45.05,19.78 44.80,20.12 44.54,20.46 44.21,20.73 43.87,21.00 43.49,21.18 43.10,21.36 42.68,21.45 42.26,21.53 41.83,21.51 41.41,21.49 41.00,21.37 40.59,21.25 40.22,21.03 39.85,20.82 39.54,20.52 39.24,20.22 39.71,17.59 40.18,14.95 40.71,14.74 41.25,14.53 41.82,14.50 42.39,14.47 42.94,14.63 43.50,14.78 43.97,15.11 44.44,15.43 44.79,15.89 45.13,16.35 45.31,16.89 45.49,17.44 45.49,18.01 45.49,18.58 45.31,19.12 45.12,19.67 44.77,20.12 44.42,20.58 43.95,20.90 43.47,21.22 42.92,21.37 42.36,21.52 41.79,21.49 41.22,21.45 40.69,21.24 40.16,21.02 39.72,20.65 39.28,20.28 38.99,19.79 38.70,19.29 38.58,18.73 38.45,18.17 38.52,17.60 38.58,17.03 38.83,16.51 39.07,15.99 39.47,15.58 39.86,15.16 40.37,14.90 40.88,14.63 41.44,14.54 42.01,14.45 42.57,14.55 43.14,14.64 43.65,14.91 44.15,15.18 44.54,15.60 44.94,16.02 45.18,16.54 45.41,17.06 45.47,17.63 45.53,18.20 45.41,18.76 45.28,19.32 44.98,19.81 44.69,20.30 44.72,18.03 44.75,15.77 44.98,16.13 45.21,16.49 45.34,16.90 45.47,17.30 45.50,17.73 45.54,18.16 45.46,18.58 45.39,19.00 45.22,19.39 45.05,19.78 44.80,20.12 44.54,20.46 44.21,20.73 43.87,21.00 43.49,21.18 43.10,21.36 42.68,21.45 42.26,21.53 41.83,21.51 41.41,21.49 41.00,21.37 40.59,21.25 40.22,21.03 39.85,20.82 39.54,20.52 39.24,20.22 37.80,21.09 36.36,21.96 33.53,18.67 30.69,15.38 27.48,10.96 24.26,6.55 21.15,1.88 18.03,-2.78 15.39,-4.07 12.74,-5.36 10.19,-2.03 7.65,1.29 3.14,6.31 -1.36,11.34 -6.30,16.03 -11.24,20.71 -15.26,25.31 -19.29,29.91 -21.59,31.80 -23.89,33.69 -24.26,33.98 -24.62,34.27 -25.05,34.47 -25.48,34.66 -25.94,34.75 -26.40,34.84 -26.87,34.81 -27.34,34.79 -27.79,34.65 -28.24,34.51 -28.64,34.27 -29.05,34.03 -29.38,33.70 -29.72,33.37 -29.96,32.97 -30.21,32.57 -30.35,32.12 -30.49,31.67 -30.52,31.20 -30.55,30.74 -30.47,30.27 -30.39,29.81 -30.20,29.38 -30.01,28.95 -29.72,28.58 -29.43,28.21 -29.98,29.35 -30.52,30.49 -28.55,27.21 -26.57,23.94 -24.00,21.44 -21.43,18.95 -18.29,15.59 -15.14,12.22 -11.77,8.46 -8.39,4.69 -5.63,1.14 -2.88,-2.40 -2.55,-2.71 -2.22,-3.02 -1.82,-3.24 -1.43,-3.46 -0.99,-3.58 -0.56,-3.70 -0.11,-3.72 0.33,-3.73 0.78,-3.63 1.22,-3.54 1.62,-3.34 2.03,-3.14 2.38,-2.85 2.73,-2.57 2.99,-2.20 3.26,-1.84 3.43,-1.42 3.61,-1.00 3.68,-0.56 3.74,-0.11 3.70,0.33 3.66,0.78 3.51,1.21 3.37,1.64 3.12,2.02 2.88,2.40 2.88,2.40 L 2.88,2.40 Z"></path>
    </g>
    <g transform="translate(188.00003051757812 10) rotate(0 -6.00006103515625 28.000001907348633)"
        stroke="none">
        <path fill="#1e1e1e"
            d="M 2.51,3.14 Q 2.51,3.14 -0.38,5.40 -3.28,7.66 -6.12,10.60 -8.96,13.53 -11.25,17.40 -13.53,21.27 -14.47,26.03 -15.41,30.79 -15.31,35.55 -15.22,40.31 -14.00,43.14 -12.79,45.97 -11.27,48.03 -9.76,50.10 -6.07,50.68 -2.37,51.26 0.83,49.85 4.05,48.43 3.91,47.82 3.78,47.21 4.33,46.61 4.89,46.01 5.61,45.61 6.33,45.22 7.13,45.08 7.94,44.94 8.75,45.06 9.55,45.19 10.28,45.56 11.01,45.94 11.58,46.52 12.15,47.11 12.50,47.85 12.85,48.59 12.95,49.40 13.05,50.21 12.88,51.01 12.71,51.81 12.30,52.52 11.88,53.22 11.27,53.76 10.65,54.30 9.89,54.61 9.14,54.92 8.32,54.97 7.51,55.03 6.71,54.82 5.92,54.61 5.24,54.16 4.56,53.70 4.06,53.06 3.56,52.41 3.29,51.64 3.02,50.87 3.01,50.05 3.00,49.23 3.25,48.46 3.50,47.68 3.99,47.02 4.48,46.36 5.15,45.90 5.82,45.43 6.61,45.20 7.39,44.98 8.21,45.01 9.03,45.05 9.79,45.34 10.55,45.63 11.18,46.16 11.81,46.68 12.24,47.38 12.67,48.07 12.86,48.87 13.04,49.67 12.96,50.48 12.88,51.29 12.55,52.04 12.21,52.79 12.21,52.78 12.21,52.78 9.39,55.08 6.56,57.37 3.92,58.63 1.27,59.90 -1.40,59.63 -4.08,59.36 -6.61,58.62 -9.13,57.88 -12.14,56.10 -15.15,54.32 -16.96,51.26 -18.78,48.19 -19.99,44.38 -21.19,40.57 -21.38,35.10 -21.57,29.63 -20.46,23.87 -19.36,18.11 -16.84,13.44 -14.31,8.77 -11.26,5.15 -8.21,1.53 -5.36,-0.80 -2.51,-3.14 -2.10,-3.40 -1.69,-3.65 -1.22,-3.80 -0.76,-3.95 -0.28,-3.99 0.20,-4.02 0.68,-3.94 1.15,-3.85 1.60,-3.66 2.04,-3.46 2.43,-3.17 2.82,-2.87 3.12,-2.49 3.42,-2.11 3.63,-1.67 3.83,-1.23 3.92,-0.76 4.02,-0.28 3.99,0.20 3.97,0.68 3.83,1.15 3.69,1.61 3.44,2.03 3.19,2.45 2.85,2.80 2.51,3.14 2.51,3.14 L 2.51,3.14 Z"></path>
    </g>
    <g transform="translate(138.00003051757812 28.000011444091797) rotate(0 30 3.000001907348633)"
        stroke="none">
        <path fill="#1e1e1e"
            d="M 0.90,-4.07 Q 0.90,-4.07 6.03,-2.72 11.16,-1.37 16.55,-0.76 21.94,-0.16 27.86,0.73 33.77,1.64 39.01,2.04 44.25,2.44 47.37,1.92 50.50,1.39 54.81,-0.25 59.12,-1.89 59.77,-1.93 60.41,-1.97 61.03,-1.80 61.66,-1.63 62.19,-1.27 62.73,-0.91 63.12,-0.39 63.52,0.11 63.73,0.72 63.93,1.33 63.94,1.98 63.94,2.63 63.74,3.24 63.53,3.85 63.14,4.37 62.75,4.88 62.22,5.25 61.69,5.61 61.06,5.79 60.44,5.96 59.80,5.93 59.15,5.90 58.55,5.66 57.95,5.43 57.45,5.01 56.96,4.59 56.62,4.04 56.29,3.49 56.15,2.86 56.01,2.23 56.07,1.58 56.14,0.94 56.41,0.35 56.68,-0.22 57.12,-0.70 57.57,-1.17 58.14,-1.47 58.71,-1.78 59.34,-1.88 59.98,-1.99 60.62,-1.89 61.26,-1.79 61.83,-1.48 62.40,-1.18 62.85,-0.72 63.29,-0.25 63.57,0.33 63.84,0.91 63.91,1.55 63.98,2.20 63.85,2.83 63.71,3.46 63.38,4.01 63.05,4.57 62.56,4.99 62.07,5.41 61.47,5.65 60.87,5.89 60.87,5.89 60.87,5.89 58.57,6.24 56.28,6.58 53.82,7.23 51.36,7.88 47.62,8.22 43.89,8.56 38.40,8.30 32.92,8.04 27.13,7.38 21.35,6.71 15.44,6.34 9.53,5.97 4.31,5.02 -0.90,4.07 -1.37,3.90 -1.85,3.73 -2.27,3.45 -2.69,3.18 -3.03,2.81 -3.37,2.44 -3.61,2.00 -3.86,1.56 -3.99,1.08 -4.12,0.59 -4.13,0.09 -4.14,-0.40 -4.04,-0.89 -3.93,-1.38 -3.70,-1.83 -3.48,-2.28 -3.16,-2.67 -2.83,-3.05 -2.42,-3.35 -2.02,-3.64 -1.55,-3.83 -1.09,-4.02 -0.59,-4.09 -0.09,-4.16 0.40,-4.11 0.90,-4.07 0.90,-4.07 L 0.90,-4.07 Z"></path>
    </g>
    <g transform="translate(923.9999389648438 788.0000495910645) rotate(0 -15 5.999946594238281)"
        stroke="none">
        <path fill="#1e1e1e"
            d="M -2.77,3.69 Q -2.77,3.69 -5.11,1.96 -7.45,0.24 -9.96,-3.36 -12.47,-6.97 -14.83,-9.92 -17.20,-12.87 -19.12,-16.21 -21.04,-19.55 -22.84,-22.49 -24.65,-25.43 -26.12,-27.85 -27.60,-30.28 -29.59,-31.04 -31.57,-31.81 -31.95,-32.24 -32.33,-32.67 -32.59,-33.17 -32.86,-33.68 -32.99,-34.23 -33.13,-34.79 -33.13,-35.36 -33.12,-35.93 -32.99,-36.49 -32.85,-37.04 -32.58,-37.55 -32.31,-38.05 -31.93,-38.48 -31.55,-38.91 -31.08,-39.23 -30.61,-39.55 -30.07,-39.75 -29.54,-39.95 -28.97,-40.02 -28.40,-40.09 -27.84,-40.02 -27.27,-39.95 -26.74,-39.74 -26.20,-39.54 -25.73,-39.21 -25.26,-38.89 -24.46,-36.64 -23.66,-34.39 -20.00,-30.70 -16.35,-27.01 -13.73,-24.07 -11.10,-21.13 -8.69,-17.98 -6.29,-14.84 -4.12,-11.77 -1.96,-8.69 -0.42,-7.02 1.10,-5.34 2.16,-3.27 3.22,-1.19 3.01,1.35 2.80,3.91 0.41,6.53 -1.97,9.16 -4.72,14.56 -7.48,19.96 -8.89,24.68 -10.31,29.40 -11.59,34.36 -12.87,39.32 -13.88,42.33 -14.89,45.35 -15.52,47.42 -16.14,49.49 -16.48,50.07 -16.82,50.64 -17.33,51.08 -17.83,51.52 -18.45,51.77 -19.07,52.02 -19.74,52.06 -20.41,52.10 -21.05,51.93 -21.70,51.76 -22.25,51.39 -22.81,51.02 -23.22,50.49 -23.63,49.96 -23.85,49.33 -24.06,48.70 -24.07,48.03 -24.08,47.36 -23.87,46.73 -23.66,46.09 -23.26,45.56 -22.86,45.02 -22.31,44.64 -21.76,44.26 -21.12,44.08 -20.48,43.89 -19.81,43.92 -19.14,43.95 -18.52,44.20 -17.90,44.44 -17.38,44.87 -16.87,45.29 -16.52,45.86 -16.17,46.43 -16.02,47.08 -15.87,47.74 -15.94,48.40 -16.01,49.07 -16.28,49.67 -16.56,50.28 -17.01,50.77 -17.47,51.26 -18.06,51.58 -18.64,51.90 -19.30,52.01 -19.96,52.12 -20.62,52.02 -21.28,51.92 -21.87,51.61 -22.47,51.30 -22.93,50.82 -23.39,50.34 -23.68,49.74 -23.97,49.13 -24.04,48.47 -24.12,47.81 -23.98,47.15 -23.84,46.50 -23.84,46.50 -23.85,46.50 -22.91,44.55 -21.98,42.60 -20.87,40.18 -19.77,37.75 -18.79,32.62 -17.81,27.48 -16.60,21.98 -15.39,16.48 -13.83,12.24 -12.26,8.01 -8.88,3.96 -5.49,-0.08 -6.93,-2.08 -8.36,-4.08 -10.48,-6.95 -12.60,-9.82 -14.85,-12.55 -17.10,-15.27 -20.04,-18.02 -22.97,-20.77 -25.64,-23.43 -28.30,-26.09 -29.94,-28.95 -31.57,-31.81 -31.95,-32.24 -32.33,-32.66 -32.59,-33.17 -32.86,-33.68 -32.99,-34.23 -33.13,-34.79 -33.13,-35.36 -33.12,-35.93 -32.99,-36.49 -32.85,-37.04 -32.58,-37.55 -32.31,-38.05 -31.93,-38.48 -31.55,-38.91 -31.08,-39.23 -30.61,-39.55 -30.07,-39.75 -29.54,-39.95 -28.97,-40.02 -28.40,-40.09 -27.84,-40.02 -27.27,-39.95 -26.74,-39.74 -26.20,-39.54 -25.73,-39.21 -25.26,-38.89 -24.31,-38.38 -23.36,-37.88 -21.85,-36.21 -20.34,-34.54 -19.08,-32.11 -17.82,-29.68 -15.88,-26.62 -13.95,-23.55 -12.48,-20.88 -11.02,-18.21 -8.12,-15.13 -5.23,-12.05 -3.48,-9.59 -1.74,-7.14 0.51,-5.41 2.77,-3.69 3.17,-3.31 3.57,-2.92 3.87,-2.45 4.17,-1.98 4.34,-1.45 4.52,-0.92 4.57,-0.37 4.61,0.18 4.52,0.73 4.43,1.28 4.22,1.79 4.00,2.30 3.66,2.75 3.33,3.19 2.90,3.54 2.47,3.90 1.96,4.14 1.46,4.38 0.92,4.49 0.37,4.60 -0.18,4.58 -0.73,4.56 -1.27,4.40 -1.80,4.25 -2.28,3.97 -2.77,3.69 -2.77,3.69 L -2.77,3.69 Z"></path>
    </g>
    <g
        transform="translate(991.9999694824219 791.9999885559082) rotate(0 36.999969482421875 -7.9999542236328125)"
        stroke="none">
        <path fill="#1e1e1e"
            d="M -2.72,-1.94 Q -2.72,-1.94 0.23,-5.91 3.18,-9.88 8.08,-14.62 12.98,-19.36 18.51,-24.20 24.03,-29.04 27.53,-32.21 31.02,-35.38 35.53,-35.72 40.03,-36.05 41.47,-32.34 42.91,-28.63 44.09,-22.17 45.28,-15.70 46.30,-9.00 47.33,-2.30 48.30,2.77 49.28,7.85 50.38,11.01 51.48,14.17 52.55,16.11 53.62,18.05 57.39,17.17 61.16,16.29 64.80,13.91 68.45,11.53 69.29,10.14 70.14,8.75 70.76,8.22 71.38,7.68 72.13,7.38 72.89,7.07 73.70,7.03 74.52,6.98 75.31,7.19 76.09,7.41 76.77,7.86 77.45,8.32 77.94,8.97 78.44,9.61 78.70,10.39 78.97,11.16 78.97,11.97 78.98,12.79 78.72,13.56 78.46,14.34 77.97,14.99 77.48,15.64 76.81,16.10 76.13,16.56 75.35,16.79 74.56,17.01 73.75,16.97 72.93,16.93 72.17,16.63 71.41,16.33 70.79,15.80 70.16,15.28 69.74,14.58 69.32,13.88 69.14,13.09 68.96,12.29 69.04,11.48 69.13,10.67 69.47,9.92 69.81,9.18 70.37,8.59 70.93,7.99 71.65,7.61 72.36,7.22 73.17,7.09 73.97,6.95 74.78,7.08 75.59,7.21 76.31,7.59 77.03,7.97 77.59,8.56 78.16,9.15 78.50,9.89 78.85,10.63 78.94,11.44 79.03,12.25 78.86,13.04 78.69,13.84 78.27,14.54 77.85,15.24 77.85,15.24 77.85,15.24 75.57,17.56 73.29,19.88 71.19,20.96 69.08,22.04 66.08,23.62 63.09,25.21 59.84,25.70 56.60,26.19 52.37,24.82 48.13,23.44 46.82,19.72 45.51,15.99 44.58,12.49 43.65,8.99 42.56,3.82 41.47,-1.34 40.34,-7.94 39.20,-14.53 38.01,-20.40 36.81,-26.27 35.78,-28.71 34.74,-31.15 31.31,-27.92 27.89,-24.69 22.54,-19.88 17.20,-15.07 12.75,-10.64 8.31,-6.21 5.51,-2.13 2.72,1.94 2.45,2.24 2.18,2.54 1.84,2.76 1.50,2.99 1.12,3.12 0.74,3.26 0.34,3.30 -0.05,3.35 -0.45,3.29 -0.85,3.24 -1.22,3.09 -1.60,2.94 -1.93,2.70 -2.26,2.47 -2.52,2.16 -2.78,1.85 -2.97,1.49 -3.15,1.13 -3.24,0.74 -3.33,0.35 -3.32,-0.05 -3.31,-0.45 -3.21,-0.84 -3.11,-1.23 -2.92,-1.59 -2.72,-1.94 -2.72,-1.94 L -2.72,-1.94 Z"></path>
    </g>
    <g
        transform="translate(1071.9999694824219 764.0000343322754) rotate(0 -27.000045776367188 22.00000762939453)"
        stroke="none">
        <path fill="#1e1e1e"
            d="M 1.30,3.47 Q 1.30,3.47 -3.34,5.06 -7.99,6.65 -11.52,8.38 -15.06,10.11 -18.70,12.97 -22.35,15.82 -27.00,18.89 -31.66,21.95 -36.34,25.97 -41.01,29.99 -43.45,33.25 -45.89,36.51 -47.36,39.16 -48.83,41.81 -49.90,43.87 -50.97,45.93 -51.36,46.36 -51.75,46.79 -52.25,47.08 -52.76,47.37 -53.33,47.48 -53.90,47.59 -54.47,47.51 -55.05,47.43 -55.57,47.17 -56.09,46.91 -56.50,46.50 -56.91,46.09 -57.17,45.57 -57.43,45.05 -57.51,44.47 -57.59,43.90 -57.48,43.33 -57.37,42.76 -57.08,42.25 -56.79,41.74 -56.36,41.36 -55.93,40.97 -55.39,40.74 -54.86,40.51 -54.28,40.46 -53.70,40.42 -53.14,40.56 -52.57,40.70 -52.09,41.01 -51.60,41.32 -51.23,41.78 -50.87,42.23 -50.67,42.77 -50.47,43.32 -50.45,43.90 -50.44,44.48 -50.61,45.04 -50.78,45.59 -51.12,46.06 -51.46,46.54 -51.93,46.87 -52.40,47.21 -52.96,47.38 -53.51,47.55 -54.09,47.54 -54.67,47.52 -55.22,47.32 -55.76,47.12 -56.22,46.76 -56.67,46.39 -56.98,45.90 -57.30,45.41 -57.44,44.85 -57.58,44.28 -57.53,43.71 -57.48,43.13 -57.25,42.59 -57.02,42.06 -57.02,42.06 -57.02,42.06 -55.60,40.23 -54.17,38.39 -52.28,35.77 -50.38,33.15 -47.59,29.41 -44.80,25.68 -39.89,21.36 -34.98,17.04 -30.60,14.02 -26.22,11.00 -22.14,7.66 -18.05,4.31 -14.23,2.28 -10.40,0.24 -5.85,-1.61 -1.30,-3.47 -0.86,-3.58 -0.43,-3.68 0.01,-3.68 0.46,-3.68 0.89,-3.57 1.32,-3.46 1.72,-3.25 2.12,-3.04 2.45,-2.75 2.78,-2.45 3.04,-2.08 3.29,-1.71 3.45,-1.29 3.60,-0.87 3.66,-0.43 3.71,0.01 3.65,0.45 3.60,0.90 3.44,1.32 3.28,1.73 3.02,2.10 2.77,2.47 2.43,2.76 2.09,3.06 1.70,3.27 1.30,3.47 1.30,3.47 L 1.30,3.47 Z"></path>
    </g>
    <g
        transform="translate(198.66689046223837 813.3333269755049) rotate(0 333.0000305175781 -167.99999237060547)"
        stroke="none">
        <path fill="#e03131"
            d="M -2.57,-1.93 Q -2.57,-1.93 -0.98,-4.33 0.60,-6.73 5.01,-11.22 9.41,-15.71 13.40,-21.37 17.40,-27.04 24.42,-35.90 31.43,-44.77 42.51,-57.19 53.60,-69.61 68.09,-85.22 82.58,-100.83 97.92,-117.78 113.27,-134.74 129.56,-153.43 145.85,-172.11 158.50,-188.06 171.14,-204.01 181.08,-218.77 191.01,-233.53 198.71,-245.02 206.41,-256.50 214.30,-267.73 222.19,-278.95 227.83,-287.15 233.47,-295.35 238.17,-302.28 242.86,-309.22 246.01,-313.89 249.16,-318.56 252.30,-322.37 255.44,-326.18 257.11,-328.93 258.78,-331.68 260.23,-333.26 261.69,-334.85 264.53,-336.78 267.36,-338.71 270.43,-337.21 273.49,-335.70 277.38,-331.18 281.28,-326.66 285.10,-321.88 288.93,-317.09 292.81,-312.16 296.69,-307.22 302.30,-300.54 307.91,-293.86 315.33,-287.09 322.75,-280.33 330.00,-273.33 337.26,-266.33 344.89,-259.36 352.52,-252.38 362.03,-244.86 371.53,-237.34 382.51,-228.35 393.49,-219.36 403.31,-211.52 413.13,-203.69 421.93,-196.30 430.73,-188.92 437.95,-182.30 445.18,-175.68 454.51,-167.74 463.85,-159.80 475.79,-151.30 487.74,-142.81 499.73,-134.58 511.73,-126.35 522.00,-119.40 532.27,-112.46 540.63,-107.23 548.98,-101.99 555.48,-97.42 561.99,-92.85 567.04,-89.19 572.09,-85.52 576.04,-82.18 579.98,-78.85 583.29,-76.35 586.61,-73.86 589.78,-71.73 592.95,-69.59 595.07,-68.21 597.19,-66.83 599.53,-65.92 601.87,-65.02 604.11,-63.14 606.35,-61.26 609.87,-59.40 613.39,-57.55 616.39,-55.91 619.39,-54.27 621.89,-53.07 624.38,-51.87 626.32,-50.71 628.27,-49.55 630.36,-47.81 632.46,-46.07 634.48,-45.15 636.51,-44.23 639.10,-42.33 641.69,-40.42 644.36,-38.54 647.03,-36.66 649.77,-35.46 652.51,-34.27 656.18,-33.39 659.85,-32.51 662.09,-31.44 664.33,-30.37 666.95,-28.75 669.57,-27.13 670.29,-26.43 671.02,-25.72 671.48,-24.82 671.95,-23.92 672.10,-22.92 672.25,-21.92 672.08,-20.92 671.90,-19.93 671.42,-19.04 670.93,-18.15 670.19,-17.46 669.44,-16.78 668.52,-16.36 667.60,-15.95 666.59,-15.85 665.58,-15.75 664.60,-15.98 663.61,-16.21 662.75,-16.74 661.89,-17.28 661.24,-18.05 660.60,-18.83 660.23,-19.78 659.87,-20.72 659.83,-21.73 659.78,-22.75 660.07,-23.72 660.35,-24.69 660.93,-25.52 661.50,-26.35 662.32,-26.95 663.13,-27.56 664.09,-27.87 665.06,-28.18 666.07,-28.17 667.08,-28.16 668.04,-27.82 668.99,-27.49 669.79,-26.86 670.59,-26.24 671.15,-25.40 671.70,-24.55 671.96,-23.58 672.22,-22.60 672.16,-21.59 672.09,-20.58 671.70,-19.64 671.32,-18.71 670.65,-17.94 669.99,-17.18 669.11,-16.67 668.24,-16.16 667.25,-15.95 666.26,-15.74 665.25,-15.87 664.25,-15.99 663.34,-16.42 662.42,-16.86 662.42,-16.86 662.42,-16.86 661.40,-17.77 660.38,-18.69 656.93,-20.53 653.48,-22.37 650.19,-23.36 646.90,-24.35 644.70,-25.96 642.51,-27.58 639.13,-30.07 635.75,-32.55 633.91,-34.03 632.07,-35.50 629.08,-37.11 626.08,-38.72 623.18,-41.29 620.28,-43.86 617.82,-45.19 615.36,-46.53 612.12,-48.14 608.88,-49.75 606.85,-51.07 604.83,-52.40 601.72,-55.49 598.61,-58.58 595.87,-60.12 593.13,-61.67 591.42,-63.33 589.71,-65.00 586.56,-67.32 583.42,-69.64 580.00,-72.24 576.58,-74.83 572.79,-78.05 569.00,-81.26 563.98,-84.90 558.96,-88.54 552.57,-93.04 546.19,-97.53 537.75,-102.81 529.32,-108.09 519.03,-115.04 508.74,-122.00 496.70,-130.25 484.67,-138.50 472.54,-147.13 460.42,-155.75 451.00,-163.75 441.58,-171.75 434.44,-178.28 427.29,-184.82 418.53,-192.14 409.77,-199.47 399.91,-207.30 390.05,-215.14 379.08,-224.07 368.11,-233.01 358.43,-240.62 348.75,-248.22 341.02,-255.20 333.28,-262.17 326.03,-269.05 318.77,-275.92 310.99,-282.87 303.21,-289.81 297.41,-296.44 291.61,-303.07 287.58,-307.81 283.54,-312.55 279.57,-317.00 275.60,-321.46 271.91,-326.91 268.23,-332.36 265.95,-330.31 263.67,-328.25 261.58,-325.54 259.50,-322.83 256.51,-319.22 253.53,-315.61 250.38,-310.93 247.24,-306.25 242.53,-299.30 237.83,-292.35 232.18,-284.13 226.53,-275.90 218.68,-264.72 210.83,-253.53 203.14,-242.04 195.45,-230.54 185.41,-215.60 175.37,-200.66 162.67,-184.60 149.96,-168.53 133.67,-149.78 117.37,-131.03 102.04,-114.02 86.71,-97.01 72.31,-81.39 57.91,-65.78 47.02,-53.44 36.13,-41.10 29.33,-32.29 22.53,-23.49 18.37,-17.34 14.22,-11.19 10.25,-6.82 6.29,-2.46 4.43,-0.26 2.57,1.93 2.30,2.21 2.03,2.49 1.70,2.69 1.38,2.90 1.01,3.02 0.64,3.15 0.25,3.18 -0.12,3.21 -0.50,3.15 -0.89,3.09 -1.24,2.94 -1.60,2.78 -1.91,2.55 -2.22,2.32 -2.47,2.02 -2.71,1.72 -2.88,1.37 -3.05,1.02 -3.12,0.64 -3.20,0.26 -3.19,-0.12 -3.17,-0.51 -3.06,-0.88 -2.96,-1.25 -2.76,-1.59 -2.57,-1.93 -2.57,-1.93 L -2.57,-1.93 Z"></path>
    </g>
    <g transform="translate(200.66685994466025 913.3333269755049) rotate(0 30 -16.999969482421875)"
        stroke="none">
        <path fill="#e03131"
            d="M -1.88,-3.39 Q -1.88,-3.39 3.37,-6.12 8.63,-8.85 15.12,-11.21 21.62,-13.57 28.18,-16.73 34.75,-19.90 39.91,-22.39 45.07,-24.88 48.23,-27.03 51.39,-29.17 52.99,-31.19 54.60,-33.21 55.93,-34.90 57.26,-36.59 57.74,-36.96 58.23,-37.33 58.81,-37.52 59.39,-37.72 60.00,-37.72 60.61,-37.72 61.19,-37.52 61.76,-37.33 62.25,-36.96 62.74,-36.59 63.08,-36.08 63.42,-35.58 63.58,-34.99 63.75,-34.40 63.71,-33.79 63.68,-33.18 63.45,-32.62 63.23,-32.05 62.83,-31.58 62.44,-31.12 61.91,-30.80 61.39,-30.49 60.79,-30.36 60.20,-30.23 59.59,-30.29 58.98,-30.36 58.43,-30.62 57.88,-30.87 57.43,-31.29 56.99,-31.71 56.70,-32.25 56.42,-32.79 56.32,-33.39 56.22,-34.00 56.32,-34.60 56.42,-35.20 56.71,-35.74 56.99,-36.28 57.44,-36.70 57.88,-37.12 58.43,-37.38 58.99,-37.63 59.59,-37.70 60.20,-37.76 60.80,-37.63 61.39,-37.50 61.92,-37.18 62.44,-36.87 62.83,-36.40 63.23,-35.94 63.45,-35.37 63.68,-34.80 63.71,-34.19 63.75,-33.58 63.58,-33.00 63.42,-32.41 63.08,-31.90 62.73,-31.40 62.73,-31.40 62.73,-31.40 61.12,-29.98 59.50,-28.57 57.13,-26.39 54.75,-24.21 51.24,-21.88 47.74,-19.55 42.63,-16.93 37.52,-14.31 30.74,-10.86 23.97,-7.41 18.02,-5.03 12.06,-2.64 6.97,0.37 1.88,3.39 1.45,3.56 1.01,3.74 0.55,3.81 0.09,3.88 -0.37,3.83 -0.83,3.78 -1.28,3.63 -1.72,3.47 -2.11,3.22 -2.50,2.96 -2.82,2.62 -3.14,2.28 -3.36,1.87 -3.59,1.46 -3.71,1.01 -3.84,0.55 -3.85,0.09 -3.86,-0.37 -3.76,-0.83 -3.66,-1.29 -3.45,-1.70 -3.24,-2.12 -2.94,-2.48 -2.64,-2.84 -2.26,-3.11 -1.88,-3.39 -1.88,-3.39 L -1.88,-3.39 Z"></path>
    </g>
    <g
        transform="translate(212.66682942708212 885.3332964579267) rotate(0 16.00006103515625 16.00006103515625)"
        stroke="none">
        <path fill="#e03131"
            d="M 3.39,-2.54 Q 3.39,-2.54 6.67,2.18 9.95,6.91 13.56,11.80 17.18,16.70 20.84,20.38 24.49,24.07 26.64,25.37 28.79,26.68 31.20,27.54 33.61,28.40 34.14,28.75 34.67,29.10 35.06,29.60 35.45,30.11 35.66,30.71 35.88,31.31 35.88,31.95 35.89,32.58 35.70,33.19 35.50,33.80 35.12,34.31 34.74,34.82 34.22,35.19 33.69,35.55 33.08,35.73 32.47,35.91 31.83,35.88 31.20,35.85 30.60,35.63 30.00,35.40 29.51,34.99 29.02,34.58 28.69,34.04 28.35,33.50 28.21,32.88 28.06,32.26 28.12,31.62 28.19,30.99 28.45,30.41 28.71,29.82 29.14,29.36 29.57,28.89 30.13,28.58 30.69,28.28 31.32,28.17 31.95,28.05 32.58,28.15 33.21,28.25 33.77,28.54 34.34,28.83 34.79,29.29 35.23,29.74 35.50,30.32 35.78,30.89 35.86,31.53 35.93,32.16 35.80,32.79 35.67,33.41 35.35,33.96 35.03,34.51 34.55,34.93 34.07,35.35 33.48,35.59 32.89,35.83 32.25,35.88 31.62,35.92 31.00,35.75 30.38,35.59 30.38,35.59 30.38,35.59 27.49,34.08 24.60,32.56 22.28,30.66 19.97,28.76 15.82,24.88 11.67,21.01 7.76,16.25 3.84,11.48 0.22,7.01 -3.39,2.54 -3.64,2.10 -3.90,1.65 -4.04,1.16 -4.18,0.67 -4.20,0.16 -4.22,-0.34 -4.12,-0.84 -4.02,-1.34 -3.80,-1.80 -3.58,-2.27 -3.25,-2.66 -2.93,-3.06 -2.52,-3.36 -2.11,-3.67 -1.64,-3.87 -1.17,-4.07 -0.67,-4.15 -0.16,-4.23 0.34,-4.19 0.85,-4.15 1.33,-3.99 1.82,-3.83 2.25,-3.55 2.68,-3.28 3.03,-2.91 3.39,-2.54 3.39,-2.54 L 3.39,-2.54 Z"></path>
    </g>
    <g
        transform="translate(292.6668294270821 901.333357493083) rotate(0 13.000030517578125 -0.9999847412109375)"
        stroke="none">
        <path fill="#e03131"
            d="M 0,-4.59 Q 0,-4.59 4.02,-4.39 8.05,-4.20 11.47,-4.18 14.90,-4.16 17.05,-4.78 19.20,-5.40 22.27,-5.98 25.33,-6.56 26.08,-6.55 26.83,-6.54 27.53,-6.28 28.23,-6.03 28.82,-5.57 29.40,-5.11 29.81,-4.48 30.22,-3.86 30.41,-3.13 30.59,-2.41 30.54,-1.66 30.48,-0.92 30.19,-0.23 29.91,0.45 29.41,1.01 28.92,1.57 28.27,1.94 27.62,2.31 26.89,2.46 26.16,2.61 25.42,2.51 24.68,2.42 24.01,2.09 23.33,1.77 22.80,1.24 22.27,0.72 21.93,0.05 21.59,-0.60 21.49,-1.34 21.38,-2.08 21.51,-2.82 21.65,-3.55 22.01,-4.20 22.37,-4.86 22.92,-5.36 23.48,-5.86 24.16,-6.16 24.84,-6.46 25.59,-6.53 26.33,-6.60 27.06,-6.42 27.78,-6.25 28.42,-5.85 29.05,-5.46 29.52,-4.88 29.99,-4.30 30.26,-3.60 30.52,-2.90 30.55,-2.16 30.57,-1.41 30.36,-0.69 30.15,0.01 29.72,0.62 29.29,1.23 28.68,1.67 28.08,2.11 27.37,2.34 26.66,2.56 26.66,2.56 26.66,2.56 23.87,2.83 21.07,3.10 18.01,3.63 14.94,4.16 11.49,4.18 8.05,4.20 4.02,4.39 0,4.59 -0.54,4.52 -1.09,4.45 -1.61,4.26 -2.13,4.06 -2.58,3.75 -3.04,3.43 -3.41,3.02 -3.77,2.60 -4.03,2.11 -4.29,1.62 -4.42,1.09 -4.55,0.55 -4.55,-0.00 -4.55,-0.55 -4.42,-1.09 -4.29,-1.62 -4.03,-2.11 -3.77,-2.60 -3.41,-3.02 -3.04,-3.43 -2.58,-3.75 -2.13,-4.06 -1.61,-4.26 -1.09,-4.45 -0.54,-4.52 0.00,-4.59 0.00,-4.59 L 0,-4.59 Z"></path>
    </g>
    <g transform="translate(376.6669209798165 885.3332964579267) rotate(0 -15 16.00006103515625)"
        stroke="none">
        <path fill="#e03131"
            d="M -2.42,3.63 Q -2.42,3.63 -4.15,2.61 -5.88,1.59 -9.98,1.34 -14.08,1.09 -16.06,1.99 -18.03,2.90 -19.90,4.25 -21.76,5.60 -23.47,7.49 -25.18,9.39 -25.71,11.73 -26.23,14.07 -25.57,16.85 -24.91,19.63 -23.66,22.49 -22.40,25.36 -19.28,27.78 -16.16,30.19 -12.73,30.47 -9.29,30.74 -6.62,30.29 -3.95,29.83 -1.46,29.27 1.02,28.70 1.89,28.68 2.76,28.67 3.59,28.93 4.42,29.19 5.13,29.71 5.83,30.22 6.33,30.93 6.84,31.64 7.09,32.48 7.33,33.31 7.30,34.18 7.27,35.05 6.97,35.87 6.66,36.68 6.11,37.36 5.56,38.03 4.82,38.49 4.08,38.96 3.24,39.16 2.39,39.36 1.52,39.29 0.65,39.21 -0.13,38.86 -0.93,38.51 -1.57,37.92 -2.22,37.33 -2.64,36.57 -3.06,35.81 -3.22,34.95 -3.38,34.10 -3.25,33.24 -3.13,32.37 -2.73,31.60 -2.34,30.82 -1.72,30.21 -1.10,29.60 -0.32,29.22 0.46,28.84 1.32,28.73 2.18,28.62 3.04,28.79 3.89,28.96 4.65,29.39 5.40,29.83 5.98,30.48 6.55,31.13 6.89,31.94 7.23,32.74 7.29,33.61 7.36,34.48 7.14,35.32 6.92,36.16 6.45,36.89 5.97,37.62 5.29,38.16 4.61,38.70 3.79,39.00 2.97,39.29 2.97,39.29 2.97,39.29 1.21,39.50 -0.55,39.72 -2.98,40.29 -5.41,40.85 -7.84,40.67 -10.26,40.49 -13.27,40.09 -16.28,39.69 -18.87,38.65 -21.46,37.61 -23.66,35.81 -25.85,34.00 -27.90,31.43 -29.94,28.86 -31.63,25.13 -33.32,21.39 -34.18,16.74 -35.04,12.10 -33.73,7.79 -32.41,3.48 -29.80,0.57 -27.18,-2.33 -24.28,-4.18 -21.38,-6.04 -17.55,-7.25 -13.72,-8.47 -10.58,-8.21 -7.44,-7.95 -4.22,-7.07 -1.01,-6.19 0.70,-4.91 2.42,-3.63 2.82,-3.29 3.22,-2.95 3.53,-2.52 3.83,-2.09 4.03,-1.60 4.22,-1.11 4.30,-0.59 4.37,-0.07 4.31,0.45 4.26,0.97 4.08,1.47 3.90,1.96 3.61,2.40 3.31,2.84 2.93,3.20 2.54,3.55 2.07,3.81 1.61,4.06 1.10,4.19 0.59,4.33 0.06,4.34 -0.45,4.34 -0.97,4.23 -1.48,4.11 -1.95,3.87 -2.42,3.63 -2.42,3.63 L -2.42,3.63 Z"></path>
    </g>
    <g transform="translate(418.66689046223837 873.3333269755049) rotate(0 0 19.000015258789062)"
        stroke="none">
        <path fill="#e03131"
            d="M 4.28,0 Q 4.28,0 4.25,3.44 4.22,6.89 4.01,11.24 3.80,15.58 3.67,19.72 3.54,23.87 3.58,27.35 3.63,30.84 3.97,34.42 4.31,38.00 4.19,38.68 4.08,39.37 3.75,39.99 3.43,40.60 2.92,41.08 2.41,41.56 1.78,41.86 1.15,42.15 0.45,42.22 -0.23,42.30 -0.91,42.15 -1.59,42.00 -2.19,41.64 -2.79,41.28 -3.24,40.75 -3.69,40.22 -3.95,39.57 -4.21,38.92 -4.24,38.22 -4.28,37.53 -4.09,36.86 -3.91,36.18 -3.52,35.61 -3.12,35.03 -2.57,34.61 -2.01,34.19 -1.35,33.96 -0.69,33.74 0.00,33.74 0.69,33.74 1.35,33.96 2.02,34.19 2.57,34.61 3.13,35.03 3.52,35.61 3.91,36.19 4.09,36.86 4.28,37.53 4.24,38.23 4.21,38.92 3.95,39.57 3.69,40.22 3.24,40.75 2.79,41.28 2.19,41.64 1.59,42.00 0.91,42.15 0.23,42.30 -0.46,42.22 -1.15,42.15 -1.78,41.86 -2.42,41.56 -2.92,41.08 -3.43,40.60 -3.75,39.99 -4.08,39.37 -4.19,38.68 -4.31,37.99 -4.31,37.99 -4.31,38.00 -3.97,34.42 -3.63,30.84 -3.58,27.35 -3.54,23.87 -3.67,19.72 -3.80,15.58 -4.01,11.24 -4.22,6.89 -4.25,3.44 -4.28,0 -4.22,-0.51 -4.16,-1.02 -3.98,-1.50 -3.79,-1.99 -3.50,-2.41 -3.21,-2.84 -2.82,-3.18 -2.43,-3.52 -1.97,-3.76 -1.52,-4.00 -1.01,-4.13 -0.51,-4.25 0.00,-4.25 0.51,-4.25 1.01,-4.13 1.52,-4.00 1.97,-3.76 2.43,-3.52 2.82,-3.18 3.21,-2.84 3.50,-2.41 3.79,-1.99 3.98,-1.50 4.16,-1.02 4.22,-0.51 4.28,0.00 4.28,0.00 L 4.28,0 Z"></path>
    </g>
    <g
        transform="translate(396.6669209798165 893.3333269755049) rotate(0 19.000015258789062 -0.9999847412109375)"
        stroke="none">
        <path fill="#e03131"
            d="M 0,-4.25 Q 0,-4.25 4.02,-4.10 8.04,-3.94 12.63,-3.76 17.22,-3.59 21.46,-3.46 25.70,-3.33 28.32,-4.01 30.94,-4.69 34.20,-5.31 37.47,-5.92 38.11,-5.90 38.75,-5.88 39.35,-5.66 39.95,-5.44 40.45,-5.03 40.95,-4.63 41.29,-4.09 41.64,-3.55 41.79,-2.93 41.94,-2.31 41.89,-1.67 41.83,-1.03 41.58,-0.44 41.33,0.14 40.90,0.61 40.47,1.09 39.91,1.40 39.35,1.72 38.72,1.83 38.09,1.95 37.46,1.87 36.82,1.78 36.25,1.49 35.68,1.20 35.22,0.75 34.77,0.30 34.49,-0.27 34.21,-0.84 34.12,-1.48 34.04,-2.11 34.16,-2.74 34.28,-3.37 34.60,-3.93 34.92,-4.48 35.39,-4.91 35.87,-5.34 36.46,-5.59 37.05,-5.84 37.69,-5.89 38.33,-5.94 38.95,-5.78 39.57,-5.63 40.11,-5.28 40.65,-4.93 41.05,-4.43 41.45,-3.93 41.67,-3.33 41.89,-2.73 41.90,-2.09 41.92,-1.45 41.73,-0.84 41.54,-0.22 41.16,0.28 40.79,0.80 40.26,1.18 39.74,1.55 39.13,1.73 38.52,1.92 38.52,1.92 38.52,1.92 35.42,2.16 32.32,2.39 29.02,2.86 25.73,3.33 21.47,3.46 17.22,3.59 12.63,3.76 8.04,3.94 4.02,4.10 0,4.25 -0.50,4.19 -1.01,4.13 -1.49,3.95 -1.97,3.76 -2.40,3.47 -2.82,3.18 -3.16,2.80 -3.50,2.41 -3.74,1.96 -3.98,1.50 -4.10,1.01 -4.22,0.51 -4.22,-0.00 -4.22,-0.51 -4.10,-1.01 -3.98,-1.50 -3.74,-1.96 -3.50,-2.41 -3.16,-2.80 -2.82,-3.18 -2.40,-3.47 -1.97,-3.76 -1.49,-3.95 -1.01,-4.13 -0.50,-4.19 0.00,-4.25 0.00,-4.25 L 0,-4.25 Z"></path>
    </g>
    <g
        transform="translate(442.6668294270821 939.3333880106611) rotate(0 4.0000152587890625 -12.000045776367188)"
        stroke="none">
        <path fill="#e03131"
            d="M -2.14,4.29 Q -2.14,4.29 -4.51,3.16 -6.87,2.02 -9.13,-0.06 -11.39,-2.15 -12.54,-3.94 -13.68,-5.73 -13.65,-11.13 -13.62,-16.52 -10.31,-19.74 -6.99,-22.97 -2.94,-24.65 1.10,-26.32 4.76,-27.05 8.41,-27.77 11.59,-27.70 14.77,-27.62 16.84,-26.13 18.92,-24.64 20.21,-21.15 21.50,-17.67 22.03,-14.98 22.56,-12.29 22.00,-7.54 21.43,-2.80 19.76,-1.22 18.09,0.35 15.64,2.06 13.19,3.77 10.56,4.50 7.93,5.23 4.15,5.63 0.36,6.03 -0.60,5.93 -1.57,5.83 -2.46,5.43 -3.36,5.03 -4.07,4.36 -4.79,3.69 -5.25,2.83 -5.71,1.97 -5.88,1.00 -6.04,0.04 -5.89,-0.92 -5.74,-1.89 -5.29,-2.76 -4.84,-3.62 -4.13,-4.30 -3.42,-4.98 -2.54,-5.40 -1.65,-5.81 -0.68,-5.93 0.28,-6.04 1.24,-5.83 2.20,-5.63 3.04,-5.13 3.88,-4.63 4.52,-3.89 5.16,-3.15 5.53,-2.24 5.89,-1.33 5.95,-0.36 6.01,0.61 5.76,1.55 5.50,2.50 4.96,3.31 4.41,4.13 3.64,4.72 2.86,5.32 1.94,5.64 1.01,5.96 0.03,5.96 -0.93,5.97 -1.86,5.66 -2.79,5.36 -3.58,4.77 -4.36,4.18 -4.91,3.38 -5.47,2.57 -5.74,1.63 -6.00,0.69 -5.96,-0.28 -5.91,-1.26 -5.56,-2.17 -5.20,-3.08 -4.57,-3.83 -3.94,-4.58 -3.11,-5.09 -2.27,-5.60 -1.32,-5.82 -0.36,-6.03 -0.36,-6.03 -0.36,-6.03 1.44,-6.13 3.26,-6.23 5.39,-6.35 7.52,-6.48 9.89,-8.51 12.27,-10.55 11.26,-14.46 10.26,-18.38 7.61,-17.86 4.95,-17.35 2.29,-16.10 -0.37,-14.86 -2.37,-12.68 -4.36,-10.50 -3.34,-8.56 -2.32,-6.62 -0.08,-5.46 2.14,-4.29 2.63,-3.97 3.11,-3.65 3.50,-3.23 3.89,-2.80 4.17,-2.29 4.45,-1.79 4.60,-1.23 4.75,-0.67 4.76,-0.09 4.77,0.48 4.65,1.05 4.52,1.61 4.26,2.13 4.00,2.65 3.63,3.09 3.25,3.53 2.78,3.87 2.31,4.20 1.77,4.42 1.24,4.64 0.66,4.72 0.09,4.80 -0.48,4.74 -1.05,4.68 -1.60,4.49 -2.14,4.29 -2.14,4.29 L -2.14,4.29 Z"></path>
    </g>
    <g
        transform="translate(216.6669209798165 823.3333269755049) rotate(0 -10.000076293945312 -3.9999771118164062)"
        stroke="none">
        <path fill="#e03131"
            d="M -2.44,4.08 Q -2.44,4.08 -5.30,2.29 -8.16,0.50 -11.38,-3.07 -14.60,-6.65 -16.20,-8.73 -17.80,-10.81 -18.61,-13.34 -19.41,-15.87 -18.49,-18.12 -17.56,-20.37 -14.97,-21.45 -12.38,-22.53 -9.81,-21.85 -7.24,-21.17 -4.67,-17.83 -2.10,-14.49 -0.69,-11.34 0.71,-8.20 1.83,-5.91 2.96,-3.61 3.67,-0.87 4.39,1.86 4.02,5.04 3.65,8.23 2.03,10.47 0.41,12.72 -3.57,13.78 -7.57,14.83 -11.99,13.59 -16.42,12.35 -19.59,10.48 -22.75,8.62 -24.71,7.26 -26.67,5.91 -28.15,3.72 -29.64,1.54 -29.71,-1.53 -29.79,-4.61 -28.70,-6.89 -27.61,-9.18 -24.62,-11.26 -21.62,-13.34 -18.22,-14.07 -14.82,-14.80 -11.89,-14.94 -8.95,-15.08 -5.81,-13.47 -2.66,-11.85 -1.11,-9.20 0.43,-6.54 -0.84,-1.74 -2.13,3.05 -4.07,3.99 -6.02,4.93 -9.79,4.60 -13.57,4.27 -15.77,3.13 -17.97,1.99 -20.51,-1.76 -23.05,-5.53 -22.20,-8.75 -21.34,-11.97 -17.61,-14.10 -13.89,-16.22 -10.44,-16.74 -6.98,-17.25 -3.76,-17.35 -0.54,-17.46 2.68,-16.50 5.91,-15.54 7.97,-13.21 10.03,-10.88 10.65,-8.70 11.26,-6.51 10.65,-3.71 10.04,-0.91 7.34,1.39 4.63,3.69 1.31,4.04 -2.00,4.38 -4.75,3.50 -7.49,2.63 -8.16,1.91 -8.82,1.20 -9.51,0.87 -10.19,0.55 -10.78,0.07 -11.36,-0.41 -11.81,-1.01 -12.27,-1.62 -12.56,-2.32 -12.86,-3.02 -12.98,-3.76 -13.10,-4.51 -13.03,-5.27 -12.97,-6.02 -12.73,-6.74 -12.49,-7.46 -12.08,-8.10 -11.67,-8.74 -11.12,-9.26 -10.58,-9.78 -9.92,-10.16 -9.26,-10.54 -8.53,-10.75 -7.80,-10.96 -7.05,-10.98 -6.29,-11.01 -5.55,-10.86 -4.81,-10.70 -0.86,-7.57 3.08,-4.43 3.71,-3.82 4.34,-3.21 4.74,-2.43 5.14,-1.65 5.27,-0.79 5.40,0.06 5.25,0.93 5.09,1.79 4.67,2.55 4.25,3.32 3.61,3.91 2.97,4.51 2.17,4.86 1.37,5.22 0.50,5.30 -0.36,5.39 -1.21,5.19 -2.06,4.99 -2.80,4.53 -3.55,4.07 -4.10,3.39 -4.66,2.72 -4.97,1.90 -5.29,1.09 -5.32,0.21 -5.36,-0.65 -5.11,-1.49 -4.87,-2.33 -4.37,-3.04 -3.87,-3.76 -3.17,-4.28 -2.46,-4.80 -1.63,-5.07 -0.80,-5.34 0.06,-5.33 0.94,-5.32 1.76,-5.03 2.59,-4.74 3.28,-4.20 3.97,-3.66 4.45,-2.93 4.93,-2.20 5.15,-1.35 5.37,-0.51 5.31,0.35 5.26,1.23 4.92,2.03 4.59,2.84 4.01,3.50 3.44,4.16 2.68,4.60 1.93,5.04 1.07,5.22 0.22,5.39 -0.64,5.29 -1.51,5.18 -2.30,4.80 -3.09,4.43 -3.08,4.43 -3.08,4.43 -5.95,2.81 -8.82,1.20 -9.51,0.87 -10.19,0.55 -10.77,0.07 -11.36,-0.40 -11.81,-1.01 -12.27,-1.62 -12.56,-2.32 -12.86,-3.02 -12.98,-3.76 -13.10,-4.51 -13.03,-5.27 -12.97,-6.02 -12.73,-6.74 -12.49,-7.46 -12.08,-8.10 -11.67,-8.74 -11.12,-9.26 -10.58,-9.78 -9.92,-10.16 -9.26,-10.54 -8.53,-10.75 -7.80,-10.96 -7.05,-10.98 -6.29,-11.01 -5.55,-10.86 -4.81,-10.70 -2.42,-8.35 -0.04,-6.00 -2.62,-5.75 -5.20,-5.50 -8.25,-6.37 -11.30,-7.24 -8.99,-7.00 -6.68,-6.76 -9.74,-5.28 -12.81,-3.79 -15.18,-1.88 -17.55,0.02 -15.52,1.30 -13.49,2.57 -10.01,4.12 -6.54,5.67 -6.39,3.19 -6.25,0.71 -7.35,-1.66 -8.46,-4.03 -9.58,-6.46 -10.71,-8.89 -10.86,-12.49 -11.00,-16.08 -9.84,-14.23 -8.67,-12.37 -6.00,-9.89 -3.33,-7.40 -0.44,-5.74 2.44,-4.08 2.90,-3.73 3.35,-3.37 3.71,-2.92 4.06,-2.47 4.30,-1.95 4.54,-1.43 4.64,-0.86 4.75,-0.30 4.71,0.26 4.68,0.84 4.51,1.39 4.34,1.94 4.05,2.43 3.75,2.92 3.35,3.33 2.94,3.73 2.45,4.03 1.96,4.33 1.42,4.50 0.87,4.68 0.30,4.71 -0.27,4.75 -0.83,4.65 -1.40,4.55 -1.92,4.31 -2.45,4.08 -2.45,4.08 L -2.44,4.08 Z"></path>
    </g>
    <g
        transform="translate(796.6669209798165 887.3334185282392) rotate(0 14.000015258789062 -19.00005340576172)"
        stroke="none">
        <path fill="#e03131"
            d="M -4.28,-0.71 Q -4.28,-0.71 -3.64,-4.21 -3.00,-7.71 -0.68,-11.56 1.62,-15.42 4.45,-18.65 7.28,-21.89 10.32,-24.53 13.37,-27.18 16.30,-29.83 19.23,-32.48 20.90,-34.33 22.58,-36.17 23.48,-38.14 24.39,-40.11 24.82,-40.63 25.25,-41.15 25.82,-41.50 26.40,-41.86 27.06,-42.01 27.72,-42.17 28.39,-42.10 29.06,-42.04 29.68,-41.76 30.30,-41.49 30.80,-41.03 31.29,-40.57 31.62,-39.97 31.94,-39.38 32.06,-38.71 32.18,-38.05 32.08,-37.38 31.97,-36.71 31.66,-36.11 31.36,-35.51 30.87,-35.03 30.38,-34.56 29.77,-34.27 29.16,-33.98 28.49,-33.90 27.82,-33.82 27.16,-33.95 26.49,-34.09 25.91,-34.43 25.33,-34.77 24.88,-35.29 24.44,-35.80 24.18,-36.42 23.92,-37.05 23.88,-37.72 23.83,-38.40 24.01,-39.05 24.18,-39.70 24.55,-40.27 24.92,-40.83 25.46,-41.25 25.99,-41.67 26.63,-41.89 27.27,-42.11 27.94,-42.12 28.62,-42.13 29.27,-41.92 29.91,-41.71 30.45,-41.31 31.00,-40.91 31.38,-40.35 31.77,-39.80 31.96,-39.15 32.15,-38.50 32.12,-37.82 32.09,-37.15 31.85,-36.51 31.60,-35.88 31.60,-35.88 31.60,-35.88 29.82,-33.26 28.04,-30.63 26.08,-28.98 24.13,-27.32 21.21,-24.43 18.30,-21.54 15.72,-19.27 13.14,-16.99 10.84,-14.06 8.55,-11.13 6.92,-8.61 5.30,-6.08 4.79,-2.68 4.28,0.71 4.13,1.21 3.98,1.71 3.72,2.17 3.46,2.62 3.09,2.99 2.73,3.37 2.28,3.65 1.84,3.93 1.34,4.09 0.85,4.25 0.32,4.29 -0.19,4.33 -0.70,4.25 -1.22,4.16 -1.70,3.96 -2.18,3.75 -2.60,3.43 -3.02,3.12 -3.35,2.71 -3.68,2.30 -3.90,1.83 -4.12,1.35 -4.22,0.84 -4.33,0.33 -4.30,-0.19 -4.28,-0.71 -4.28,-0.71 L -4.28,-0.71 Z"></path>
    </g>
    <g transform="translate(788.6668904622384 841.333357493083) rotate(0 10 16.999969482421875)"
        stroke="none">
        <path fill="#e03131"
            d="M 3.68,-2.21 Q 3.68,-2.21 5.39,0.67 7.11,3.55 8.91,7.23 10.71,10.92 13.10,15.98 15.48,21.04 17.13,24.28 18.77,27.52 20.85,29.41 22.92,31.30 23.27,31.84 23.62,32.37 23.79,32.99 23.95,33.62 23.91,34.26 23.87,34.90 23.62,35.49 23.37,36.09 22.95,36.57 22.53,37.06 21.97,37.38 21.42,37.71 20.79,37.84 20.16,37.97 19.52,37.89 18.88,37.81 18.30,37.53 17.72,37.26 17.26,36.81 16.80,36.36 16.50,35.79 16.21,35.21 16.12,34.58 16.02,33.94 16.13,33.31 16.24,32.68 16.55,32.11 16.86,31.55 17.33,31.11 17.81,30.68 18.39,30.41 18.98,30.15 19.62,30.09 20.26,30.03 20.89,30.18 21.52,30.32 22.06,30.66 22.61,31.00 23.02,31.50 23.43,31.99 23.66,32.59 23.89,33.19 23.91,33.83 23.94,34.48 23.76,35.09 23.58,35.71 23.21,36.24 22.84,36.77 22.33,37.15 21.81,37.53 21.20,37.73 20.59,37.93 19.94,37.92 19.30,37.91 18.69,37.70 18.09,37.48 17.58,37.09 17.07,36.69 17.07,36.69 17.07,36.69 14.71,33.77 12.34,30.86 10.69,27.59 9.04,24.32 6.38,19.49 3.71,14.66 1.75,11.30 -0.21,7.94 -1.94,5.07 -3.68,2.21 -3.89,1.73 -4.10,1.26 -4.19,0.75 -4.29,0.24 -4.25,-0.27 -4.22,-0.78 -4.06,-1.28 -3.91,-1.77 -3.64,-2.21 -3.37,-2.66 -3.00,-3.02 -2.63,-3.39 -2.19,-3.65 -1.75,-3.92 -1.25,-4.07 -0.76,-4.22 -0.24,-4.25 0.27,-4.28 0.78,-4.19 1.29,-4.09 1.76,-3.88 2.23,-3.66 2.64,-3.34 3.04,-3.02 3.36,-2.61 3.68,-2.21 3.68,-2.21 L 3.68,-2.21 Z"></path>
    </g>
    <g
        transform="translate(862.6668294270821 863.3333269755049) rotate(0 -1.999969482421875 12.000045776367188)"
        stroke="none">
        <path fill="#e03131"
            d="M 4.81,0 Q 4.81,0 4.59,4.02 4.37,8.05 4.42,10.94 4.47,13.83 3.91,16.31 3.35,18.79 1.88,22.70 0.41,26.62 -0.12,27.25 -0.65,27.89 -1.36,28.32 -2.07,28.75 -2.88,28.94 -3.69,29.12 -4.51,29.03 -5.34,28.95 -6.10,28.60 -6.85,28.26 -7.46,27.69 -8.06,27.12 -8.46,26.39 -8.85,25.66 -8.99,24.84 -9.13,24.02 -9.00,23.20 -8.87,22.38 -8.48,21.65 -8.10,20.91 -7.50,20.34 -6.90,19.76 -6.15,19.41 -5.40,19.06 -4.57,18.96 -3.75,18.87 -2.93,19.04 -2.12,19.22 -1.41,19.64 -0.69,20.06 -0.15,20.69 0.38,21.32 0.69,22.09 1.00,22.86 1.05,23.69 1.10,24.52 0.88,25.32 0.67,26.13 0.20,26.82 -0.25,27.51 -0.91,28.01 -1.57,28.52 -2.35,28.79 -3.14,29.06 -3.97,29.06 -4.80,29.07 -5.59,28.80 -6.37,28.54 -7.04,28.04 -7.70,27.55 -8.17,26.86 -8.64,26.18 -8.87,25.38 -9.10,24.58 -9.05,23.75 -9.01,22.92 -8.71,22.15 -8.41,21.37 -8.41,21.37 -8.41,21.37 -7.44,20.20 -6.47,19.03 -5.47,16.36 -4.47,13.70 -4.42,10.87 -4.37,8.05 -4.59,4.02 -4.81,0 -4.74,-0.57 -4.67,-1.15 -4.46,-1.69 -4.26,-2.23 -3.93,-2.71 -3.60,-3.19 -3.16,-3.57 -2.73,-3.96 -2.22,-4.23 -1.70,-4.50 -1.14,-4.63 -0.57,-4.77 0.00,-4.77 0.58,-4.77 1.14,-4.63 1.70,-4.50 2.22,-4.23 2.73,-3.96 3.16,-3.57 3.60,-3.19 3.93,-2.71 4.26,-2.23 4.46,-1.69 4.67,-1.15 4.74,-0.57 4.81,0.00 4.81,0.00 L 4.81,0 Z"></path>
    </g>
    <g
        transform="translate(844.6669514973946 875.3332964579267) rotate(0 12.999954223632812 2.0000457763671875)"
        stroke="none">
        <path fill="#e03131"
            d="M 0.64,-4.52 Q 0.64,-4.52 4.64,-3.74 8.64,-2.97 12.25,-2.08 15.86,-1.19 18.29,-0.99 20.71,-0.78 23.55,-0.67 26.40,-0.55 27.11,-0.37 27.83,-0.19 28.45,0.21 29.07,0.61 29.53,1.19 29.99,1.77 30.24,2.47 30.49,3.16 30.51,3.90 30.52,4.64 30.30,5.35 30.08,6.05 29.64,6.65 29.21,7.25 28.60,7.68 28.00,8.11 27.29,8.32 26.58,8.53 25.84,8.51 25.10,8.48 24.41,8.22 23.72,7.96 23.14,7.49 22.57,7.03 22.18,6.40 21.78,5.78 21.61,5.06 21.43,4.34 21.50,3.60 21.56,2.86 21.86,2.18 22.16,1.51 22.65,0.96 23.15,0.41 23.80,0.05 24.45,-0.30 25.17,-0.43 25.90,-0.57 26.63,-0.46 27.37,-0.36 28.03,-0.03 28.69,0.30 29.21,0.82 29.73,1.35 30.05,2.02 30.38,2.68 30.47,3.42 30.57,4.15 30.42,4.88 30.28,5.60 29.91,6.24 29.54,6.88 28.99,7.38 28.43,7.87 27.75,8.15 27.07,8.44 26.33,8.50 25.59,8.55 25.59,8.55 25.59,8.55 22.58,8.15 19.57,7.75 16.77,7.26 13.97,6.77 10.71,6.02 7.45,5.27 3.40,4.89 -0.64,4.52 -1.17,4.38 -1.71,4.24 -2.19,3.97 -2.67,3.70 -3.08,3.33 -3.48,2.95 -3.78,2.49 -4.09,2.03 -4.27,1.51 -4.46,1.00 -4.51,0.45 -4.57,-0.09 -4.49,-0.64 -4.41,-1.18 -4.20,-1.69 -4.00,-2.21 -3.68,-2.65 -3.35,-3.10 -2.93,-3.46 -2.51,-3.81 -2.02,-4.06 -1.53,-4.30 -0.99,-4.42 -0.45,-4.54 0.09,-4.53 0.64,-4.52 0.64,-4.52 L 0.64,-4.52 Z"></path>
    </g>
    <g
        transform="translate(932.6668294270821 863.3333269755049) rotate(0 -16.999969482421875 14.000015258789062)"
        stroke="none">
        <path fill="#e03131"
            d="M -1.38,4.15 Q -1.38,4.15 -4.80,2.92 -8.21,1.70 -11.57,1.21 -14.92,0.71 -17.73,1.09 -20.54,1.46 -23.27,4.33 -26.00,7.20 -27.07,9.16 -28.15,11.12 -28.48,13.32 -28.80,15.52 -27.53,17.48 -26.26,19.45 -24.32,21.39 -22.38,23.32 -20.09,24.58 -17.80,25.84 -16.71,25.80 -15.61,25.76 -14.90,25.62 -14.18,25.47 -13.45,25.56 -12.72,25.65 -12.06,25.96 -11.40,26.28 -10.88,26.79 -10.35,27.30 -10.02,27.96 -9.68,28.61 -9.57,29.33 -9.47,30.06 -9.59,30.78 -9.72,31.50 -10.07,32.14 -10.43,32.79 -10.97,33.28 -11.50,33.78 -12.17,34.08 -12.84,34.38 -13.57,34.44 -14.30,34.51 -15.02,34.35 -15.73,34.18 -16.35,33.79 -16.97,33.41 -17.44,32.84 -17.91,32.28 -18.17,31.59 -18.43,30.91 -18.46,30.18 -18.49,29.44 -18.29,28.74 -18.08,28.04 -17.66,27.44 -17.24,26.84 -16.65,26.40 -16.06,25.96 -15.36,25.74 -14.67,25.52 -13.93,25.53 -13.20,25.54 -12.51,25.78 -11.82,26.02 -11.24,26.47 -10.66,26.93 -10.26,27.54 -9.86,28.15 -9.67,28.86 -9.49,29.57 -9.54,30.30 -9.59,31.03 -9.87,31.71 -10.15,32.38 -10.63,32.94 -11.11,33.49 -11.74,33.86 -12.38,34.23 -12.38,34.23 -12.38,34.23 -17.31,33.79 -22.25,33.36 -25.42,31.37 -28.59,29.39 -31.36,26.40 -34.14,23.41 -35.86,19.21 -37.57,15.01 -36.81,10.81 -36.05,6.61 -34.56,4.33 -33.07,2.05 -30.68,-0.75 -28.29,-3.56 -24.95,-5.05 -21.61,-6.55 -17.78,-6.91 -13.94,-7.27 -9.76,-6.78 -5.58,-6.30 -2.09,-5.22 1.38,-4.15 1.85,-3.92 2.33,-3.69 2.74,-3.36 3.15,-3.03 3.47,-2.61 3.78,-2.18 3.99,-1.70 4.20,-1.21 4.28,-0.69 4.37,-0.17 4.32,0.34 4.28,0.87 4.11,1.37 3.95,1.87 3.67,2.31 3.38,2.76 3.00,3.13 2.62,3.49 2.17,3.76 1.71,4.02 1.20,4.17 0.70,4.31 0.17,4.33 -0.35,4.36 -0.86,4.25 -1.38,4.15 -1.38,4.15 L -1.38,4.15 Z"></path>
    </g>
    <g
        transform="translate(978.6668904622384 857.3334185282392) rotate(0 -6.999969482421875 22.999954223632812)"
        stroke="none">
        <path fill="#e03131"
            d="M 3.98,1.08 Q 3.98,1.08 2.06,7.36 0.14,13.63 -1.95,18.22 -4.05,22.81 -5.45,27.87 -6.85,32.93 -7.98,36.48 -9.12,40.02 -9.57,43.49 -10.02,46.96 -10.28,47.57 -10.53,48.18 -10.97,48.68 -11.41,49.17 -11.99,49.50 -12.56,49.83 -13.21,49.96 -13.86,50.09 -14.52,50.00 -15.18,49.91 -15.77,49.62 -16.37,49.33 -16.84,48.87 -17.31,48.40 -17.60,47.81 -17.90,47.22 -17.99,46.56 -18.09,45.90 -17.97,45.25 -17.84,44.60 -17.52,44.02 -17.20,43.45 -16.71,43.00 -16.22,42.56 -15.61,42.29 -15.00,42.03 -14.34,41.97 -13.68,41.91 -13.04,42.07 -12.40,42.23 -11.84,42.58 -11.28,42.93 -10.86,43.45 -10.44,43.96 -10.21,44.58 -9.98,45.20 -9.96,45.87 -9.94,46.53 -10.13,47.16 -10.32,47.80 -10.70,48.34 -11.09,48.88 -11.62,49.26 -12.16,49.65 -12.79,49.85 -13.42,50.05 -14.08,50.03 -14.75,50.02 -15.37,49.79 -15.99,49.57 -16.51,49.16 -17.03,48.74 -17.39,48.19 -17.75,47.63 -17.91,46.99 -18.07,46.35 -18.02,45.69 -17.97,45.03 -17.97,45.03 -17.97,45.03 -17.44,43.57 -16.91,42.11 -16.18,39.99 -15.45,37.88 -14.26,34.60 -13.08,31.32 -11.72,25.72 -10.37,20.13 -8.71,15.89 -7.04,11.66 -5.51,5.28 -3.98,-1.08 -3.80,-1.54 -3.61,-2.01 -3.31,-2.41 -3.02,-2.81 -2.64,-3.13 -2.26,-3.45 -1.81,-3.68 -1.37,-3.90 -0.88,-4.00 -0.39,-4.11 0.10,-4.10 0.59,-4.09 1.08,-3.95 1.56,-3.82 1.99,-3.58 2.43,-3.34 2.79,-3.00 3.16,-2.66 3.43,-2.24 3.70,-1.83 3.87,-1.36 4.03,-0.89 4.08,-0.39 4.13,0.10 4.06,0.59 3.98,1.08 3.98,1.08 L 3.98,1.08 Z"></path>
    </g>
    <g
        transform="translate(952.6668294270821 877.3334185282392) rotate(0 19.000015258789062 1.999969482421875)"
        stroke="none">
        <path fill="#e03131"
            d="M 0,-3.98 Q 0,-3.98 4.02,-3.86 8.05,-3.74 12.85,-3.00 17.65,-2.26 21.98,-1.32 26.32,-0.37 29.71,-0.12 33.11,0.13 35.73,0.21 38.36,0.29 38.94,0.45 39.52,0.60 40.02,0.94 40.53,1.27 40.89,1.74 41.26,2.22 41.46,2.79 41.66,3.36 41.66,3.96 41.67,4.56 41.48,5.13 41.30,5.70 40.94,6.19 40.58,6.67 40.08,7.01 39.59,7.35 39.01,7.52 38.43,7.69 37.83,7.66 37.23,7.63 36.67,7.42 36.11,7.20 35.65,6.82 35.18,6.43 34.87,5.92 34.55,5.41 34.42,4.82 34.28,4.23 34.34,3.63 34.40,3.04 34.65,2.49 34.90,1.94 35.31,1.50 35.72,1.06 36.24,0.77 36.77,0.48 37.37,0.38 37.96,0.28 38.55,0.37 39.15,0.46 39.68,0.74 40.22,1.01 40.63,1.45 41.05,1.88 41.31,2.42 41.57,2.97 41.64,3.56 41.71,4.16 41.59,4.75 41.46,5.34 41.16,5.86 40.85,6.37 40.40,6.77 39.94,7.16 39.39,7.39 38.83,7.62 38.23,7.66 37.63,7.70 37.63,7.70 37.63,7.70 35.04,7.26 32.45,6.83 28.78,6.39 25.11,5.95 20.95,5.25 16.79,4.56 12.41,4.15 8.04,3.74 4.02,3.86 0,3.98 -0.47,3.93 -0.95,3.87 -1.40,3.70 -1.85,3.53 -2.24,3.25 -2.64,2.98 -2.96,2.62 -3.28,2.26 -3.50,1.84 -3.73,1.41 -3.84,0.94 -3.96,0.48 -3.96,-0.00 -3.96,-0.48 -3.84,-0.94 -3.73,-1.41 -3.50,-1.84 -3.28,-2.26 -2.96,-2.62 -2.64,-2.98 -2.24,-3.25 -1.85,-3.53 -1.40,-3.70 -0.95,-3.87 -0.47,-3.93 0.00,-3.98 0.00,-3.98 L 0,-3.98 Z"></path>
    </g>
    <g
        transform="translate(1004.6669514973946 929.3333880106611) rotate(0 -1.00006103515625 -13.000030517578125)"
        stroke="none">
        <path fill="#e03131"
            d="M -2.64,4.41 Q -2.64,4.41 -5.47,2.60 -8.29,0.78 -10.35,-0.62 -12.40,-2.03 -13.83,-3.73 -15.26,-5.43 -16.28,-9.93 -17.29,-14.43 -17.03,-17.42 -16.77,-20.40 -14.47,-23.26 -12.16,-26.12 -9.95,-27.58 -7.73,-29.04 -4.84,-29.91 -1.96,-30.79 1.09,-30.22 4.15,-29.65 7.08,-26.26 10.01,-22.88 11.49,-19.65 12.97,-16.42 13.72,-14.35 14.47,-12.27 13.28,-7.91 12.08,-3.54 10.17,-2.44 8.26,-1.34 5.87,-0.93 3.47,-0.53 0.96,-0.46 -1.54,-0.39 -2.24,-0.38 -2.94,-0.37 -3.62,-0.54 -4.31,-0.70 -4.93,-1.02 -5.55,-1.34 -6.08,-1.80 -6.61,-2.26 -7.01,-2.83 -7.41,-3.41 -7.66,-4.06 -7.92,-4.71 -8.01,-5.40 -8.10,-6.10 -8.02,-6.79 -7.94,-7.49 -7.70,-8.15 -7.45,-8.80 -7.06,-9.38 -6.67,-9.96 -6.15,-10.43 -5.63,-10.90 -5.01,-11.23 -4.39,-11.56 -3.71,-11.73 -3.03,-11.90 1.08,-6.92 5.20,-1.94 5.38,-1.06 5.55,-0.17 5.43,0.71 5.32,1.60 4.92,2.41 4.52,3.22 3.89,3.85 3.26,4.49 2.46,4.90 1.65,5.30 0.76,5.43 -0.12,5.55 -1.00,5.39 -1.89,5.22 -2.67,4.78 -3.46,4.34 -4.06,3.68 -4.66,3.01 -5.02,2.19 -5.38,1.36 -5.46,0.47 -5.54,-0.42 -5.32,-1.29 -5.11,-2.17 -4.63,-2.93 -4.15,-3.69 -3.45,-4.25 -2.75,-4.82 -1.91,-5.13 -1.07,-5.45 -0.17,-5.48 0.72,-5.51 1.58,-5.25 2.44,-4.99 3.17,-4.46 3.91,-3.94 4.43,-3.22 4.96,-2.49 5.23,-1.63 5.50,-0.77 5.48,0.12 5.46,1.02 5.15,1.86 4.85,2.71 4.29,3.41 3.73,4.11 2.97,4.60 2.22,5.09 1.34,5.31 0.47,5.53 -0.41,5.46 -1.31,5.39 -2.14,5.04 -2.97,4.69 -3.64,4.09 -4.31,3.50 -4.76,2.72 -5.20,1.94 -5.20,1.94 -5.20,1.94 -3.37,0.77 -1.54,-0.39 -2.24,-0.38 -2.94,-0.37 -3.62,-0.54 -4.30,-0.70 -4.93,-1.02 -5.55,-1.34 -6.08,-1.80 -6.60,-2.26 -7.01,-2.83 -7.41,-3.40 -7.66,-4.06 -7.92,-4.71 -8.01,-5.40 -8.10,-6.10 -8.02,-6.79 -7.94,-7.49 -7.70,-8.15 -7.45,-8.80 -7.06,-9.38 -6.67,-9.96 -6.15,-10.43 -5.63,-10.90 -5.01,-11.23 -4.39,-11.56 -3.71,-11.73 -3.03,-11.90 0.04,-11.83 3.13,-11.75 0.66,-15.59 -1.80,-19.42 -4.42,-18.44 -7.05,-17.45 -6.76,-14.33 -6.47,-11.21 -4.83,-9.45 -3.20,-7.68 -0.27,-6.05 2.64,-4.41 3.13,-4.03 3.62,-3.65 4.01,-3.16 4.39,-2.67 4.65,-2.11 4.91,-1.54 5.02,-0.93 5.13,-0.32 5.10,0.29 5.06,0.91 4.88,1.50 4.70,2.09 4.38,2.62 4.06,3.16 3.62,3.60 3.18,4.04 2.65,4.36 2.12,4.68 1.53,4.87 0.94,5.06 0.32,5.10 -0.29,5.13 -0.90,5.02 -1.51,4.92 -2.08,4.66 -2.64,4.41 -2.64,4.41 L -2.64,4.41 Z"></path>
    </g>
    <g
        transform="translate(376.6669209798165 451.3332811991377) rotate(0 -3.99993896484375 -47.99999237060547)"
        stroke="none">
        <path fill="#e03131"
            d="M -3.30,0.94 Q -3.30,0.94 -4.36,-3.10 -5.42,-7.15 -6.43,-12.45 -7.44,-17.74 -9.52,-24.40 -11.59,-31.06 -12.53,-38.82 -13.47,-46.58 -13.84,-54.46 -14.21,-62.35 -14.34,-68.63 -14.47,-74.90 -12.11,-80.38 -9.75,-85.85 -6.89,-89.39 -4.03,-92.93 -2.29,-94.70 -0.54,-96.46 0.58,-97.64 1.71,-98.82 2.23,-99.11 2.74,-99.40 3.31,-99.52 3.89,-99.63 4.47,-99.55 5.06,-99.47 5.58,-99.21 6.11,-98.95 6.53,-98.53 6.94,-98.12 7.21,-97.59 7.47,-97.07 7.55,-96.48 7.63,-95.90 7.52,-95.32 7.41,-94.75 7.12,-94.23 6.83,-93.72 6.39,-93.33 5.96,-92.94 5.42,-92.70 4.88,-92.47 4.29,-92.42 3.70,-92.37 3.13,-92.51 2.56,-92.66 2.07,-92.97 1.57,-93.29 1.20,-93.74 0.83,-94.20 0.63,-94.75 0.43,-95.31 0.41,-95.89 0.39,-96.48 0.57,-97.04 0.74,-97.61 1.08,-98.08 1.42,-98.56 1.90,-98.91 2.38,-99.25 2.94,-99.42 3.50,-99.60 4.09,-99.58 4.68,-99.56 5.23,-99.36 5.78,-99.16 6.24,-98.79 6.70,-98.42 7.01,-97.93 7.33,-97.43 7.47,-96.86 7.62,-96.29 7.57,-95.71 7.52,-95.12 7.29,-94.58 7.06,-94.04 6.67,-93.60 6.27,-93.16 6.28,-93.17 6.28,-93.17 3.20,-91.31 0.13,-89.46 -2.34,-86.52 -4.83,-83.57 -6.92,-79.19 -9.02,-74.81 -8.82,-68.72 -8.62,-62.63 -8.20,-54.96 -7.78,-47.28 -6.87,-40.06 -5.96,-32.85 -3.68,-25.92 -1.41,-18.99 -0.29,-13.96 0.82,-8.94 2.06,-4.94 3.30,-0.94 3.36,-0.53 3.43,-0.12 3.39,0.28 3.36,0.69 3.22,1.09 3.09,1.48 2.87,1.83 2.65,2.18 2.35,2.46 2.05,2.75 1.69,2.95 1.33,3.16 0.93,3.27 0.53,3.39 0.12,3.40 -0.28,3.42 -0.69,3.33 -1.09,3.25 -1.47,3.07 -1.84,2.89 -2.16,2.63 -2.48,2.36 -2.73,2.03 -2.97,1.70 -3.14,1.32 -3.30,0.94 -3.30,0.94 L -3.30,0.94 Z"></path>
    </g>
    <g
        transform="translate(408.66689046223837 435.33329645792674) rotate(0 17.000045776367188 -17.99999237060547)"
        stroke="none">
        <path fill="#e03131"
            d="M -2.90,-2.90 Q -2.90,-2.90 0.68,-6.21 4.27,-9.52 7.47,-13.08 10.67,-16.64 14.55,-20.05 18.43,-23.45 21.83,-26.04 25.24,-28.64 26.87,-30.79 28.50,-32.94 29.59,-35.38 30.67,-37.82 31.05,-38.30 31.43,-38.78 31.94,-39.12 32.45,-39.45 33.05,-39.61 33.64,-39.77 34.25,-39.72 34.86,-39.68 35.43,-39.45 35.99,-39.21 36.45,-38.81 36.92,-38.41 37.22,-37.88 37.53,-37.35 37.66,-36.75 37.78,-36.15 37.70,-35.54 37.63,-34.93 37.37,-34.38 37.10,-33.83 36.67,-33.39 36.25,-32.95 35.70,-32.67 35.15,-32.39 34.55,-32.30 33.94,-32.21 33.34,-32.32 32.74,-32.42 32.20,-32.72 31.66,-33.01 31.25,-33.46 30.83,-33.91 30.58,-34.47 30.33,-35.03 30.27,-35.64 30.22,-36.25 30.36,-36.85 30.50,-37.45 30.82,-37.97 31.14,-38.49 31.62,-38.88 32.09,-39.27 32.66,-39.49 33.23,-39.71 33.85,-39.73 34.46,-39.75 35.05,-39.58 35.63,-39.41 36.14,-39.06 36.64,-38.71 37.00,-38.21 37.37,-37.72 37.55,-37.14 37.74,-36.56 37.73,-35.94 37.72,-35.33 37.52,-34.75 37.32,-34.17 37.32,-34.17 37.32,-34.17 35.49,-31.30 33.67,-28.43 31.37,-26.10 29.06,-23.77 25.90,-21.24 22.75,-18.71 19.32,-15.46 15.89,-12.21 12.71,-8.24 9.52,-4.27 6.21,-0.68 2.90,2.90 2.51,3.21 2.12,3.52 1.67,3.72 1.22,3.92 0.73,4.01 0.24,4.10 -0.24,4.07 -0.74,4.04 -1.21,3.89 -1.68,3.75 -2.11,3.49 -2.53,3.23 -2.88,2.88 -3.23,2.53 -3.49,2.11 -3.75,1.68 -3.89,1.21 -4.04,0.74 -4.07,0.24 -4.10,-0.24 -4.01,-0.73 -3.92,-1.22 -3.72,-1.67 -3.51,-2.12 -3.21,-2.51 -2.90,-2.90 -2.90,-2.90 L -2.90,-2.90 Z"></path>
    </g>
    <g
        transform="translate(416.6669209798165 391.3332811991377) rotate(0 10.999984741210938 22.00000762939453)"
        stroke="none">
        <path fill="#e03131"
            d="M 3.46,-1.98 Q 3.46,-1.98 5.61,2.13 7.75,6.24 10.39,12.16 13.04,18.08 15.24,22.85 17.44,27.61 19.46,31.30 21.47,34.98 22.66,37.22 23.85,39.46 24.70,40.99 25.55,42.51 25.69,43.12 25.84,43.72 25.78,44.34 25.72,44.96 25.47,45.53 25.22,46.10 24.80,46.56 24.38,47.02 23.83,47.32 23.28,47.62 22.67,47.73 22.06,47.85 21.44,47.75 20.83,47.66 20.27,47.38 19.72,47.10 19.28,46.65 18.84,46.21 18.57,45.65 18.30,45.09 18.22,44.47 18.15,43.85 18.27,43.24 18.39,42.63 18.71,42.09 19.02,41.55 19.49,41.14 19.96,40.73 20.53,40.49 21.11,40.25 21.73,40.20 22.35,40.16 22.95,40.32 23.55,40.47 24.08,40.82 24.60,41.16 24.98,41.65 25.37,42.14 25.58,42.72 25.78,43.31 25.79,43.93 25.80,44.56 25.62,45.15 25.43,45.74 25.06,46.24 24.69,46.75 24.18,47.10 23.67,47.46 23.07,47.64 22.47,47.82 21.85,47.79 21.23,47.77 20.65,47.55 20.06,47.33 19.58,46.93 19.10,46.54 18.77,46.01 18.44,45.48 18.44,45.48 18.44,45.48 17.95,43.80 17.47,42.13 16.85,40.04 16.23,37.96 13.99,34.16 11.75,30.37 9.36,25.66 6.96,20.95 4.20,15.40 1.44,9.85 -1.01,5.91 -3.46,1.98 -3.65,1.53 -3.84,1.09 -3.91,0.61 -3.99,0.14 -3.95,-0.33 -3.91,-0.81 -3.75,-1.27 -3.60,-1.72 -3.34,-2.13 -3.08,-2.54 -2.73,-2.87 -2.38,-3.20 -1.96,-3.44 -1.54,-3.68 -1.08,-3.81 -0.62,-3.94 -0.14,-3.96 0.33,-3.98 0.81,-3.88 1.28,-3.78 1.71,-3.57 2.15,-3.36 2.52,-3.06 2.89,-2.75 3.18,-2.36 3.46,-1.98 3.46,-1.98 L 3.46,-1.98 Z"></path>
    </g>
    <g
        transform="translate(458.66689046223837 453.33332697550486) rotate(0 10.000076293945312 -7.000007629394531)"
        stroke="none">
        <path fill="#e03131"
            d="M -4.65,1.86 Q -4.65,1.86 -5.76,-1.03 -6.87,-3.93 -7.28,-7.64 -7.68,-11.35 -6.34,-13.78 -5.00,-16.22 -1.38,-17.79 2.22,-19.37 5.64,-19.90 9.05,-20.43 12.82,-19.95 16.58,-19.48 19.45,-17.81 22.32,-16.14 23.99,-14.79 25.65,-13.44 26.98,-10.83 28.32,-8.22 28.44,-5.56 28.57,-2.90 27.15,-0.31 25.73,2.28 21.83,4.67 17.94,7.06 14.99,7.53 12.04,7.99 5.59,6.60 -0.84,5.21 -1.65,4.94 -2.46,4.67 -3.14,4.15 -3.82,3.64 -4.31,2.93 -4.79,2.22 -5.02,1.40 -5.25,0.58 -5.20,-0.27 -5.16,-1.12 -4.84,-1.92 -4.53,-2.71 -3.98,-3.36 -3.43,-4.02 -2.69,-4.46 -1.96,-4.90 -1.13,-5.09 -0.29,-5.27 0.55,-5.18 1.40,-5.09 2.18,-4.73 2.95,-4.38 3.57,-3.79 4.20,-3.20 4.60,-2.45 5.00,-1.69 5.14,-0.85 5.28,-0.01 5.14,0.83 5.01,1.67 4.61,2.43 4.21,3.19 3.59,3.77 2.97,4.36 2.19,4.72 1.42,5.09 0.57,5.18 -0.27,5.27 -1.11,5.09 -1.94,4.91 -2.68,4.47 -3.41,4.03 -3.96,3.38 -4.52,2.73 -4.84,1.94 -5.15,1.14 -5.20,0.29 -5.25,-0.56 -5.02,-1.38 -4.80,-2.21 -4.32,-2.91 -3.84,-3.62 -3.16,-4.14 -2.48,-4.66 -1.67,-4.93 -0.86,-5.21 -0.00,-5.21 0.84,-5.21 0.84,-5.21 0.84,-5.21 6.89,-4.73 12.93,-4.25 15.64,-5.08 18.34,-5.91 16.52,-7.79 14.70,-9.67 12.57,-9.99 10.44,-10.30 6.36,-8.93 2.27,-7.56 3.46,-4.71 4.65,-1.86 4.80,-1.27 4.96,-0.69 4.97,-0.08 4.98,0.51 4.85,1.10 4.71,1.69 4.44,2.23 4.17,2.77 3.78,3.23 3.39,3.69 2.89,4.04 2.40,4.39 1.84,4.61 1.28,4.84 0.68,4.92 0.08,5.01 -0.51,4.94 -1.11,4.88 -1.68,4.68 -2.24,4.47 -2.75,4.14 -3.25,3.81 -3.66,3.36 -4.07,2.92 -4.36,2.39 -4.65,1.86 -4.65,1.86 L -4.65,1.86 Z"></path>
    </g>
    <g transform="translate(524.6669514973946 423.33332697550486) rotate(0 -5 5.9999847412109375)"
        stroke="none">
        <path fill="#e03131"
            d="M 3.56,2.67 Q 3.56,2.67 1.87,5.00 0.18,7.32 -1.11,9.05 -2.41,10.77 -3.46,12.08 -4.51,13.38 -4.95,13.79 -5.39,14.20 -5.91,14.50 -6.44,14.79 -7.02,14.95 -7.60,15.11 -8.20,15.12 -8.80,15.14 -9.39,15.01 -9.98,14.88 -10.52,14.61 -11.06,14.35 -11.52,13.96 -11.98,13.57 -12.33,13.08 -12.68,12.60 -12.91,12.04 -13.14,11.48 -13.22,10.89 -13.31,10.29 -13.25,9.69 -13.20,9.10 -13.00,8.53 -12.80,7.96 -12.47,7.46 -12.14,6.95 -7.70,2.14 -3.25,-2.66 -2.74,-3.11 -2.23,-3.56 -1.60,-3.83 -0.98,-4.09 -0.30,-4.14 0.37,-4.19 1.03,-4.02 1.69,-3.85 2.27,-3.48 2.84,-3.11 3.26,-2.57 3.68,-2.04 3.91,-1.39 4.14,-0.75 4.15,-0.07 4.16,0.60 3.96,1.25 3.75,1.90 3.35,2.45 2.95,3.00 2.39,3.39 1.83,3.79 1.18,3.98 0.53,4.17 -0.14,4.15 -0.83,4.12 -1.46,3.88 -2.10,3.64 -2.63,3.21 -3.16,2.78 -3.52,2.20 -3.88,1.62 -4.04,0.96 -4.20,0.30 -4.14,-0.37 -4.07,-1.05 -3.80,-1.67 -3.52,-2.30 -3.06,-2.80 -2.60,-3.30 -2.01,-3.63 -1.41,-3.96 -0.74,-4.08 -0.07,-4.21 0.59,-4.11 1.27,-4.01 1.88,-3.70 2.48,-3.39 2.96,-2.91 3.44,-2.42 3.74,-1.81 4.03,-1.19 4.12,-0.52 4.20,0.15 4.07,0.82 3.94,1.48 3.59,2.07 3.25,2.66 3.25,2.66 3.25,2.66 -0.62,8.02 -4.51,13.38 -4.95,13.79 -5.39,14.20 -5.91,14.50 -6.44,14.79 -7.02,14.95 -7.60,15.11 -8.20,15.12 -8.80,15.14 -9.39,15.01 -9.98,14.88 -10.52,14.61 -11.05,14.35 -11.51,13.96 -11.97,13.57 -12.33,13.08 -12.68,12.60 -12.91,12.04 -13.14,11.48 -13.22,10.89 -13.31,10.29 -13.25,9.69 -13.20,9.10 -13.00,8.53 -12.80,7.96 -12.47,7.46 -12.14,6.95 -9.61,4.41 -7.08,1.87 -5.32,-0.40 -3.56,-2.67 -3.19,-3.06 -2.82,-3.44 -2.36,-3.73 -1.91,-4.02 -1.40,-4.19 -0.89,-4.36 -0.35,-4.40 0.17,-4.45 0.70,-4.36 1.23,-4.28 1.73,-4.07 2.22,-3.86 2.65,-3.53 3.08,-3.21 3.42,-2.80 3.76,-2.38 3.99,-1.89 4.22,-1.41 4.33,-0.88 4.44,-0.36 4.41,0.17 4.39,0.71 4.24,1.22 4.10,1.74 3.83,2.20 3.56,2.67 3.56,2.67 L 3.56,2.67 Z"></path>
    </g>
    <g
        transform="translate(588.6668904622384 371.3332811991377) rotate(0 -2.9999542236328125 24.000015258789062)"
        stroke="none">
        <path fill="#e03131"
            d="M 3.95,0.32 Q 3.95,0.32 3.19,7.21 2.44,14.09 1.48,19.99 0.52,25.88 0.08,31.09 -0.34,36.31 -1.00,39.97 -1.67,43.63 -2.03,46.19 -2.38,48.76 -2.60,49.32 -2.81,49.87 -3.20,50.33 -3.58,50.79 -4.09,51.10 -4.60,51.41 -5.18,51.55 -5.76,51.68 -6.36,51.62 -6.95,51.56 -7.50,51.31 -8.04,51.07 -8.48,50.66 -8.92,50.25 -9.20,49.73 -9.48,49.20 -9.59,48.61 -9.69,48.03 -9.60,47.44 -9.50,46.84 -9.23,46.31 -8.95,45.78 -8.52,45.37 -8.09,44.96 -7.55,44.70 -7.01,44.45 -6.42,44.38 -5.83,44.31 -5.24,44.43 -4.66,44.55 -4.14,44.86 -3.63,45.16 -3.24,45.61 -2.85,46.07 -2.62,46.62 -2.40,47.17 -2.36,47.77 -2.32,48.36 -2.48,48.94 -2.63,49.52 -2.96,50.02 -3.29,50.51 -3.77,50.88 -4.24,51.24 -4.80,51.44 -5.37,51.63 -5.97,51.64 -6.56,51.64 -7.13,51.46 -7.70,51.27 -8.18,50.91 -8.66,50.56 -8.99,50.06 -9.33,49.57 -9.50,49.00 -9.66,48.42 -9.64,47.83 -9.61,47.23 -9.61,47.23 -9.61,47.23 -8.90,44.74 -8.18,42.25 -7.40,39.07 -6.62,35.89 -6.36,30.42 -6.09,24.94 -5.42,19.22 -4.74,13.50 -4.34,6.58 -3.95,-0.32 -3.85,-0.79 -3.75,-1.26 -3.55,-1.69 -3.34,-2.12 -3.04,-2.49 -2.73,-2.86 -2.35,-3.15 -1.97,-3.43 -1.53,-3.62 -1.09,-3.81 -0.62,-3.88 -0.14,-3.96 0.32,-3.92 0.80,-3.88 1.25,-3.72 1.70,-3.57 2.11,-3.32 2.51,-3.06 2.84,-2.71 3.17,-2.37 3.41,-1.95 3.65,-1.54 3.78,-1.08 3.91,-0.62 3.93,-0.14 3.95,0.32 3.95,0.32 L 3.95,0.32 Z"></path>
    </g>
    <g
        transform="translate(572.6669820149727 401.3332811991377) rotate(0 16.999969482421875 -2.9999923706054688)"
        stroke="none">
        <path fill="#e03131"
            d="M -0.74,-4.08 Q -0.74,-4.08 5.61,-5.03 11.97,-5.98 16.94,-6.89 21.90,-7.79 25.28,-8.35 28.66,-8.92 31.06,-9.41 33.45,-9.91 34.09,-9.90 34.73,-9.88 35.33,-9.66 35.93,-9.44 36.43,-9.04 36.93,-8.64 37.28,-8.10 37.62,-7.56 37.78,-6.94 37.94,-6.32 37.88,-5.69 37.83,-5.05 37.58,-4.46 37.33,-3.87 36.90,-3.39 36.48,-2.92 35.92,-2.60 35.37,-2.29 34.74,-2.16 34.11,-2.04 33.48,-2.13 32.84,-2.21 32.27,-2.50 31.69,-2.78 31.24,-3.23 30.79,-3.68 30.50,-4.25 30.22,-4.83 30.13,-5.46 30.04,-6.09 30.16,-6.72 30.28,-7.35 30.59,-7.91 30.91,-8.47 31.38,-8.89 31.86,-9.32 32.45,-9.58 33.03,-9.83 33.67,-9.88 34.31,-9.94 34.93,-9.78 35.55,-9.63 36.09,-9.29 36.63,-8.94 37.03,-8.44 37.43,-7.95 37.66,-7.35 37.88,-6.75 37.90,-6.11 37.91,-5.47 37.73,-4.86 37.54,-4.24 37.17,-3.72 36.80,-3.20 36.28,-2.83 35.76,-2.46 35.15,-2.27 34.54,-2.08 34.54,-2.08 34.54,-2.08 32.10,-1.91 29.66,-1.74 26.50,-1.39 23.34,-1.05 18.33,0.16 13.32,1.38 7.03,2.73 0.74,4.08 0.24,4.11 -0.25,4.14 -0.74,4.05 -1.24,3.96 -1.69,3.75 -2.15,3.55 -2.54,3.24 -2.94,2.93 -3.25,2.53 -3.55,2.14 -3.76,1.68 -3.96,1.23 -4.05,0.73 -4.14,0.24 -4.11,-0.25 -4.08,-0.75 -3.93,-1.23 -3.78,-1.71 -3.52,-2.13 -3.26,-2.56 -2.91,-2.92 -2.55,-3.27 -2.12,-3.53 -1.69,-3.79 -1.22,-3.93 -0.74,-4.08 -0.74,-4.08 L -0.74,-4.08 Z"></path>
    </g>
    <g
        transform="translate(618.6668904622384 449.3333117167158) rotate(0 11.00006103515625 -15.999984741210938)"
        stroke="none">
        <path fill="#e03131"
            d="M -1.94,3.89 Q -1.94,3.89 -4.33,2.79 -6.71,1.68 -8.45,0.12 -10.20,-1.43 -11.21,-3.97 -12.23,-6.51 -11.79,-10.54 -11.35,-14.57 -8.99,-18.01 -6.64,-21.44 -3.14,-24.76 0.35,-28.08 5.25,-30.31 10.15,-32.54 13.82,-33.52 17.48,-34.49 21.13,-32.97 24.78,-31.44 27.06,-27.86 29.35,-24.28 30.57,-19.72 31.78,-15.16 32.47,-12.03 33.15,-8.89 32.61,-5.88 32.06,-2.86 30.16,-1.02 28.25,0.82 23.31,2.56 18.38,4.31 9.22,4.40 0.07,4.49 -0.64,4.38 -1.36,4.28 -2.01,3.95 -2.65,3.62 -3.16,3.10 -3.67,2.58 -3.99,1.92 -4.30,1.27 -4.40,0.55 -4.49,-0.16 -4.34,-0.88 -4.20,-1.59 -3.83,-2.22 -3.47,-2.85 -2.92,-3.33 -2.38,-3.81 -1.70,-4.09 -1.03,-4.37 -0.31,-4.42 0.41,-4.47 1.11,-4.29 1.81,-4.10 2.42,-3.71 3.03,-3.31 3.48,-2.74 3.93,-2.17 4.17,-1.48 4.42,-0.80 4.43,-0.07 4.44,0.65 4.22,1.34 4.00,2.03 3.57,2.62 3.14,3.21 2.54,3.62 1.95,4.04 1.25,4.25 0.55,4.45 -0.16,4.43 -0.89,4.40 -1.57,4.14 -2.25,3.88 -2.81,3.42 -3.37,2.96 -3.76,2.34 -4.14,1.73 -4.31,1.02 -4.48,0.31 -4.41,-0.40 -4.34,-1.13 -4.05,-1.79 -3.76,-2.46 -3.26,-2.99 -2.77,-3.53 -2.14,-3.88 -1.50,-4.23 -0.78,-4.36 -0.07,-4.49 -0.07,-4.49 -0.07,-4.49 6.89,-4.92 13.87,-5.35 17.10,-5.48 20.34,-5.62 22.80,-6.63 25.27,-7.65 24.89,-10.30 24.50,-12.95 23.22,-16.58 21.93,-20.22 19.88,-23.61 17.83,-27.00 15.64,-26.28 13.44,-25.57 9.95,-23.82 6.46,-22.08 2.31,-17.34 -1.82,-12.60 -2.15,-9.44 -2.48,-6.28 -0.26,-5.09 1.94,-3.89 2.38,-3.60 2.82,-3.31 3.17,-2.92 3.53,-2.54 3.78,-2.08 4.03,-1.62 4.17,-1.11 4.31,-0.60 4.32,-0.08 4.33,0.43 4.21,0.95 4.10,1.46 3.86,1.93 3.63,2.40 3.29,2.80 2.95,3.20 2.52,3.50 2.09,3.81 1.61,4.01 1.12,4.20 0.60,4.27 0.08,4.35 -0.43,4.29 -0.95,4.24 -1.45,4.07 -1.94,3.89 -1.94,3.89 L -1.94,3.89 Z"></path>
    </g>
    <g
        transform="translate(694.6669514973946 335.33329645792674) rotate(0 8.000030517578125 54.00001525878906)"
        stroke="none">
        <path fill="#e03131"
            d="M 3.16,-1.89 Q 3.16,-1.89 4.93,0.95 6.71,3.81 8.62,10.07 10.52,16.32 12.40,25.30 14.29,34.29 15.63,45.07 16.97,55.86 17.52,64.52 18.06,73.17 17.10,78.86 16.15,84.55 15.17,88.65 14.20,92.75 13.35,95.80 12.50,98.86 10.90,101.67 9.30,104.47 8.45,107.00 7.61,109.52 7.27,110.06 6.93,110.59 6.44,110.99 5.95,111.39 5.35,111.62 4.76,111.84 4.13,111.86 3.49,111.88 2.89,111.70 2.28,111.52 1.76,111.15 1.24,110.79 0.87,110.27 0.50,109.76 0.30,109.16 0.11,108.55 0.13,107.92 0.14,107.28 0.35,106.69 0.57,106.09 0.96,105.59 1.36,105.10 1.89,104.75 2.42,104.40 3.04,104.25 3.65,104.09 4.28,104.14 4.91,104.18 5.50,104.43 6.08,104.68 6.56,105.10 7.03,105.52 7.35,106.07 7.67,106.62 7.79,107.24 7.91,107.86 7.83,108.49 7.75,109.12 7.47,109.69 7.19,110.26 6.75,110.71 6.30,111.16 5.74,111.45 5.17,111.73 4.54,111.82 3.92,111.91 3.29,111.80 2.67,111.68 2.11,111.38 1.56,111.07 1.13,110.60 0.71,110.13 0.45,109.55 0.20,108.97 0.14,108.33 0.09,107.70 0.23,107.09 0.38,106.47 0.38,106.47 0.38,106.47 1.85,103.50 3.32,100.53 4.86,98.62 6.39,96.70 7.50,94.06 8.62,91.41 9.56,87.51 10.49,83.60 11.33,78.57 12.16,73.55 11.52,65.11 10.87,56.67 9.40,46.18 7.94,35.69 5.92,27.07 3.90,18.46 2.04,13.07 0.18,7.68 -1.48,4.79 -3.16,1.89 -3.34,1.49 -3.52,1.08 -3.60,0.64 -3.68,0.21 -3.65,-0.23 -3.62,-0.67 -3.49,-1.10 -3.35,-1.52 -3.12,-1.90 -2.89,-2.28 -2.58,-2.59 -2.26,-2.91 -1.88,-3.14 -1.50,-3.36 -1.07,-3.50 -0.65,-3.63 -0.20,-3.65 0.23,-3.68 0.67,-3.60 1.10,-3.51 1.51,-3.33 1.91,-3.15 2.26,-2.87 2.61,-2.60 2.89,-2.24 3.16,-1.89 3.16,-1.89 L 3.16,-1.89 Z"></path>
    </g>
    <g stroke-opacity="0.5" fill-opacity="0.5"
        transform="translate(310.13316853841025 794.5333137512207) rotate(0 220.99998474121094 -125.99998474121094)"
        stroke="none">
        <path fill="#e03131"
            d="M -1.16,-2.90 Q -1.16,-2.90 4.61,-5.13 10.39,-7.37 19.97,-9.52 29.54,-11.67 41.58,-14.26 53.62,-16.86 73.25,-19.13 92.87,-21.39 117.33,-22.92 141.78,-24.44 168.27,-25.66 194.75,-26.87 219.74,-29.11 244.73,-31.34 267.96,-34.58 291.19,-37.82 309.72,-40.35 328.25,-42.88 345.38,-44.53 362.50,-46.19 376.14,-46.89 389.78,-47.60 400.18,-47.89 410.59,-48.19 418.56,-47.74 426.53,-47.29 431.00,-47.10 435.47,-46.91 436.81,-47.05 438.15,-47.19 438.52,-47.13 438.89,-47.07 439.23,-46.92 439.57,-46.78 439.87,-46.55 440.16,-46.33 440.40,-46.04 440.63,-45.75 440.79,-45.42 440.95,-45.08 441.02,-44.72 441.09,-44.36 441.08,-43.98 441.06,-43.61 440.96,-43.26 440.85,-42.90 440.67,-42.58 440.48,-42.26 440.22,-41.99 439.97,-41.73 439.65,-41.53 439.34,-41.33 438.99,-41.21 438.63,-41.10 438.26,-41.07 437.89,-41.04 434.79,-41.61 431.69,-42.17 425.26,-43.62 418.83,-45.07 408.71,-46.84 398.59,-48.61 385.67,-50.52 372.75,-52.43 358.01,-54.99 343.27,-57.55 329.05,-59.20 314.82,-60.86 299.64,-61.56 284.46,-62.27 269.37,-62.58 254.29,-62.88 238.11,-63.01 221.92,-63.15 204.74,-62.63 187.55,-62.11 172.16,-61.90 156.76,-61.68 145.62,-61.59 134.48,-61.49 125.22,-60.88 115.96,-60.27 109.20,-59.45 102.43,-58.62 96.10,-57.69 89.77,-56.77 84.10,-56.36 78.43,-55.96 73.13,-55.79 67.83,-55.62 63.28,-55.54 58.73,-55.47 54.08,-54.88 49.42,-54.28 43.83,-54.02 38.23,-53.75 33.14,-53.08 28.04,-52.40 25.24,-51.88 22.44,-51.35 21.84,-51.11 21.24,-50.87 20.84,-50.87 20.44,-50.88 20.05,-50.98 19.66,-51.09 19.31,-51.28 18.96,-51.47 18.66,-51.74 18.37,-52.01 18.15,-52.35 17.92,-52.68 17.79,-53.06 17.65,-53.44 17.61,-53.83 17.57,-54.23 17.62,-54.63 17.68,-55.03 17.83,-55.40 17.98,-55.77 18.21,-56.10 18.44,-56.43 18.75,-56.69 19.05,-56.95 19.41,-57.13 19.77,-57.31 20.16,-57.40 20.55,-57.49 26.14,-60.61 31.72,-63.73 40.07,-67.46 48.43,-71.19 58.31,-75.63 68.20,-80.06 79.99,-84.27 91.78,-88.48 104.96,-91.44 118.15,-94.39 129.38,-97.33 140.62,-100.27 151.74,-103.24 162.86,-106.21 175.27,-107.50 187.68,-108.80 202.68,-109.91 217.68,-111.02 233.15,-113.20 248.62,-115.38 266.23,-116.89 283.84,-118.41 297.04,-119.62 310.23,-120.83 317.50,-121.91 324.76,-122.99 328.37,-123.53 331.98,-124.07 333.05,-125.09 334.12,-126.10 334.51,-126.10 334.91,-126.10 335.29,-126.01 335.67,-125.92 336.02,-125.74 336.37,-125.56 336.67,-125.29 336.97,-125.03 337.19,-124.71 337.42,-124.39 337.56,-124.02 337.70,-123.65 337.75,-123.26 337.80,-122.87 337.75,-122.48 337.71,-122.08 337.57,-121.71 337.43,-121.34 337.21,-121.02 336.98,-120.69 336.69,-120.43 336.40,-120.17 336.05,-119.98 335.70,-119.80 335.32,-119.70 334.93,-119.61 330.76,-120.66 326.58,-121.72 319.27,-123.89 311.95,-126.07 302.15,-127.54 292.36,-129.01 278.88,-131.39 265.39,-133.78 248.73,-137.10 232.06,-140.43 215.28,-142.99 198.49,-145.54 184.48,-147.21 170.46,-148.87 159.82,-150.75 149.17,-152.62 140.76,-153.40 132.34,-154.18 123.53,-155.10 114.73,-156.01 104.75,-156.40 94.77,-156.78 86.49,-156.95 78.22,-157.11 72.97,-157.19 67.73,-157.26 63.93,-156.82 60.13,-156.38 60.53,-156.38 60.92,-156.38 60.54,-156.37 60.16,-156.36 59.79,-156.43 59.42,-156.51 59.08,-156.67 58.74,-156.83 58.44,-157.07 58.15,-157.31 57.92,-157.62 57.70,-157.92 57.55,-158.27 57.40,-158.62 57.34,-158.99 57.28,-159.37 57.31,-159.74 57.34,-160.12 57.46,-160.48 57.58,-160.84 57.79,-161.16 57.99,-161.48 58.26,-161.74 58.54,-162.00 58.86,-162.19 59.19,-162.38 59.56,-162.49 59.92,-162.59 64.72,-164.25 69.52,-165.90 77.09,-166.79 84.66,-167.68 97.02,-169.16 109.37,-170.65 123.77,-172.98 138.17,-175.31 149.52,-176.87 160.88,-178.43 169.03,-180.21 177.19,-181.99 181.32,-182.78 185.44,-183.57 187.69,-184.12 189.95,-184.66 190.99,-185.59 192.03,-186.52 192.47,-186.53 192.90,-186.54 193.33,-186.44 193.76,-186.35 194.15,-186.15 194.54,-185.96 194.87,-185.68 195.20,-185.39 195.46,-185.04 195.71,-184.69 195.88,-184.28 196.04,-183.88 196.10,-183.45 196.16,-183.01 196.12,-182.58 196.08,-182.14 195.93,-181.73 195.78,-181.32 195.54,-180.96 195.30,-180.59 194.98,-180.30 194.66,-180.00 194.28,-179.79 193.90,-179.58 193.48,-179.47 193.05,-179.35 189.73,-180.31 186.41,-181.28 181.46,-182.90 176.52,-184.52 171.06,-185.81 165.61,-187.10 159.70,-188.86 153.79,-190.63 148.37,-192.56 142.95,-194.50 139.42,-195.82 135.89,-197.14 133.89,-198.36 131.90,-199.59 130.90,-202.63 129.91,-205.66 131.33,-208.05 132.74,-210.44 135.85,-213.35 138.97,-216.27 144.61,-219.94 150.25,-223.61 154.72,-227.23 159.19,-230.85 162.90,-232.86 166.61,-234.87 164.12,-234.84 161.62,-234.81 156.09,-235.35 150.57,-235.90 143.27,-237.39 135.97,-238.88 129.47,-240.12 122.96,-241.36 120.19,-244.26 117.41,-247.16 120.34,-250.66 123.27,-254.16 125.71,-254.92 128.15,-255.67 130.77,-256.14 133.40,-256.60 134.15,-256.58 134.90,-256.55 135.61,-256.29 136.31,-256.03 136.89,-255.55 137.48,-255.08 137.88,-254.44 138.28,-253.80 138.45,-253.07 138.63,-252.34 138.56,-251.59 138.50,-250.84 138.20,-250.15 137.89,-249.47 137.39,-248.91 136.88,-248.35 136.23,-247.99 135.57,-247.62 134.83,-247.48 134.09,-247.35 133.35,-247.45 132.60,-247.56 131.93,-247.90 131.26,-248.24 130.73,-248.77 130.20,-249.31 129.87,-249.98 129.54,-250.66 129.45,-251.41 129.35,-252.15 129.50,-252.89 129.64,-253.63 130.02,-254.28 130.39,-254.93 130.95,-255.43 131.52,-255.93 132.21,-256.22 132.90,-256.51 133.65,-256.57 134.40,-256.63 135.13,-256.44 135.86,-256.25 136.49,-255.84 137.12,-255.43 137.59,-254.84 138.06,-254.26 138.31,-253.55 138.57,-252.84 138.58,-252.09 138.60,-251.34 138.37,-250.62 138.15,-249.90 137.70,-249.29 137.26,-248.69 136.65,-248.25 136.03,-247.82 135.31,-247.60 134.59,-247.38 134.59,-247.39 134.59,-247.39 132.31,-247.22 130.03,-247.05 127.12,-247.13 124.21,-247.21 130.68,-246.13 137.15,-245.06 144.15,-243.81 151.14,-242.56 157.60,-242.08 164.06,-241.59 167.44,-240.13 170.83,-238.66 170.70,-234.64 170.58,-230.62 166.98,-228.24 163.38,-225.86 158.77,-221.84 154.17,-217.83 149.28,-214.37 144.39,-210.91 141.31,-206.86 138.23,-202.82 141.55,-201.41 144.86,-199.99 150.15,-198.21 155.45,-196.43 161.20,-194.85 166.95,-193.28 172.70,-192.12 178.46,-190.96 185.24,-188.74 192.03,-186.52 192.47,-186.53 192.90,-186.54 193.33,-186.44 193.76,-186.35 194.15,-186.15 194.54,-185.96 194.87,-185.68 195.20,-185.40 195.46,-185.04 195.71,-184.69 195.88,-184.28 196.04,-183.88 196.10,-183.45 196.16,-183.01 196.12,-182.58 196.08,-182.14 195.93,-181.73 195.78,-181.32 195.54,-180.96 195.30,-180.59 194.98,-180.30 194.66,-180.00 194.28,-179.79 193.90,-179.58 193.48,-179.47 193.05,-179.35 192.13,-178.85 191.21,-178.35 188.84,-178.24 186.47,-178.13 182.43,-177.36 178.38,-176.60 170.02,-174.73 161.66,-172.86 150.38,-171.24 139.11,-169.63 124.61,-167.18 110.12,-164.74 97.78,-163.13 85.45,-161.51 78.21,-160.49 70.98,-159.48 65.95,-157.93 60.92,-156.38 60.54,-156.37 60.16,-156.36 59.79,-156.43 59.42,-156.51 59.08,-156.67 58.74,-156.83 58.44,-157.07 58.15,-157.31 57.92,-157.62 57.70,-157.92 57.55,-158.27 57.40,-158.62 57.34,-158.99 57.28,-159.36 57.31,-159.74 57.34,-160.12 57.46,-160.48 57.58,-160.84 57.79,-161.16 57.99,-161.48 58.26,-161.74 58.54,-162.00 58.86,-162.19 59.19,-162.38 59.56,-162.49 59.92,-162.59 60.89,-161.91 61.86,-161.22 64.82,-161.88 67.79,-162.53 73.05,-162.46 78.32,-162.39 86.65,-162.23 94.97,-162.06 105.12,-161.67 115.27,-161.28 124.05,-160.38 132.83,-159.48 141.46,-158.68 150.09,-157.88 160.59,-156.05 171.09,-154.21 185.20,-152.56 199.31,-150.90 216.22,-148.35 233.13,-145.81 249.74,-142.53 266.35,-139.26 279.77,-136.95 293.18,-134.63 303.38,-133.16 313.57,-131.69 320.81,-129.65 328.06,-127.60 331.09,-126.85 334.12,-126.10 334.51,-126.10 334.91,-126.10 335.29,-126.01 335.67,-125.92 336.02,-125.74 336.37,-125.56 336.67,-125.29 336.97,-125.03 337.19,-124.71 337.42,-124.39 337.56,-124.02 337.70,-123.65 337.75,-123.26 337.80,-122.87 337.75,-122.48 337.71,-122.08 337.57,-121.71 337.43,-121.34 337.21,-121.02 336.98,-120.69 336.69,-120.43 336.40,-120.17 336.05,-119.98 335.70,-119.80 335.32,-119.70 334.93,-119.61 334.01,-119.08 333.09,-118.55 329.31,-118.16 325.54,-117.77 318.13,-116.67 310.72,-115.56 297.51,-114.34 284.30,-113.12 266.83,-111.61 249.37,-110.11 233.72,-107.89 218.08,-105.68 203.16,-104.56 188.24,-103.43 176.25,-102.19 164.26,-100.94 153.14,-97.94 142.03,-94.93 130.71,-91.92 119.39,-88.91 106.56,-85.98 93.73,-83.06 82.20,-78.85 70.66,-74.64 60.84,-70.09 51.02,-65.54 42.77,-61.66 34.53,-57.78 30.23,-55.66 25.94,-53.53 23.59,-52.20 21.24,-50.87 20.84,-50.87 20.44,-50.88 20.05,-50.98 19.66,-51.08 19.31,-51.28 18.96,-51.47 18.66,-51.74 18.37,-52.01 18.15,-52.35 17.92,-52.68 17.79,-53.06 17.65,-53.44 17.61,-53.83 17.57,-54.23 17.62,-54.63 17.68,-55.03 17.83,-55.40 17.98,-55.77 18.21,-56.10 18.44,-56.43 18.75,-56.69 19.05,-56.95 19.41,-57.13 19.77,-57.31 20.16,-57.40 20.55,-57.49 21.17,-57.50 21.79,-57.50 24.57,-57.56 27.35,-57.61 32.67,-58.31 37.99,-59.00 43.37,-59.25 48.76,-59.50 53.70,-60.11 58.65,-60.73 63.16,-60.80 67.66,-60.87 72.86,-61.04 78.05,-61.20 83.53,-61.59 89.01,-61.97 95.40,-62.91 101.79,-63.85 108.70,-64.69 115.62,-65.53 125.02,-66.15 134.43,-66.77 145.56,-66.87 156.68,-66.97 172.04,-67.19 187.39,-67.42 204.68,-67.94 221.96,-68.47 238.18,-68.35 254.40,-68.23 269.55,-67.94 284.70,-67.65 300.07,-66.95 315.45,-66.26 329.82,-64.61 344.20,-62.97 358.88,-60.47 373.55,-57.97 386.55,-56.11 399.55,-54.25 409.81,-52.55 420.08,-50.84 426.45,-49.53 432.82,-48.22 435.49,-47.70 438.15,-47.19 438.52,-47.13 438.89,-47.07 439.23,-46.92 439.57,-46.78 439.87,-46.55 440.16,-46.33 440.40,-46.04 440.63,-45.75 440.79,-45.42 440.95,-45.08 441.02,-44.72 441.09,-44.36 441.08,-43.99 441.06,-43.61 440.96,-43.26 440.85,-42.90 440.67,-42.58 440.48,-42.26 440.22,-41.99 439.97,-41.73 439.65,-41.53 439.34,-41.33 438.99,-41.21 438.63,-41.10 438.26,-41.07 437.89,-41.04 436.57,-41.34 435.25,-41.65 430.74,-41.84 426.23,-42.03 418.48,-42.47 410.74,-42.92 400.40,-42.62 390.05,-42.32 376.53,-41.62 363.01,-40.92 345.99,-39.27 328.97,-37.62 310.45,-35.08 291.93,-32.54 268.57,-29.27 245.21,-26.00 220.11,-23.74 195.00,-21.48 168.56,-20.24 142.13,-19.00 117.82,-17.45 93.51,-15.90 74.17,-13.63 54.83,-11.36 42.82,-8.69 30.82,-6.03 21.71,-3.93 12.60,-1.82 6.88,0.53 1.16,2.90 0.79,2.99 0.43,3.09 0.05,3.10 -0.32,3.10 -0.68,3.02 -1.05,2.94 -1.39,2.77 -1.72,2.60 -2.01,2.35 -2.30,2.11 -2.52,1.80 -2.73,1.50 -2.87,1.15 -3.01,0.80 -3.07,0.42 -3.12,0.05 -3.08,-0.31 -3.04,-0.69 -2.91,-1.04 -2.79,-1.40 -2.58,-1.71 -2.37,-2.02 -2.09,-2.28 -1.82,-2.53 -1.49,-2.72 -1.16,-2.90 -1.16,-2.90 L -1.16,-2.90 Z"></path>
    </g>
    <g transform="translate(615.1998901367188 617.8666776021319) rotate(0 4.79998779296875 20)"
        stroke="none">
        <path fill="#2f9e44"
            d="M 4.15,-0.75 Q 4.15,-0.75 4.86,4.34 5.57,9.43 6.70,14.24 7.82,19.04 8.74,23.51 9.66,27.97 10.67,30.58 11.68,33.19 12.54,36.15 13.40,39.12 13.44,39.75 13.48,40.38 13.32,40.99 13.16,41.60 12.81,42.13 12.46,42.65 11.96,43.04 11.46,43.43 10.86,43.64 10.27,43.84 9.63,43.85 9.00,43.86 8.40,43.66 7.80,43.46 7.29,43.09 6.79,42.71 6.43,42.19 6.07,41.67 5.89,41.06 5.72,40.46 5.74,39.82 5.77,39.19 6.00,38.60 6.23,38.01 6.63,37.53 7.04,37.04 7.57,36.71 8.11,36.38 8.73,36.24 9.34,36.10 9.97,36.16 10.60,36.22 11.18,36.48 11.76,36.74 12.22,37.17 12.68,37.60 12.98,38.16 13.28,38.71 13.39,39.33 13.50,39.96 13.41,40.58 13.31,41.21 13.02,41.77 12.73,42.33 12.27,42.77 11.82,43.21 11.25,43.48 10.68,43.75 10.05,43.82 9.42,43.90 8.80,43.77 8.18,43.64 7.64,43.32 7.10,43.00 6.68,42.52 6.27,42.04 6.03,41.46 5.79,40.87 5.79,40.87 5.79,40.87 5.33,38.12 4.88,35.37 4.10,32.41 3.32,29.45 2.21,25.14 1.09,20.83 -0.40,15.82 -1.89,10.80 -3.02,5.77 -4.15,0.75 -4.18,0.24 -4.21,-0.26 -4.12,-0.76 -4.03,-1.26 -3.82,-1.72 -3.61,-2.19 -3.29,-2.59 -2.98,-2.99 -2.58,-3.30 -2.18,-3.61 -1.71,-3.82 -1.25,-4.03 -0.75,-4.12 -0.24,-4.21 0.25,-4.18 0.76,-4.15 1.25,-4.00 1.73,-3.85 2.17,-3.58 2.61,-3.32 2.97,-2.96 3.32,-2.60 3.59,-2.16 3.85,-1.72 4.00,-1.24 4.15,-0.75 4.15,-0.75 L 4.15,-0.75 Z"></path>
    </g>
    <g transform="translate(623.1998901367188 617.8666776021319) rotate(0 20 -0.800018310546875)"
        stroke="none">
        <path fill="#2f9e44"
            d="M 0.43,-3.92 Q 0.43,-3.92 4.55,-3.31 8.68,-2.69 13.52,-2.37 18.36,-2.05 23.04,-2.32 27.72,-2.59 30.82,-3.67 33.91,-4.75 36.40,-5.72 38.90,-6.68 39.49,-6.77 40.07,-6.85 40.66,-6.74 41.24,-6.63 41.75,-6.34 42.27,-6.06 42.67,-5.62 43.06,-5.18 43.30,-4.64 43.54,-4.10 43.59,-3.51 43.64,-2.92 43.50,-2.34 43.36,-1.77 43.04,-1.27 42.73,-0.77 42.27,-0.40 41.81,-0.02 41.26,0.17 40.70,0.38 40.11,0.40 39.52,0.42 38.95,0.25 38.39,0.08 37.91,-0.25 37.42,-0.60 37.08,-1.08 36.73,-1.55 36.55,-2.12 36.38,-2.68 36.39,-3.27 36.40,-3.87 36.60,-4.42 36.80,-4.98 37.17,-5.44 37.54,-5.90 38.04,-6.22 38.53,-6.55 39.11,-6.69 39.68,-6.84 40.27,-6.79 40.86,-6.75 41.40,-6.52 41.95,-6.29 42.39,-5.89 42.83,-5.50 43.13,-4.99 43.42,-4.47 43.53,-3.89 43.65,-3.31 43.57,-2.73 43.50,-2.14 43.23,-1.61 42.97,-1.08 42.56,-0.66 42.14,-0.24 41.61,0.02 41.09,0.28 41.09,0.28 41.09,0.28 38.48,0.91 35.88,1.54 32.06,2.62 28.25,3.71 23.18,4.19 18.10,4.67 12.99,4.60 7.87,4.53 3.72,4.23 -0.43,3.92 -0.89,3.81 -1.36,3.70 -1.78,3.48 -2.21,3.27 -2.56,2.96 -2.92,2.64 -3.20,2.25 -3.47,1.87 -3.65,1.42 -3.82,0.98 -3.88,0.51 -3.94,0.04 -3.89,-0.43 -3.84,-0.90 -3.67,-1.35 -3.51,-1.79 -3.24,-2.19 -2.98,-2.58 -2.62,-2.90 -2.27,-3.22 -1.85,-3.45 -1.43,-3.67 -0.97,-3.79 -0.51,-3.91 -0.03,-3.92 0.43,-3.92 0.43,-3.92 L 0.43,-3.92 Z"></path>
    </g>
    <g transform="translate(349.59991455078125 640.2666409810381) rotate(0 -3.20001220703125 -20)"
        stroke="none">
        <path fill="#2f9e44"
            d="M -4.13,0 Q -4.13,0 -4.16,-3.20 -4.18,-6.41 -4.86,-10.14 -5.53,-13.87 -6.24,-18.47 -6.95,-23.08 -7.66,-27.31 -8.36,-31.54 -8.93,-33.82 -9.49,-36.10 -9.93,-37.74 -10.37,-39.38 -10.36,-40.03 -10.35,-40.68 -10.14,-41.29 -9.93,-41.91 -9.53,-42.42 -9.13,-42.94 -8.59,-43.30 -8.05,-43.66 -7.42,-43.83 -6.79,-43.99 -6.15,-43.95 -5.50,-43.91 -4.89,-43.67 -4.29,-43.42 -3.80,-42.99 -3.31,-42.57 -2.98,-42.01 -2.65,-41.45 -2.51,-40.81 -2.38,-40.18 -2.46,-39.53 -2.53,-38.89 -2.81,-38.30 -3.09,-37.71 -3.54,-37.24 -3.99,-36.77 -4.57,-36.48 -5.15,-36.18 -5.79,-36.08 -6.43,-35.98 -7.07,-36.09 -7.71,-36.20 -8.28,-36.51 -8.86,-36.82 -9.30,-37.29 -9.74,-37.77 -10.01,-38.36 -10.28,-38.95 -10.34,-39.60 -10.41,-40.25 -10.26,-40.88 -10.11,-41.52 -9.77,-42.07 -9.43,-42.62 -8.94,-43.04 -8.44,-43.46 -7.83,-43.69 -7.22,-43.93 -6.57,-43.96 -5.92,-43.99 -5.30,-43.81 -4.68,-43.63 -4.14,-43.26 -3.61,-42.89 -3.22,-42.37 -2.83,-41.85 -2.63,-41.23 -2.42,-40.61 -2.42,-40.61 -2.42,-40.61 -2.35,-38.92 -2.27,-37.22 -2.13,-35.00 -2.00,-32.78 -1.06,-28.57 -0.12,-24.36 0.86,-19.94 1.85,-15.52 3.02,-10.99 4.18,-6.46 4.16,-3.23 4.13,0 4.07,0.49 4.01,0.98 3.83,1.45 3.66,1.92 3.37,2.33 3.09,2.74 2.72,3.07 2.34,3.40 1.90,3.63 1.46,3.86 0.98,3.98 0.49,4.10 -0.00,4.10 -0.49,4.10 -0.98,3.98 -1.46,3.86 -1.90,3.63 -2.34,3.40 -2.72,3.07 -3.09,2.74 -3.37,2.33 -3.66,1.92 -3.83,1.45 -4.01,0.98 -4.07,0.49 -4.13,-0.00 -4.13,-0.00 L -4.13,0 Z"></path>
    </g>
    <g
        transform="translate(354.39996337890625 637.0666898091631) rotate(0 37.5999755859375 -11.20001220703125)"
        stroke="none">
        <path fill="#2f9e44"
            d="M -2.01,-3.16 Q -2.01,-3.16 3.13,-6.26 8.27,-9.35 14.44,-11.68 20.61,-14.02 27.96,-15.45 35.32,-16.88 43.03,-17.91 50.74,-18.93 57.10,-20.24 63.46,-21.56 66.47,-22.70 69.49,-23.84 71.79,-24.81 74.09,-25.78 74.66,-25.86 75.23,-25.95 75.80,-25.85 76.36,-25.75 76.87,-25.48 77.37,-25.20 77.77,-24.78 78.16,-24.36 78.39,-23.84 78.63,-23.31 78.69,-22.74 78.74,-22.17 78.61,-21.61 78.48,-21.05 78.18,-20.56 77.88,-20.07 77.44,-19.70 77.00,-19.33 76.46,-19.12 75.92,-18.91 75.35,-18.89 74.78,-18.86 74.22,-19.02 73.67,-19.18 73.20,-19.51 72.72,-19.84 72.38,-20.30 72.04,-20.76 71.86,-21.31 71.68,-21.85 71.69,-22.43 71.69,-23.01 71.88,-23.55 72.07,-24.09 72.42,-24.55 72.78,-25.00 73.26,-25.32 73.73,-25.64 74.29,-25.79 74.85,-25.93 75.42,-25.90 75.99,-25.86 76.53,-25.64 77.06,-25.42 77.49,-25.05 77.93,-24.67 78.22,-24.17 78.51,-23.68 78.63,-23.11 78.75,-22.55 78.68,-21.98 78.61,-21.41 78.36,-20.89 78.12,-20.37 77.72,-19.96 77.32,-19.54 76.81,-19.28 76.30,-19.01 76.30,-19.01 76.30,-19.01 73.87,-18.44 71.44,-17.86 68.04,-16.91 64.65,-15.97 58.11,-14.53 51.56,-13.10 44.05,-11.99 36.54,-10.87 29.74,-9.44 22.95,-8.01 17.45,-5.76 11.96,-3.52 6.98,-0.17 2.01,3.16 1.60,3.36 1.19,3.55 0.75,3.64 0.31,3.74 -0.13,3.72 -0.59,3.70 -1.02,3.58 -1.46,3.45 -1.85,3.23 -2.24,3.00 -2.57,2.69 -2.90,2.38 -3.14,2.00 -3.38,1.61 -3.53,1.18 -3.67,0.76 -3.71,0.31 -3.75,-0.14 -3.67,-0.58 -3.60,-1.03 -3.43,-1.45 -3.25,-1.86 -2.98,-2.22 -2.71,-2.59 -2.36,-2.87 -2.01,-3.16 -2.01,-3.16 L -2.01,-3.16 Z"></path>
    </g>
    <g
        transform="translate(517.5999145507812 808.2667020161944) rotate(0 -13.5999755859375 -10.4000244140625)"
        stroke="none">
        <path fill="#2f9e44"
            d="M -2.72,3.40 Q -2.72,3.40 -7.17,-0.45 -11.63,-4.31 -15.30,-7.37 -18.97,-10.43 -21.47,-11.98 -23.97,-13.53 -26.84,-15.54 -29.71,-17.54 -30.17,-18.03 -30.62,-18.51 -30.89,-19.12 -31.17,-19.73 -31.24,-20.39 -31.30,-21.05 -31.15,-21.70 -31.01,-22.35 -30.66,-22.92 -30.31,-23.48 -29.80,-23.91 -29.29,-24.34 -28.67,-24.58 -28.05,-24.82 -27.38,-24.85 -26.72,-24.88 -26.08,-24.70 -25.44,-24.52 -24.89,-24.14 -24.34,-23.76 -23.94,-23.23 -23.54,-22.69 -23.34,-22.06 -23.13,-21.43 -23.13,-20.76 -23.14,-20.10 -23.36,-19.47 -23.57,-18.84 -23.98,-18.31 -24.39,-17.78 -24.94,-17.42 -25.50,-17.05 -26.14,-16.87 -26.78,-16.70 -27.45,-16.74 -28.11,-16.78 -28.73,-17.03 -29.34,-17.29 -29.85,-17.72 -30.35,-18.16 -30.69,-18.73 -31.03,-19.30 -31.17,-19.95 -31.31,-20.61 -31.23,-21.27 -31.15,-21.93 -30.87,-22.53 -30.58,-23.13 -30.12,-23.61 -29.66,-24.09 -29.07,-24.40 -28.48,-24.71 -27.82,-24.81 -27.16,-24.91 -26.51,-24.80 -25.85,-24.68 -25.26,-24.37 -24.68,-24.05 -24.68,-24.05 -24.68,-24.05 -22.21,-21.92 -19.73,-19.80 -17.17,-17.93 -14.60,-16.06 -10.68,-13.23 -6.76,-10.40 -2.02,-6.90 2.72,-3.40 3.09,-3.02 3.45,-2.65 3.72,-2.20 3.99,-1.74 4.14,-1.24 4.29,-0.74 4.32,-0.21 4.34,0.30 4.24,0.82 4.14,1.33 3.92,1.81 3.70,2.29 3.37,2.70 3.04,3.11 2.63,3.43 2.21,3.75 1.73,3.96 1.25,4.17 0.73,4.26 0.21,4.35 -0.30,4.31 -0.82,4.27 -1.32,4.11 -1.82,3.95 -2.27,3.67 -2.72,3.40 -2.72,3.40 L -2.72,3.40 Z"></path>
    </g>
    <g transform="translate(517.5999145507812 811.4666531880694) rotate(0 -8 14.4000244140625)"
        stroke="none">
        <path fill="#2f9e44"
            d="M 3.98,2.27 Q 3.98,2.27 2.04,5.43 0.10,8.60 -2.27,12.17 -4.64,15.75 -5.91,18.24 -7.17,20.73 -8.07,22.73 -8.98,24.73 -10.42,27.82 -11.86,30.92 -12.31,31.52 -12.76,32.13 -13.38,32.56 -13.99,32.99 -14.71,33.20 -15.44,33.41 -16.19,33.38 -16.94,33.34 -17.64,33.07 -18.34,32.81 -18.92,32.33 -19.50,31.85 -19.89,31.21 -20.29,30.57 -20.46,29.84 -20.63,29.10 -20.56,28.36 -20.49,27.61 -20.18,26.92 -19.87,26.24 -19.36,25.68 -18.85,25.13 -18.19,24.77 -17.53,24.41 -16.79,24.28 -16.05,24.15 -15.31,24.26 -14.57,24.37 -13.90,24.72 -13.23,25.06 -12.71,25.60 -12.18,26.14 -11.86,26.82 -11.53,27.50 -11.44,28.24 -11.35,28.99 -11.51,29.73 -11.66,30.46 -12.04,31.11 -12.42,31.76 -12.98,32.25 -13.55,32.75 -14.25,33.03 -14.94,33.32 -15.69,33.37 -16.44,33.42 -17.17,33.23 -17.89,33.03 -18.52,32.62 -19.15,32.21 -19.61,31.61 -20.07,31.02 -20.32,30.31 -20.57,29.60 -20.58,28.85 -20.59,28.10 -20.36,27.38 -20.13,26.67 -20.13,26.67 -20.13,26.67 -18.42,23.65 -16.72,20.63 -15.53,18.68 -14.34,16.73 -12.85,14.26 -11.36,11.79 -9.41,8.03 -7.46,4.27 -5.72,1.00 -3.98,-2.27 -3.65,-2.72 -3.32,-3.16 -2.89,-3.51 -2.47,-3.86 -1.97,-4.10 -1.47,-4.34 -0.93,-4.46 -0.38,-4.57 0.16,-4.55 0.71,-4.53 1.24,-4.38 1.78,-4.23 2.26,-3.95 2.74,-3.68 3.14,-3.30 3.54,-2.91 3.84,-2.45 4.13,-1.98 4.31,-1.46 4.49,-0.93 4.54,-0.38 4.58,0.16 4.50,0.71 4.41,1.25 4.19,1.76 3.98,2.27 3.98,2.27 L 3.98,2.27 Z"></path>
    </g>
    <g transform="translate(573.5997924804688 845.0666898091631) rotate(0 4.79998779296875 28)"
        stroke="none">
        <path fill="#2f9e44"
            d="M 4.18,1.14 Q 4.18,1.14 2.58,6.14 0.98,11.14 -0.69,16.06 -2.38,20.98 -4.57,25.94 -6.76,30.90 -8.65,34.81 -10.53,38.72 -11.02,41.14 -11.51,43.57 -11.66,46.26 -11.81,48.95 -9.54,48.85 -7.28,48.74 -3.02,49.25 1.22,49.75 6.10,50.57 10.98,51.38 14.74,51.68 18.50,51.99 22.16,51.84 25.82,51.69 26.50,51.83 27.18,51.98 27.78,52.34 28.38,52.70 28.83,53.23 29.29,53.76 29.55,54.41 29.81,55.05 29.85,55.75 29.89,56.45 29.70,57.12 29.52,57.80 29.13,58.37 28.74,58.95 28.18,59.38 27.63,59.80 26.97,60.03 26.31,60.25 25.61,60.25 24.91,60.26 24.25,60.03 23.58,59.81 23.03,59.39 22.47,58.97 22.08,58.40 21.68,57.82 21.49,57.15 21.31,56.47 21.34,55.78 21.38,55.08 21.63,54.43 21.89,53.78 22.34,53.25 22.79,52.71 23.39,52.35 23.99,51.99 24.67,51.84 25.35,51.69 26.04,51.76 26.74,51.83 27.37,52.12 28.01,52.42 28.51,52.89 29.02,53.37 29.35,53.99 29.68,54.61 29.80,55.29 29.91,55.98 29.80,56.67 29.69,57.36 29.36,57.98 29.04,58.60 28.53,59.08 28.03,59.56 27.39,59.86 26.76,60.15 26.07,60.23 25.37,60.30 25.37,60.30 25.37,60.30 23.83,60.07 22.28,59.83 20.15,59.54 18.03,59.25 14.04,59.05 10.05,58.85 5.36,58.47 0.66,58.09 -4.62,57.95 -9.90,57.81 -14.23,55.37 -18.55,52.93 -18.96,49.47 -19.36,46.00 -18.80,43.80 -18.24,41.60 -17.22,38.87 -16.20,36.14 -14.53,32.25 -12.85,28.36 -11.01,23.63 -9.16,18.89 -7.83,13.99 -6.50,9.09 -5.34,3.97 -4.18,-1.14 -3.98,-1.62 -3.79,-2.11 -3.48,-2.53 -3.17,-2.95 -2.77,-3.29 -2.37,-3.63 -1.90,-3.86 -1.43,-4.09 -0.92,-4.20 -0.41,-4.31 0.10,-4.30 0.62,-4.29 1.13,-4.15 1.63,-4.01 2.09,-3.76 2.55,-3.50 2.93,-3.15 3.31,-2.79 3.60,-2.35 3.89,-1.92 4.06,-1.42 4.23,-0.93 4.28,-0.41 4.33,0.10 4.26,0.62 4.18,1.14 4.18,1.14 L 4.18,1.14 Z"></path>
    </g>
    <g transform="translate(618.3998413085938 910.6666653951006) rotate(0 7.99993896484375 -16)"
        stroke="none">
        <path fill="#2f9e44"
            d="M -4.52,1.29 Q -4.52,1.29 -5.39,-1.94 -6.26,-5.18 -6.69,-8.74 -7.13,-12.30 -7.25,-15.86 -7.37,-19.42 -5.85,-22.80 -4.34,-26.18 -2.04,-28.60 0.24,-31.03 2.90,-32.69 5.55,-34.36 9.50,-34.72 13.45,-35.07 16.24,-32.64 19.04,-30.21 20.53,-26.29 22.02,-22.37 22.40,-17.68 22.77,-12.99 22.55,-9.42 22.33,-5.85 21.75,-3.46 21.17,-1.08 19.90,0.65 18.64,2.38 16.47,3.40 14.29,4.42 11.42,4.86 8.56,5.31 5.91,4.86 3.27,4.42 3.25,4.53 3.23,4.63 2.40,5.03 1.58,5.42 0.67,5.53 -0.23,5.65 -1.12,5.46 -2.02,5.27 -2.81,4.81 -3.60,4.35 -4.20,3.66 -4.80,2.97 -5.15,2.13 -5.50,1.28 -5.56,0.37 -5.62,-0.53 -5.39,-1.42 -5.16,-2.30 -4.65,-3.07 -4.15,-3.83 -3.43,-4.39 -2.71,-4.96 -1.84,-5.26 -0.98,-5.56 -0.07,-5.58 0.84,-5.59 1.71,-5.31 2.58,-5.02 3.32,-4.48 4.05,-3.94 4.57,-3.19 5.10,-2.43 5.35,-1.56 5.61,-0.68 5.57,0.23 5.53,1.14 5.21,1.99 4.88,2.85 4.29,3.55 3.71,4.26 2.93,4.74 2.15,5.22 1.26,5.43 0.37,5.64 -0.53,5.55 -1.44,5.46 -2.27,5.09 -3.11,4.72 -3.78,4.09 -4.45,3.47 -4.89,2.67 -5.33,1.87 -5.49,0.97 -5.65,0.07 -5.51,-0.83 -5.38,-1.73 -4.96,-2.55 -4.54,-3.36 -3.88,-4.00 -3.23,-4.64 -3.23,-4.64 -3.23,-4.63 2.47,-5.06 8.18,-5.48 10.88,-6.03 13.59,-6.59 13.86,-9.27 14.13,-11.96 13.50,-15.49 12.86,-19.02 11.36,-23.18 9.86,-27.33 8.34,-25.76 6.82,-24.18 4.14,-21.64 1.46,-19.10 1.67,-16.25 1.89,-13.40 2.23,-10.55 2.58,-7.69 3.55,-4.49 4.52,-1.29 4.61,-0.73 4.70,-0.17 4.65,0.39 4.60,0.95 4.42,1.49 4.24,2.03 3.94,2.51 3.63,2.99 3.22,3.38 2.81,3.77 2.32,4.05 1.82,4.33 1.28,4.49 0.73,4.65 0.17,4.67 -0.39,4.69 -0.95,4.57 -1.50,4.46 -2.01,4.21 -2.53,3.97 -2.96,3.60 -3.40,3.24 -3.74,2.79 -4.08,2.33 -4.30,1.81 -4.52,1.29 -4.52,1.29 L -4.52,1.29 Z"></path>
    </g>
    <g transform="translate(709.5997924804688 536.2667020161944) rotate(0 4 29.5999755859375)"
        stroke="none">
        <path fill="#2f9e44"
            d="M 4.26,-0.60 Q 4.26,-0.60 4.72,2.61 5.18,5.83 5.21,10.17 5.23,14.51 5.19,18.63 5.15,22.76 4.21,26.79 3.27,30.81 1.85,34.75 0.43,38.68 -0.52,42.08 -1.48,45.48 -1.70,47.71 -1.92,49.95 0.48,51.65 2.89,53.34 5.23,53.56 7.58,53.77 11.12,53.82 14.65,53.87 15.50,54.05 16.34,54.23 17.08,54.67 17.83,55.11 18.39,55.76 18.95,56.42 19.28,57.22 19.60,58.02 19.65,58.88 19.70,59.74 19.48,60.58 19.25,61.41 18.77,62.13 18.29,62.84 17.60,63.37 16.92,63.90 16.10,64.18 15.29,64.46 14.42,64.46 13.56,64.47 12.74,64.19 11.92,63.92 11.23,63.40 10.54,62.89 10.05,62.17 9.56,61.46 9.33,60.63 9.09,59.80 9.14,58.94 9.18,58.08 9.49,57.27 9.81,56.47 10.36,55.81 10.92,55.15 11.66,54.70 12.39,54.25 13.24,54.06 14.08,53.87 14.94,53.96 15.80,54.05 16.58,54.40 17.37,54.76 18.00,55.35 18.63,55.94 19.03,56.70 19.44,57.46 19.59,58.32 19.73,59.17 19.60,60.02 19.46,60.87 19.06,61.64 18.66,62.40 18.04,63.00 17.41,63.60 16.63,63.96 15.85,64.33 14.99,64.43 14.13,64.52 14.13,64.52 14.14,64.52 10.30,64.11 6.47,63.69 3.18,63.28 -0.11,62.86 -2.90,61.84 -5.69,60.83 -8.04,57.98 -10.38,55.13 -9.99,51.85 -9.60,48.57 -8.96,46.03 -8.32,43.48 -7.26,39.96 -6.20,36.43 -5.03,32.74 -3.85,29.04 -3.02,25.94 -2.20,22.84 -2.40,18.86 -2.61,14.88 -2.98,10.96 -3.34,7.04 -3.80,3.82 -4.26,0.60 -4.27,0.09 -4.28,-0.42 -4.17,-0.93 -4.05,-1.44 -3.82,-1.90 -3.59,-2.37 -3.25,-2.76 -2.92,-3.16 -2.50,-3.46 -2.08,-3.76 -1.59,-3.96 -1.11,-4.15 -0.60,-4.23 -0.09,-4.30 0.42,-4.25 0.94,-4.20 1.43,-4.02 1.92,-3.85 2.35,-3.56 2.78,-3.28 3.13,-2.90 3.49,-2.51 3.74,-2.06 3.99,-1.61 4.12,-1.10 4.26,-0.60 4.26,-0.60 L 4.26,-0.60 Z"></path>
    </g>
    <g
        transform="translate(765.5997924804688 585.8666776021319) rotate(0 -4.79998779296875 16.79998779296875)"
        stroke="none">
        <path fill="#2f9e44"
            d="M 4.27,0.95 Q 4.27,0.95 3.13,5.04 1.98,9.13 0.54,12.95 -0.90,16.77 -1.95,20.42 -2.99,24.06 -3.79,26.79 -4.58,29.52 -5.05,32.06 -5.51,34.60 -5.78,35.22 -6.05,35.85 -6.50,36.36 -6.95,36.87 -7.54,37.20 -8.13,37.54 -8.80,37.67 -9.47,37.80 -10.14,37.71 -10.82,37.62 -11.43,37.32 -12.04,37.02 -12.52,36.54 -13.00,36.06 -13.31,35.45 -13.61,34.84 -13.71,34.17 -13.80,33.49 -13.67,32.82 -13.55,32.16 -13.21,31.56 -12.88,30.97 -12.37,30.51 -11.87,30.06 -11.24,29.79 -10.62,29.52 -9.94,29.46 -9.26,29.40 -8.60,29.57 -7.94,29.73 -7.37,30.09 -6.79,30.46 -6.37,30.99 -5.94,31.52 -5.70,32.15 -5.47,32.79 -5.45,33.47 -5.43,34.15 -5.62,34.80 -5.82,35.45 -6.22,36.01 -6.61,36.56 -7.17,36.96 -7.72,37.36 -8.37,37.56 -9.02,37.76 -9.70,37.74 -10.38,37.73 -11.02,37.49 -11.66,37.26 -12.19,36.84 -12.72,36.41 -13.09,35.84 -13.45,35.27 -13.62,34.61 -13.79,33.95 -13.73,33.27 -13.68,32.59 -13.68,32.59 -13.68,32.59 -12.82,29.76 -11.97,26.94 -10.98,24.57 -9.99,22.20 -9.00,18.19 -8.01,14.18 -6.84,10.80 -5.66,7.42 -4.97,3.23 -4.27,-0.95 -4.09,-1.44 -3.92,-1.94 -3.63,-2.38 -3.34,-2.82 -2.95,-3.18 -2.57,-3.54 -2.10,-3.80 -1.64,-4.05 -1.13,-4.19 -0.62,-4.33 -0.09,-4.34 0.42,-4.35 0.94,-4.24 1.45,-4.12 1.93,-3.89 2.40,-3.66 2.80,-3.31 3.21,-2.97 3.52,-2.55 3.83,-2.12 4.02,-1.63 4.22,-1.14 4.30,-0.62 4.37,-0.10 4.32,0.42 4.27,0.95 4.27,0.95 L 4.27,0.95 Z"></path>
    </g>
    <g
        transform="translate(269.59979248046875 499.46665318806936) rotate(0 -1.5999755859375 24.800018310546875)"
        stroke="none">
        <path fill="#2f9e44"
            d="M 4.30,1.07 Q 4.30,1.07 3.26,4.73 2.22,8.40 -0.36,13.07 -2.94,17.74 -6.03,21.60 -9.11,25.45 -11.15,28.36 -13.19,31.26 -13.72,33.50 -14.25,35.73 -12.58,38.14 -10.92,40.55 -5.27,41.57 0.37,42.58 3.09,42.82 5.81,43.06 8.03,43.64 10.24,44.23 13.36,44.35 16.47,44.47 17.27,44.68 18.08,44.89 18.78,45.35 19.47,45.80 19.99,46.46 20.50,47.11 20.78,47.90 21.06,48.68 21.07,49.51 21.08,50.34 20.83,51.14 20.58,51.93 20.09,52.60 19.59,53.27 18.91,53.75 18.23,54.23 17.43,54.46 16.63,54.70 15.80,54.67 14.97,54.64 14.19,54.34 13.41,54.05 12.77,53.52 12.13,52.99 11.69,52.28 11.25,51.58 11.06,50.77 10.86,49.96 10.94,49.13 11.02,48.30 11.35,47.54 11.69,46.78 12.25,46.16 12.82,45.55 13.55,45.15 14.27,44.75 15.09,44.60 15.91,44.45 16.74,44.57 17.56,44.69 18.30,45.07 19.04,45.45 19.62,46.05 20.21,46.64 20.57,47.39 20.93,48.14 21.03,48.97 21.14,49.79 20.97,50.61 20.80,51.42 20.39,52.14 19.97,52.86 19.34,53.41 18.72,53.96 17.95,54.28 17.18,54.60 16.35,54.66 15.52,54.72 15.52,54.72 15.52,54.72 13.37,54.43 11.22,54.14 8.01,53.08 4.80,52.02 1.71,51.64 -1.37,51.26 -4.99,50.64 -8.61,50.02 -12.56,48.93 -16.51,47.85 -18.72,45.68 -20.93,43.51 -21.77,41.00 -22.60,38.49 -22.05,35.89 -21.49,33.28 -20.23,30.26 -18.98,27.23 -16.81,24.25 -14.64,21.26 -12.14,17.76 -9.65,14.26 -7.77,10.29 -5.90,6.31 -5.10,2.62 -4.30,-1.07 -4.11,-1.57 -3.92,-2.07 -3.61,-2.51 -3.31,-2.95 -2.90,-3.30 -2.50,-3.65 -2.03,-3.90 -1.55,-4.15 -1.03,-4.28 -0.52,-4.40 0.01,-4.40 0.54,-4.40 1.06,-4.27 1.58,-4.14 2.06,-3.89 2.53,-3.64 2.93,-3.28 3.33,-2.93 3.63,-2.48 3.93,-2.04 4.12,-1.54 4.31,-1.04 4.37,-0.51 4.43,0.01 4.37,0.54 4.30,1.07 4.30,1.07 L 4.30,1.07 Z"></path>
    </g>
    <g
        transform="translate(301.59979248046875 547.4667142232256) rotate(0 5.5999755859375 18.399993896484375)"
        stroke="none">
        <path fill="#2f9e44"
            d="M 0,-4.94 Q 0,-4.94 3.22,-4.88 6.45,-4.82 9.51,-4.22 12.56,-3.61 14.72,-1.90 16.88,-0.20 18.22,2.34 19.56,4.88 19.69,8.31 19.81,11.74 18.02,15.19 16.23,18.64 13.81,21.04 11.39,23.44 8.25,25.41 5.12,27.38 2.62,28.39 0.13,29.39 2.40,29.09 4.67,28.79 6.86,29.82 9.04,30.85 9.15,29.89 9.26,28.93 10.10,28.49 10.94,28.05 11.87,27.89 12.81,27.74 13.74,27.90 14.67,28.05 15.51,28.50 16.35,28.94 17.00,29.63 17.65,30.32 18.04,31.18 18.44,32.04 18.54,32.98 18.64,33.92 18.43,34.85 18.23,35.77 17.74,36.58 17.25,37.39 16.52,38.00 15.80,38.62 14.92,38.96 14.04,39.31 13.10,39.36 12.15,39.41 11.24,39.16 10.33,38.90 9.54,38.37 8.76,37.84 8.19,37.08 7.62,36.33 7.32,35.43 7.02,34.53 7.02,33.58 7.02,32.64 7.33,31.74 7.63,30.84 8.20,30.09 8.78,29.34 9.56,28.81 10.35,28.28 11.26,28.03 12.17,27.78 13.12,27.83 14.07,27.88 14.94,28.23 15.82,28.59 16.54,29.20 17.26,29.82 17.75,30.63 18.24,31.44 18.44,32.37 18.64,33.29 18.53,34.23 18.43,35.17 18.03,36.03 17.63,36.89 16.98,37.58 16.33,38.26 16.33,38.26 16.33,38.26 13.10,39.82 9.88,41.39 6.12,40.84 2.35,40.30 -0.30,38.80 -2.97,37.31 -5.22,34.88 -7.47,32.45 -8.15,30.37 -8.83,28.30 -8.34,26.14 -7.86,23.97 -4.12,21.34 -0.39,18.70 3.38,15.83 7.16,12.95 8.50,10.89 9.85,8.83 8.13,6.83 6.42,4.82 3.21,4.88 0,4.94 -0.59,4.86 -1.18,4.79 -1.73,4.58 -2.29,4.37 -2.78,4.03 -3.27,3.69 -3.67,3.25 -4.06,2.80 -4.34,2.27 -4.61,1.75 -4.76,1.17 -4.90,0.59 -4.90,-0.00 -4.90,-0.59 -4.76,-1.17 -4.61,-1.75 -4.34,-2.27 -4.06,-2.80 -3.67,-3.25 -3.27,-3.69 -2.78,-4.03 -2.29,-4.37 -1.73,-4.58 -1.18,-4.79 -0.59,-4.86 0.00,-4.94 0.00,-4.94 L 0,-4.94 Z"></path>
    </g>
    <g
        transform="translate(253.19992065429688 932.2667477925615) rotate(0 10.4000244140625 1.5999755859375)"
        stroke="none">
        <path fill="#e03131"
            d="M -4.22,-3.17 Q -4.22,-3.17 -2.85,-5.05 -1.48,-6.93 0.52,-8.43 2.53,-9.93 5.32,-10.27 8.11,-10.61 10.89,-10.02 13.67,-9.44 16.42,-8.00 19.18,-6.57 22.39,-3.62 25.60,-0.67 26.80,2.75 28.00,6.17 26.89,9.07 25.79,11.97 23.45,13.49 21.11,15.01 18.55,15.31 15.99,15.61 12.68,15.11 9.36,14.62 6.70,14.36 4.03,14.11 -0.02,11.85 -4.09,9.60 -4.64,5.10 -5.20,0.60 -5.15,-0.24 -5.11,-1.09 -4.81,-1.88 -4.50,-2.66 -3.95,-3.31 -3.41,-3.96 -2.69,-4.40 -1.96,-4.84 -1.14,-5.03 -0.31,-5.22 0.52,-5.13 1.36,-5.05 2.13,-4.70 2.90,-4.35 3.52,-3.77 4.14,-3.19 4.54,-2.44 4.94,-1.70 5.09,-0.86 5.23,-0.03 5.10,0.80 4.97,1.63 4.57,2.38 4.18,3.14 3.57,3.72 2.96,4.31 2.19,4.67 1.43,5.03 0.59,5.13 -0.24,5.22 -1.07,5.05 -1.90,4.87 -2.63,4.44 -3.36,4.01 -3.91,3.36 -4.46,2.72 -4.78,1.94 -5.10,1.15 -5.15,0.31 -5.20,-0.53 -4.98,-1.34 -4.76,-2.16 -4.29,-2.87 -3.82,-3.57 -3.15,-4.09 -2.48,-4.60 -1.68,-4.88 -0.87,-5.16 -0.03,-5.16 0.81,-5.17 1.61,-4.90 2.42,-4.64 3.09,-4.13 3.77,-3.62 4.25,-2.92 4.73,-2.22 4.96,-1.41 5.20,-0.59 5.20,-0.59 5.20,-0.60 5.58,3.00 5.96,6.60 5.33,4.49 4.70,2.38 7.94,2.46 11.18,2.54 13.30,3.68 15.43,4.81 13.29,3.16 11.16,1.51 9.08,0.54 7.00,-0.42 5.61,1.37 4.22,3.17 3.78,3.63 3.34,4.08 2.80,4.43 2.26,4.77 1.66,4.97 1.06,5.17 0.42,5.22 -0.20,5.27 -0.83,5.17 -1.46,5.07 -2.05,4.82 -2.63,4.57 -3.14,4.19 -3.65,3.81 -4.06,3.32 -4.46,2.82 -4.73,2.25 -5.01,1.67 -5.13,1.05 -5.26,0.42 -5.24,-0.20 -5.21,-0.84 -5.03,-1.45 -4.86,-2.06 -4.54,-2.61 -4.22,-3.17 -4.22,-3.17 L -4.22,-3.17 Z"></path>
    </g>
    <g
        transform="translate(825.9999694824219 909.866723378499) rotate(0 3.99993896484375 -5.5999755859375)"
        stroke="none">
        <path fill="#e03131"
            d="M -3.69,3.69 Q -3.69,3.69 -5.53,1.85 -7.38,0.02 -9.75,-2.13 -12.12,-4.30 -13.55,-7.50 -14.98,-10.71 -14.13,-13.82 -13.27,-16.94 -11.17,-18.76 -9.07,-20.58 -6.28,-21.43 -3.49,-22.28 -0.62,-22.65 2.23,-23.03 5.51,-22.60 8.79,-22.18 11.49,-20.63 14.18,-19.09 16.35,-16.05 18.52,-13.01 19.82,-10.25 21.12,-7.49 21.80,-4.39 22.48,-1.29 22.17,1.41 21.85,4.12 20.01,6.62 18.17,9.12 15.16,10.31 12.14,11.50 9.89,11.78 7.64,12.05 4.04,10.86 0.43,9.66 -2.18,6.51 -4.80,3.36 -5.21,2.50 -5.63,1.65 -5.74,0.70 -5.86,-0.23 -5.67,-1.16 -5.48,-2.09 -5.00,-2.91 -4.52,-3.73 -3.81,-4.35 -3.09,-4.98 -2.22,-5.34 -1.34,-5.71 -0.39,-5.77 0.55,-5.84 1.46,-5.60 2.38,-5.36 3.18,-4.83 3.97,-4.31 4.55,-3.57 5.14,-2.82 5.46,-1.92 5.77,-1.03 5.79,-0.08 5.80,0.86 5.51,1.76 5.22,2.67 4.65,3.43 4.09,4.20 3.31,4.74 2.54,5.28 1.62,5.55 0.71,5.82 -0.23,5.78 -1.17,5.74 -2.06,5.40 -2.95,5.07 -3.68,4.46 -4.41,3.86 -4.91,3.05 -5.41,2.24 -5.63,1.32 -5.85,0.40 -5.76,-0.54 -5.67,-1.48 -5.28,-2.35 -4.90,-3.22 -4.26,-3.92 -3.61,-4.62 -2.78,-5.07 -1.95,-5.53 -1.01,-5.70 -0.08,-5.86 0.85,-5.72 1.79,-5.58 2.63,-5.15 3.48,-4.72 4.14,-4.04 4.80,-3.36 4.80,-3.36 4.80,-3.36 5.88,-1.60 6.95,0.16 8.86,-1.25 10.77,-2.66 9.83,-4.61 8.90,-6.55 6.24,-8.92 3.59,-11.30 -0.28,-11.63 -4.15,-11.97 -2.06,-9.68 0.02,-7.38 1.85,-5.53 3.69,-3.69 4.07,-3.19 4.46,-2.70 4.72,-2.12 4.98,-1.55 5.09,-0.93 5.21,-0.31 5.17,0.31 5.13,0.94 4.94,1.54 4.76,2.14 4.43,2.68 4.10,3.21 3.66,3.66 3.21,4.10 2.68,4.43 2.14,4.76 1.54,4.94 0.94,5.13 0.31,5.17 -0.31,5.21 -0.93,5.09 -1.55,4.98 -2.12,4.72 -2.70,4.46 -3.19,4.07 -3.69,3.69 -3.69,3.69 L -3.69,3.69 Z"></path>
    </g>
</svg>
