<?xml version="1.0" encoding="UTF-8" standalone="no"?>
<!DOCTYPE svg PUBLIC "-//W3C//DTD SVG 1.1//EN" "http://www.w3.org/Graphics/SVG/1.1/DTD/svg11.dtd">
<svg version="1.1" xmlns="http://www.w3.org/2000/svg" viewBox="0 0 1122.39990234375 840.7999572753906" width="1122.39990234375" height="840.7999572753906"><!-- svg-source:excalidraw --><metadata/><defs><style class="style-fonts">
      </style></defs><g transform="translate(169.9998779296875 162) rotate(0 391.199951171875 249.59999084472656)" stroke="none"><path fill="#1e1e1e" d="M 3.10,-0.31 Q 3.10,-0.31 3.50,4.29 3.89,8.90 4.04,14.17 4.19,19.44 4.24,27.19 4.29,34.95 4.30,44.68 4.31,54.42 3.84,68.26 3.38,82.10 3.18,98.97 2.97,115.84 3.80,137.22 4.63,158.59 4.98,178.77 5.33,198.96 5.48,220.88 5.63,242.80 5.69,261.31 5.75,279.82 4.85,295.59 3.95,311.36 2.65,324.52 1.34,337.68 0.33,350.13 -0.67,362.57 -1.10,371.97 -1.53,381.36 -1.71,389.48 -1.89,397.60 -1.97,404.73 -2.05,411.86 -2.08,417.19 -2.12,422.52 -2.10,426.63 -2.08,430.73 -1.96,434.32 -1.83,437.90 -1.61,440.34 -1.39,442.79 -1.20,445.20 -1.02,447.62 -0.70,450.66 -0.38,453.70 5.13,454.51 10.64,455.32 25.86,455.83 41.08,456.34 70.72,457.57 100.35,458.81 143.89,464.00 187.42,469.19 237.62,476.04 287.83,482.88 339.88,486.73 391.92,490.58 440.19,490.40 488.46,490.22 527.78,487.41 567.11,484.59 595.37,482.49 623.62,480.38 644.38,479.03 665.14,477.69 679.52,477.12 693.89,476.55 705.07,476.31 716.25,476.08 726.13,476.44 736.00,476.80 743.37,476.96 750.73,477.12 755.24,477.18 759.75,477.25 762.60,477.05 765.44,476.85 767.93,477.14 770.41,477.44 772.92,477.45 775.42,477.47 777.89,477.41 780.37,477.36 783.01,477.14 785.66,476.92 786.21,477.00 786.77,477.08 787.29,477.29 787.81,477.50 788.26,477.83 788.71,478.16 789.08,478.59 789.44,479.02 789.69,479.52 789.94,480.02 790.06,480.57 790.18,481.12 790.17,481.68 790.15,482.24 790.01,482.78 789.86,483.33 789.59,483.82 789.31,484.31 788.93,484.72 788.55,485.13 788.08,485.44 787.61,485.74 787.08,485.93 786.55,486.12 785.99,486.17 785.44,486.23 783.41,485.05 781.39,483.88 780.21,482.81 779.03,481.75 778.58,481.12 778.13,480.50 777.91,479.76 777.68,479.03 777.71,478.26 777.73,477.49 778.00,476.77 778.26,476.05 778.75,475.45 779.23,474.85 779.88,474.44 780.53,474.02 781.27,473.84 782.02,473.66 782.79,473.72 783.55,473.79 784.26,474.09 784.96,474.40 785.54,474.91 786.11,475.43 786.48,476.10 786.86,476.77 787.00,477.52 787.15,478.28 787.04,479.04 786.93,479.80 786.59,480.49 786.25,481.18 785.70,481.72 785.16,482.26 784.47,482.60 783.78,482.94 783.02,483.04 782.25,483.15 781.50,483.00 780.74,482.85 780.08,482.47 779.41,482.09 778.90,481.52 778.38,480.94 778.08,480.24 777.78,479.53 777.72,478.76 777.66,478.00 777.85,477.25 778.03,476.51 778.45,475.86 778.87,475.21 779.47,474.73 780.07,474.25 780.79,473.99 781.51,473.73 782.28,473.71 783.05,473.69 783.78,473.92 784.52,474.14 785.14,474.59 785.76,475.04 785.76,475.04 785.76,475.04 785.71,475.98 785.65,476.92 786.21,477.00 786.77,477.08 787.29,477.29 787.81,477.50 788.26,477.83 788.71,478.16 789.08,478.59 789.44,479.02 789.69,479.52 789.94,480.02 790.06,480.57 790.18,481.12 790.17,481.68 790.15,482.24 790.01,482.78 789.86,483.32 789.59,483.82 789.31,484.31 788.93,484.72 788.55,485.13 788.08,485.44 787.61,485.74 787.08,485.93 786.55,486.12 786.00,486.17 785.44,486.23 782.77,485.90 780.09,485.58 777.48,485.36 774.86,485.13 770.11,484.09 765.35,483.06 762.52,482.80 759.68,482.55 755.15,482.49 750.62,482.43 743.22,482.28 735.81,482.14 726.09,481.79 716.37,481.44 705.24,481.70 694.11,481.96 679.81,482.55 665.50,483.15 644.77,484.53 624.04,485.92 595.78,488.08 567.52,490.25 528.00,493.15 488.49,496.05 439.99,496.33 391.49,496.61 339.24,492.89 286.98,489.17 236.81,482.53 186.64,475.89 143.37,470.99 100.10,466.09 70.51,465.24 40.93,464.38 25.05,464.30 9.16,464.23 4.78,463.78 0.39,463.34 -3.34,461.87 -7.08,460.39 -8.15,457.05 -9.21,453.70 -8.89,450.66 -8.57,447.62 -8.38,445.20 -8.19,442.78 -7.97,440.33 -7.74,437.89 -7.61,434.30 -7.47,430.71 -7.42,426.60 -7.37,422.49 -7.34,417.15 -7.31,411.80 -7.23,404.65 -7.15,397.49 -6.97,389.30 -6.79,381.12 -6.36,371.63 -5.92,362.15 -4.91,349.65 -3.90,337.16 -2.61,324.11 -1.31,311.06 -0.42,295.45 0.45,279.84 0.38,261.34 0.32,242.83 0.16,220.94 0.00,199.05 -0.35,178.93 -0.71,158.80 -1.56,137.29 -2.41,115.78 -2.24,98.85 -2.06,81.92 -1.64,68.18 -1.21,54.44 -1.27,44.72 -1.34,35.01 -1.45,27.33 -1.57,19.65 -1.81,14.57 -2.05,9.49 -2.58,4.90 -3.10,0.31 -3.10,-0.06 -3.09,-0.44 -2.99,-0.80 -2.89,-1.16 -2.71,-1.49 -2.53,-1.82 -2.27,-2.10 -2.02,-2.38 -1.70,-2.58 -1.39,-2.79 -1.03,-2.92 -0.68,-3.04 -0.30,-3.08 0.06,-3.12 0.43,-3.07 0.81,-3.01 1.16,-2.87 1.51,-2.73 1.81,-2.51 2.12,-2.29 2.36,-2.00 2.60,-1.71 2.77,-1.38 2.94,-1.04 3.02,-0.67 3.10,-0.31 3.10,-0.31 L 3.10,-0.31 Z"/></g><g transform="translate(123.5999755859375 10) rotate(0 20.79998779296875 38.40000915527344)" stroke="none"><path fill="#1e1e1e" d="M 3.34,-0.78 Q 3.34,-0.78 5.07,7.05 6.81,14.90 8.91,26.59 11.00,38.28 12.32,45.52 13.64,52.75 14.65,58.13 15.65,63.50 17.06,67.16 18.47,70.82 18.50,71.17 18.52,71.52 18.46,71.88 18.40,72.23 18.26,72.55 18.12,72.88 17.90,73.16 17.69,73.44 17.41,73.66 17.13,73.89 16.81,74.04 16.49,74.19 16.14,74.25 15.79,74.32 15.43,74.30 15.08,74.29 14.74,74.18 14.40,74.08 14.09,73.90 13.78,73.72 13.53,73.47 13.28,73.22 13.09,72.92 12.90,72.62 12.79,72.28 12.68,71.94 12.01,67.20 11.34,62.46 10.00,56.63 8.66,50.79 8.10,45.88 7.53,40.96 7.32,36.51 7.11,32.05 8.42,27.84 9.72,23.62 12.33,19.85 14.94,16.08 19.13,13.38 23.32,10.68 27.49,9.09 31.67,7.51 34.82,7.09 37.97,6.66 40.92,8.05 43.88,9.43 46.23,12.28 48.58,15.13 49.33,18.02 50.07,20.91 48.41,24.90 46.75,28.89 43.06,30.86 39.37,32.82 33.39,33.21 27.41,33.60 20.52,32.23 13.63,30.86 8.61,29.77 3.60,28.68 0.62,28.42 -2.35,28.16 -4.63,28.03 -6.92,27.90 -7.53,27.72 -8.14,27.53 -8.66,27.16 -9.18,26.79 -9.55,26.27 -9.92,25.76 -10.11,25.15 -10.30,24.54 -10.29,23.90 -10.27,23.26 -10.05,22.66 -9.83,22.06 -9.44,21.56 -9.04,21.07 -8.50,20.72 -7.96,20.38 -7.34,20.22 -6.73,20.06 -6.09,20.11 -5.45,20.16 -4.87,20.42 -4.28,20.67 -3.80,21.09 -3.33,21.52 -3.01,22.07 -2.70,22.63 -2.57,23.25 -2.45,23.88 -2.54,24.51 -2.62,25.14 -2.90,25.72 -3.19,26.29 -3.64,26.74 -4.09,27.19 -4.66,27.48 -5.23,27.76 -5.86,27.85 -6.49,27.94 -7.12,27.82 -7.75,27.70 -8.30,27.39 -8.86,27.08 -9.29,26.60 -9.71,26.13 -9.97,25.54 -10.22,24.96 -10.27,24.32 -10.33,23.68 -10.17,23.06 -10.02,22.45 -9.68,21.91 -9.34,21.37 -8.84,20.97 -8.34,20.57 -7.75,20.34 -7.15,20.12 -6.51,20.10 -5.87,20.09 -5.87,20.09 -5.87,20.09 -3.64,20.56 -1.40,21.04 1.72,21.59 4.85,22.15 9.88,22.98 14.92,23.81 20.85,24.79 26.78,25.77 33.46,24.90 40.15,24.02 41.15,21.70 42.16,19.37 40.95,17.43 39.75,15.48 36.67,14.15 33.58,12.81 29.95,14.16 26.32,15.51 22.96,17.54 19.61,19.56 17.46,22.60 15.31,25.63 14.07,28.76 12.83,31.88 13.12,36.05 13.42,40.22 14.05,44.77 14.67,49.33 16.14,54.94 17.60,60.56 18.04,65.69 18.47,70.82 18.50,71.17 18.52,71.52 18.46,71.87 18.40,72.23 18.26,72.55 18.12,72.88 17.90,73.16 17.69,73.44 17.41,73.66 17.13,73.89 16.81,74.04 16.49,74.19 16.14,74.25 15.79,74.32 15.43,74.30 15.08,74.29 14.74,74.18 14.40,74.08 14.09,73.90 13.78,73.72 13.53,73.47 13.28,73.22 13.09,72.92 12.90,72.62 12.79,72.28 12.68,71.94 11.37,68.27 10.05,64.60 8.96,59.23 7.87,53.86 6.43,46.63 4.99,39.40 2.77,27.89 0.54,16.37 -1.39,8.58 -3.34,0.78 -3.39,0.37 -3.43,-0.03 -3.38,-0.44 -3.32,-0.85 -3.17,-1.24 -3.02,-1.62 -2.78,-1.96 -2.54,-2.30 -2.23,-2.57 -1.92,-2.84 -1.55,-3.03 -1.18,-3.22 -0.78,-3.32 -0.37,-3.41 0.03,-3.41 0.45,-3.40 0.85,-3.30 1.25,-3.20 1.61,-3.00 1.98,-2.80 2.29,-2.53 2.59,-2.25 2.82,-1.90 3.06,-1.56 3.20,-1.17 3.34,-0.78 3.34,-0.78 L 3.34,-0.78 Z"/></g><g transform="translate(1059.599853515625 664.4000549316406) rotate(0 5.60009765625 -23.20001220703125)" stroke="none"><path fill="#1e1e1e" d="M -3.13,2.16 Q -3.13,2.16 -7.14,-3.90 -11.15,-9.97 -14.17,-14.40 -17.20,-18.82 -19.49,-23.20 -21.78,-27.57 -23.65,-31.21 -25.52,-34.85 -26.61,-36.98 -27.69,-39.10 -27.18,-42.52 -26.66,-45.95 -24.27,-47.58 -21.88,-49.21 -16.31,-49.46 -10.75,-49.71 -3.96,-49.69 2.82,-49.67 9.43,-49.60 16.04,-49.53 21.78,-46.99 27.51,-44.44 31.08,-39.76 34.65,-35.09 36.12,-30.59 37.59,-26.09 38.30,-22.31 39.01,-18.53 38.97,-15.60 38.94,-12.68 37.76,-10.29 36.58,-7.90 33.27,-5.75 29.97,-3.59 26.42,-2.66 22.87,-1.73 19.65,-1.76 16.43,-1.80 12.81,-1.78 9.19,-1.76 5.99,0.80 2.79,3.37 2.17,3.73 1.56,4.09 0.87,4.23 0.17,4.37 -0.52,4.29 -1.23,4.20 -1.86,3.89 -2.50,3.59 -3.01,3.09 -3.52,2.60 -3.84,1.97 -4.17,1.34 -4.27,0.64 -4.38,-0.06 -4.25,-0.75 -4.13,-1.45 -3.79,-2.07 -3.45,-2.69 -2.93,-3.18 -2.40,-3.66 -1.76,-3.94 -1.11,-4.23 -0.40,-4.30 0.29,-4.37 0.98,-4.21 1.67,-4.04 2.28,-3.67 2.88,-3.30 3.33,-2.75 3.78,-2.20 4.03,-1.54 4.29,-0.88 4.32,-0.17 4.34,0.53 4.15,1.21 3.95,1.89 3.54,2.47 3.13,3.05 2.56,3.47 1.99,3.89 1.32,4.11 0.64,4.33 -0.06,4.32 -0.76,4.31 -1.43,4.07 -2.10,3.84 -2.66,3.40 -3.22,2.96 -3.61,2.37 -4.00,1.78 -4.18,1.09 -4.36,0.41 -4.31,-0.29 -4.26,-1.00 -3.99,-1.65 -3.72,-2.31 -3.25,-2.84 -2.79,-3.37 -2.79,-3.37 -2.79,-3.37 2.01,-7.26 6.81,-11.14 9.80,-11.01 12.79,-10.87 16.99,-10.35 21.19,-9.82 23.64,-10.21 26.10,-10.60 28.25,-11.56 30.41,-12.51 31.68,-15.07 32.94,-17.63 32.54,-20.99 32.13,-24.36 30.99,-28.02 29.84,-31.68 27.26,-35.38 24.68,-39.08 20.26,-41.08 15.85,-43.09 9.40,-42.90 2.96,-42.72 -3.64,-42.43 -10.26,-42.14 -15.97,-41.88 -21.69,-41.62 -20.90,-39.64 -20.11,-37.67 -18.23,-34.09 -16.35,-30.51 -14.13,-26.56 -11.90,-22.61 -8.65,-18.28 -5.40,-13.94 -1.13,-8.05 3.13,-2.16 3.34,-1.76 3.55,-1.35 3.66,-0.90 3.78,-0.46 3.78,-0.00 3.78,0.45 3.67,0.89 3.56,1.34 3.35,1.75 3.13,2.15 2.83,2.50 2.52,2.84 2.15,3.10 1.77,3.36 1.34,3.53 0.91,3.69 0.46,3.75 0.00,3.80 -0.45,3.75 -0.90,3.69 -1.33,3.53 -1.76,3.37 -2.14,3.11 -2.52,2.85 -2.82,2.51 -3.13,2.16 -3.13,2.16 L -3.13,2.16 Z"/></g><g transform="translate(1070.800048828125 640.3999938964844) rotate(0 20.7999267578125 36.000030517578125)" stroke="none"><path fill="#1e1e1e" d="M 3.42,-2.05 Q 3.42,-2.05 6.02,2.63 8.63,7.33 13.38,15.82 18.13,24.30 23.35,34.41 28.58,44.53 32.57,51.52 36.56,58.51 38.72,61.91 40.87,65.30 42.05,68.08 43.22,70.86 42.37,73.22 41.51,75.59 41.11,76.03 40.71,76.48 40.19,76.77 39.67,77.06 39.08,77.18 38.49,77.29 37.90,77.21 37.31,77.13 36.77,76.86 36.24,76.59 35.81,76.17 35.39,75.75 35.13,75.21 34.86,74.68 34.78,74.08 34.70,73.49 34.82,72.90 34.93,72.32 35.22,71.80 35.52,71.28 35.96,70.88 36.41,70.48 36.96,70.24 37.51,70.01 38.10,69.96 38.70,69.91 39.28,70.06 39.86,70.20 40.36,70.53 40.87,70.85 41.24,71.31 41.61,71.78 41.82,72.34 42.02,72.90 42.04,73.50 42.06,74.10 41.88,74.67 41.70,75.24 41.35,75.73 41.00,76.21 40.52,76.56 40.03,76.91 39.46,77.08 38.89,77.26 38.29,77.24 37.69,77.22 37.13,77.02 36.57,76.81 36.11,76.43 35.64,76.06 35.32,75.55 35.00,75.05 34.86,74.47 34.71,73.89 34.76,73.29 34.81,72.70 35.05,72.15 35.28,71.60 35.28,71.60 35.28,71.60 35.55,70.06 35.83,68.52 33.59,65.03 31.35,61.54 27.17,54.51 22.99,47.48 17.65,37.57 12.31,27.67 7.36,19.36 2.40,11.06 -0.50,6.56 -3.42,2.05 -3.62,1.61 -3.81,1.17 -3.90,0.70 -3.98,0.22 -3.95,-0.25 -3.92,-0.73 -3.78,-1.19 -3.63,-1.65 -3.38,-2.06 -3.13,-2.47 -2.79,-2.81 -2.45,-3.15 -2.04,-3.40 -1.62,-3.64 -1.16,-3.79 -0.70,-3.93 -0.22,-3.95 0.25,-3.98 0.72,-3.89 1.20,-3.81 1.63,-3.61 2.07,-3.41 2.45,-3.11 2.83,-2.81 3.13,-2.43 3.42,-2.05 3.42,-2.05 L 3.42,-2.05 Z"/></g><g transform="translate(19.5999755859375 466.0000305175781) rotate(0 12.79998779296875 22.399993896484375)" stroke="none"><path fill="#1e1e1e" d="M 3.74,-0.31 Q 3.74,-0.31 4.05,5.22 4.36,10.75 4.44,17.78 4.53,24.82 5.87,30.20 7.20,35.59 8.34,38.80 9.48,42.02 10.61,43.39 11.73,44.76 11.81,45.20 11.90,45.63 11.88,46.07 11.85,46.52 11.73,46.94 11.60,47.36 11.38,47.75 11.15,48.13 10.84,48.44 10.53,48.76 10.15,48.99 9.78,49.23 9.36,49.36 8.94,49.50 8.49,49.53 8.05,49.56 7.62,49.49 7.18,49.41 6.77,49.23 6.37,49.05 6.02,48.79 5.67,48.52 5.39,48.17 5.11,47.82 4.93,47.42 4.74,47.02 4.78,42.28 4.83,37.54 4.83,33.17 4.83,28.80 4.84,24.66 4.85,20.52 5.33,16.28 5.82,12.04 6.50,7.94 7.19,3.84 7.88,1.21 8.58,-1.42 10.50,-3.28 12.41,-5.13 15.34,-5.27 18.27,-5.41 20.92,-3.09 23.57,-0.78 25.36,2.13 27.14,5.04 28.12,8.13 29.10,11.22 28.40,14.52 27.69,17.82 25.41,19.58 23.12,21.33 19.58,21.37 16.04,21.41 12.87,20.81 9.70,20.20 7.50,19.44 5.30,18.69 0.44,10.17 -4.42,1.65 -4.57,0.90 -4.71,0.15 -4.61,-0.60 -4.52,-1.36 -4.18,-2.04 -3.84,-2.73 -3.31,-3.27 -2.77,-3.82 -2.09,-4.16 -1.40,-4.50 -0.65,-4.61 0.10,-4.72 0.85,-4.58 1.60,-4.44 2.27,-4.06 2.93,-3.69 3.45,-3.12 3.96,-2.56 4.27,-1.86 4.57,-1.16 4.64,-0.40 4.70,0.35 4.52,1.10 4.34,1.84 3.93,2.48 3.53,3.13 2.93,3.61 2.34,4.09 1.62,4.36 0.91,4.63 0.14,4.65 -0.61,4.68 -1.34,4.46 -2.07,4.24 -2.69,3.79 -3.32,3.35 -3.77,2.73 -4.21,2.11 -4.44,1.38 -4.67,0.66 -4.65,-0.10 -4.64,-0.86 -4.38,-1.58 -4.12,-2.30 -3.64,-2.90 -3.17,-3.49 -2.52,-3.91 -1.88,-4.32 -1.14,-4.51 -0.40,-4.70 0.35,-4.64 1.11,-4.58 1.82,-4.28 2.52,-3.99 3.09,-3.48 3.66,-2.97 4.04,-2.31 4.42,-1.64 4.42,-1.65 4.42,-1.65 8.02,4.26 11.62,10.18 15.51,9.87 19.40,9.56 17.67,5.51 15.93,1.46 14.61,3.15 13.29,4.84 12.69,8.78 12.08,12.72 11.69,16.58 11.29,20.44 11.41,24.52 11.53,28.61 11.78,32.78 12.03,36.94 11.88,40.85 11.73,44.76 11.81,45.20 11.90,45.63 11.88,46.07 11.86,46.52 11.73,46.94 11.60,47.36 11.38,47.75 11.15,48.13 10.84,48.44 10.53,48.76 10.15,48.99 9.78,49.23 9.36,49.36 8.94,49.50 8.49,49.53 8.05,49.56 7.62,49.49 7.18,49.41 6.77,49.23 6.37,49.05 6.02,48.79 5.67,48.52 5.39,48.17 5.11,47.82 4.93,47.42 4.74,47.02 4.02,45.55 3.31,44.07 2.29,40.59 1.26,37.11 -0.32,31.07 -1.91,25.04 -2.21,18.18 -2.52,11.32 -3.13,5.81 -3.74,0.31 -3.72,-0.14 -3.71,-0.59 -3.58,-1.02 -3.46,-1.46 -3.23,-1.85 -3.00,-2.24 -2.69,-2.57 -2.38,-2.90 -2.00,-3.14 -1.61,-3.39 -1.19,-3.53 -0.76,-3.67 -0.30,-3.71 0.14,-3.75 0.58,-3.68 1.03,-3.61 1.45,-3.43 1.87,-3.25 2.23,-2.98 2.59,-2.71 2.88,-2.36 3.17,-2.01 3.36,-1.60 3.56,-1.19 3.65,-0.75 3.74,-0.31 3.74,-0.31 L 3.74,-0.31 Z"/></g><g transform="translate(62.7999267578125 526.8000183105469) rotate(0 14.4000244140625 -14.399993896484375)" stroke="none"><path fill="#1e1e1e" d="M -4.33,-0.61 Q -4.33,-0.61 -3.86,-3.84 -3.40,-7.07 -2.16,-10.67 -0.91,-14.27 1.25,-18.17 3.43,-22.08 7.26,-25.14 11.10,-28.21 14.80,-28.78 18.50,-29.34 22.04,-27.83 25.58,-26.32 28.21,-22.85 30.85,-19.39 32.37,-16.56 33.90,-13.73 34.58,-10.14 35.26,-6.55 33.65,-3.56 32.03,-0.58 28.18,0.75 24.34,2.09 19.77,1.77 15.20,1.44 10.85,0.19 6.50,-1.04 4.03,-1.32 1.55,-1.60 -0.75,-2.45 -3.07,-3.30 -3.54,-4.16 -4.01,-5.02 -4.51,-5.30 -5.01,-5.58 -5.43,-5.97 -5.85,-6.36 -6.17,-6.85 -6.48,-7.33 -6.67,-7.87 -6.86,-8.41 -6.92,-8.98 -6.97,-9.55 -6.89,-10.12 -6.80,-10.69 -6.59,-11.22 -6.37,-11.75 -6.03,-12.22 -5.69,-12.68 -5.25,-13.05 -4.82,-13.42 -4.30,-13.67 -3.79,-13.93 -3.22,-14.05 -2.66,-14.17 -2.09,-14.16 -1.52,-14.14 -0.96,-13.99 -0.41,-13.84 1.74,-7.38 3.91,-0.91 3.95,-0.26 4.00,0.37 3.83,1.00 3.66,1.63 3.31,2.17 2.95,2.72 2.44,3.12 1.93,3.52 1.31,3.73 0.70,3.95 0.05,3.96 -0.59,3.97 -1.21,3.77 -1.83,3.57 -2.35,3.18 -2.87,2.80 -3.25,2.26 -3.62,1.73 -3.80,1.11 -3.98,0.48 -3.96,-0.16 -3.93,-0.81 -3.70,-1.41 -3.47,-2.02 -3.05,-2.52 -2.64,-3.02 -2.09,-3.36 -1.53,-3.71 -0.90,-3.86 -0.27,-4.00 0.37,-3.94 1.02,-3.88 1.61,-3.62 2.20,-3.35 2.68,-2.91 3.16,-2.47 3.47,-1.90 3.78,-1.33 3.90,-0.69 4.01,-0.05 3.92,0.58 3.82,1.23 3.52,1.80 3.23,2.38 2.76,2.84 2.29,3.29 1.71,3.57 1.12,3.85 0.48,3.93 -0.16,4.01 -0.79,3.88 -1.43,3.75 -1.99,3.42 -2.55,3.09 -2.98,2.60 -3.41,2.11 -3.66,1.51 -3.91,0.91 -3.91,0.91 -3.91,0.91 -3.96,-2.05 -4.01,-5.02 -4.51,-5.30 -5.01,-5.58 -5.43,-5.97 -5.85,-6.36 -6.17,-6.84 -6.48,-7.33 -6.67,-7.87 -6.86,-8.41 -6.92,-8.98 -6.97,-9.55 -6.89,-10.12 -6.80,-10.69 -6.59,-11.22 -6.37,-11.75 -6.03,-12.21 -5.69,-12.68 -5.25,-13.05 -4.82,-13.42 -4.30,-13.67 -3.79,-13.93 -3.23,-14.05 -2.66,-14.17 -2.09,-14.16 -1.52,-14.14 -0.96,-13.99 -0.41,-13.84 1.27,-11.89 2.96,-9.93 5.70,-9.36 8.45,-8.79 12.05,-8.04 15.65,-7.29 18.97,-7.24 22.29,-7.20 24.26,-8.57 26.23,-9.94 25.14,-12.30 24.05,-14.67 22.70,-16.93 21.35,-19.19 18.15,-20.62 14.96,-22.06 12.62,-20.17 10.28,-18.28 8.75,-14.86 7.22,-11.43 6.23,-8.62 5.24,-5.80 4.78,-2.59 4.33,0.61 4.19,1.12 4.06,1.63 3.80,2.10 3.55,2.56 3.19,2.95 2.83,3.33 2.39,3.62 1.95,3.92 1.45,4.09 0.95,4.27 0.43,4.32 -0.09,4.37 -0.61,4.30 -1.13,4.22 -1.62,4.03 -2.11,3.83 -2.54,3.52 -2.97,3.21 -3.31,2.81 -3.65,2.41 -3.89,1.93 -4.12,1.46 -4.24,0.95 -4.35,0.43 -4.34,-0.09 -4.33,-0.61 -4.33,-0.61 L -4.33,-0.61 Z"/></g><g transform="translate(11.5999755859375 227.60000610351562) rotate(0 9.5999755859375 3.20001220703125)" stroke="none"><path fill="#1e1e1e" d="M 4.52,0 Q 4.52,0 4.27,5.05 4.02,10.11 4.08,13.19 4.14,16.27 3.77,18.87 3.40,21.47 4.01,23.10 4.63,24.73 4.67,25.32 4.71,25.90 4.60,26.48 4.50,27.06 4.26,27.60 4.02,28.14 3.66,28.60 3.30,29.07 2.84,29.44 2.38,29.80 1.84,30.04 1.30,30.29 0.73,30.40 0.15,30.51 -0.43,30.47 -1.02,30.44 -1.58,30.27 -2.15,30.10 -2.65,29.79 -3.16,29.49 -3.57,29.08 -3.99,28.66 -4.30,28.16 -4.61,27.66 -4.78,27.10 -4.96,26.53 -4.89,21.98 -4.82,17.43 -4.69,13.80 -4.55,10.16 -4.01,6.47 -3.47,2.77 -2.22,-0.59 -0.97,-3.96 1.21,-6.72 3.40,-9.48 4.91,-11.91 6.42,-14.35 8.16,-16.68 9.90,-19.01 15.50,-21.09 21.11,-23.17 23.34,-19.08 25.56,-15.00 24.40,-10.67 23.23,-6.35 20.37,-5.27 17.52,-4.20 14.72,-4.10 11.92,-4.00 8.17,-2.71 4.42,-1.42 5.09,-0.76 5.75,-0.10 5.62,0.81 5.48,1.74 5.06,2.57 4.64,3.40 3.97,4.05 3.31,4.70 2.47,5.11 1.63,5.51 0.71,5.63 -0.21,5.75 -1.12,5.56 -2.03,5.38 -2.84,4.91 -3.64,4.45 -4.26,3.75 -4.87,3.05 -5.23,2.19 -5.59,1.33 -5.66,0.40 -5.73,-0.52 -5.49,-1.42 -5.26,-2.32 -4.75,-3.10 -4.24,-3.88 -3.51,-4.46 -2.78,-5.03 -1.90,-5.35 -1.03,-5.66 -0.09,-5.67 0.83,-5.69 1.71,-5.41 2.60,-5.13 3.35,-4.58 4.10,-4.03 4.64,-3.26 5.18,-2.50 5.44,-1.61 5.71,-0.72 5.67,0.20 5.64,1.13 5.31,2.01 4.98,2.88 4.39,3.60 3.80,4.32 3.01,4.81 2.22,5.30 1.31,5.52 0.41,5.74 -0.51,5.65 -1.44,5.57 -2.29,5.19 -3.14,4.81 -3.83,4.19 -4.52,3.56 -4.97,2.74 -5.42,1.93 -5.58,1.01 -5.75,0.09 -5.75,0.10 -5.75,0.10 -5.17,-3.63 -4.59,-7.36 -2.53,-9.44 -0.47,-11.52 2.57,-12.91 5.62,-14.31 8.54,-14.89 11.45,-15.47 13.39,-13.67 15.33,-11.86 14.90,-14.29 14.46,-16.72 15.85,-14.97 17.23,-13.22 15.68,-11.38 14.12,-9.54 10.70,-5.02 7.27,-0.50 6.28,1.76 5.30,4.03 4.91,7.11 4.53,10.19 4.64,13.84 4.76,17.49 4.69,21.11 4.63,24.73 4.67,25.32 4.71,25.90 4.60,26.48 4.50,27.06 4.26,27.60 4.02,28.14 3.66,28.60 3.30,29.07 2.84,29.43 2.38,29.80 1.84,30.04 1.30,30.29 0.73,30.40 0.15,30.51 -0.43,30.47 -1.02,30.44 -1.58,30.27 -2.14,30.10 -2.65,29.79 -3.16,29.49 -3.57,29.08 -3.99,28.66 -4.30,28.16 -4.61,27.66 -4.78,27.10 -4.96,26.54 -4.97,25.46 -4.98,24.38 -4.56,20.31 -4.14,16.24 -4.08,13.18 -4.02,10.11 -4.27,5.05 -4.52,0 -4.46,-0.54 -4.39,-1.08 -4.20,-1.59 -4.00,-2.10 -3.69,-2.55 -3.38,-3.00 -2.97,-3.36 -2.57,-3.72 -2.08,-3.97 -1.60,-4.23 -1.07,-4.36 -0.54,-4.49 0.00,-4.49 0.54,-4.49 1.07,-4.36 1.60,-4.23 2.08,-3.97 2.57,-3.72 2.98,-3.36 3.38,-3.00 3.69,-2.55 4.00,-2.10 4.20,-1.59 4.39,-1.08 4.46,-0.54 4.52,0.00 4.52,0.00 L 4.52,0 Z"/></g><g transform="translate(56.39990234375 238.80001831054688) rotate(0 0.800048828125 12)" stroke="none"><path fill="#1e1e1e" d="M 4.96,0 Q 4.96,0 4.97,2.75 4.99,5.50 5.44,7.61 5.89,9.73 6.16,12.44 6.42,15.15 6.72,19.50 7.03,23.85 6.91,24.72 6.79,25.59 6.40,26.38 6.01,27.16 5.39,27.79 4.76,28.41 3.98,28.80 3.19,29.19 2.32,29.31 1.45,29.43 0.59,29.26 -0.27,29.09 -1.03,28.66 -1.80,28.23 -2.38,27.58 -2.97,26.92 -3.32,26.11 -3.67,25.31 -3.74,24.43 -3.81,23.55 -3.60,22.70 -3.39,21.85 -2.91,21.11 -2.44,20.37 -1.75,19.82 -1.07,19.27 -0.24,18.96 0.57,18.66 1.45,18.64 2.33,18.61 3.17,18.87 4.01,19.13 4.72,19.64 5.44,20.15 5.95,20.87 6.46,21.58 6.72,22.42 6.98,23.26 6.95,24.14 6.93,25.02 6.63,25.84 6.32,26.67 5.77,27.35 5.22,28.04 4.48,28.51 3.74,28.99 2.89,29.20 2.04,29.41 1.16,29.34 0.28,29.27 -0.51,28.92 -1.32,28.57 -1.98,27.98 -2.63,27.40 -3.06,26.63 -3.49,25.87 -3.66,25.00 -3.83,24.14 -3.83,24.14 -3.83,24.14 -3.81,20.05 -3.80,15.96 -3.92,13.74 -4.05,11.51 -4.52,8.52 -4.99,5.53 -4.97,2.76 -4.96,0 -4.89,-0.59 -4.82,-1.18 -4.61,-1.74 -4.39,-2.30 -4.05,-2.80 -3.71,-3.29 -3.27,-3.69 -2.82,-4.08 -2.29,-4.36 -1.76,-4.64 -1.17,-4.78 -0.59,-4.93 0.00,-4.93 0.59,-4.93 1.18,-4.78 1.76,-4.64 2.29,-4.36 2.82,-4.08 3.27,-3.69 3.71,-3.29 4.05,-2.80 4.39,-2.30 4.61,-1.74 4.82,-1.18 4.89,-0.59 4.96,0.00 4.96,0.00 L 4.96,0 Z"/></g><g transform="translate(32.39990234375 397.1999816894531) rotate(0 12.800048828125 -44.79998779296875)" stroke="none"><path fill="#1e1e1e" d="M -3.56,0 Q -3.56,0 -3.43,-5.97 -3.31,-11.95 -3.21,-19.10 -3.12,-26.24 -2.59,-32.60 -2.06,-38.97 -1.81,-44.33 -1.57,-49.69 -1.48,-53.81 -1.39,-57.93 -0.85,-62.57 -0.31,-67.22 -0.09,-72.26 0.13,-77.31 0.65,-79.98 1.16,-82.66 -0.55,-78.35 -2.28,-74.04 -4.44,-70.91 -6.61,-67.78 -9.19,-65.54 -11.77,-63.31 -13.11,-61.49 -14.45,-59.67 -14.91,-59.37 -15.37,-59.07 -15.88,-58.89 -16.40,-58.71 -16.95,-58.65 -17.49,-58.60 -18.03,-58.68 -18.58,-58.76 -19.09,-58.96 -19.59,-59.17 -20.04,-59.49 -20.48,-59.81 -20.84,-60.23 -21.19,-60.65 -21.43,-61.14 -21.68,-61.63 -21.79,-62.17 -21.91,-62.70 -21.90,-63.25 -21.89,-63.80 -21.74,-64.33 -21.60,-64.86 -21.33,-65.34 -21.07,-65.82 -20.70,-66.22 -20.32,-66.62 -14.89,-70.75 -9.47,-74.88 -4.73,-76.85 -0.00,-78.83 3.58,-80.83 7.17,-82.84 11.37,-84.32 15.56,-85.80 18.80,-86.60 22.04,-87.40 24.69,-87.77 27.34,-88.15 30.29,-86.75 33.24,-85.36 35.20,-83.86 37.17,-82.36 39.46,-81.05 41.76,-79.73 43.82,-77.89 45.88,-76.05 47.10,-74.96 48.33,-73.87 48.79,-73.22 49.26,-72.56 49.48,-71.80 49.71,-71.03 49.69,-70.22 49.66,-69.42 49.38,-68.67 49.09,-67.92 48.59,-67.30 48.08,-66.68 47.40,-66.25 46.72,-65.82 45.94,-65.64 45.16,-65.45 44.36,-65.52 43.56,-65.59 42.83,-65.91 42.09,-66.24 41.50,-66.78 40.91,-67.32 40.52,-68.02 40.13,-68.72 39.98,-69.51 39.84,-70.30 39.95,-71.09 40.07,-71.89 40.43,-72.60 40.79,-73.32 41.36,-73.88 41.93,-74.45 42.65,-74.80 43.38,-75.15 44.17,-75.25 44.97,-75.35 45.76,-75.19 46.54,-75.04 47.24,-74.64 47.93,-74.24 48.46,-73.63 49.00,-73.03 49.31,-72.29 49.62,-71.55 49.68,-70.75 49.74,-69.95 49.54,-69.18 49.34,-68.40 48.90,-67.73 48.46,-67.05 47.83,-66.56 47.20,-66.06 46.45,-65.79 45.69,-65.52 44.89,-65.50 44.09,-65.49 43.32,-65.73 42.56,-65.97 41.91,-66.44 41.26,-66.92 41.26,-66.92 41.26,-66.92 39.15,-69.46 37.04,-72.01 32.75,-75.20 28.46,-78.40 25.94,-79.41 23.41,-80.43 20.60,-80.03 17.79,-79.63 14.24,-78.30 10.69,-76.96 6.89,-74.51 3.09,-72.06 -0.90,-70.05 -4.90,-68.03 -8.05,-65.73 -11.19,-63.42 -12.82,-61.55 -14.45,-59.67 -14.91,-59.37 -15.37,-59.07 -15.88,-58.89 -16.40,-58.71 -16.95,-58.65 -17.49,-58.60 -18.03,-58.68 -18.58,-58.76 -19.08,-58.96 -19.59,-59.17 -20.04,-59.49 -20.48,-59.81 -20.83,-60.23 -21.19,-60.65 -21.43,-61.14 -21.68,-61.63 -21.79,-62.17 -21.91,-62.70 -21.90,-63.25 -21.89,-63.80 -21.74,-64.33 -21.60,-64.86 -21.33,-65.34 -21.07,-65.82 -20.70,-66.22 -20.32,-66.62 -20.25,-66.88 -20.19,-67.15 -18.48,-68.47 -16.78,-69.80 -14.86,-71.03 -12.95,-72.25 -11.03,-75.11 -9.12,-77.96 -7.38,-80.80 -5.65,-83.65 -3.58,-85.71 -1.51,-87.77 1.72,-86.88 4.96,-85.99 5.30,-81.54 5.64,-77.08 5.44,-71.84 5.25,-66.61 4.80,-62.21 4.34,-57.81 4.27,-53.65 4.19,-49.48 4.05,-44.00 3.90,-38.53 3.51,-32.38 3.12,-26.24 3.21,-19.10 3.31,-11.95 3.43,-5.97 3.56,0 3.51,0.42 3.46,0.85 3.30,1.25 3.15,1.65 2.91,2.01 2.66,2.36 2.34,2.64 2.02,2.93 1.64,3.13 1.26,3.33 0.84,3.43 0.42,3.53 -0.00,3.53 -0.42,3.53 -0.84,3.43 -1.26,3.33 -1.64,3.13 -2.02,2.93 -2.34,2.64 -2.66,2.36 -2.91,2.01 -3.15,1.65 -3.30,1.25 -3.46,0.85 -3.51,0.42 -3.56,-0.00 -3.56,-0.00 L -3.56,0 Z"/></g><g transform="translate(397.199951171875 752.4000549316406) rotate(0 9.5999755859375 -28.800048828125)" stroke="none"><path fill="#1e1e1e" d="M -0.77,3.88 Q -0.77,3.88 -5.37,2.77 -9.98,1.66 -13.44,-0.27 -16.90,-2.21 -19.38,-4.01 -21.86,-5.81 -23.72,-10.02 -25.58,-14.24 -26.71,-17.11 -27.85,-19.98 -29.22,-22.71 -30.59,-25.43 -29.91,-29.58 -29.24,-33.73 -26.04,-37.49 -22.84,-41.24 -18.38,-43.73 -13.93,-46.21 -7.96,-48.94 -2.00,-51.68 4.75,-54.21 11.51,-56.73 17.43,-57.83 23.35,-58.92 28.67,-57.45 33.98,-55.98 38.23,-52.83 42.48,-49.68 44.95,-46.32 47.43,-42.96 48.58,-38.91 49.74,-34.87 50.18,-30.82 50.62,-26.77 50.93,-23.68 51.25,-20.59 49.31,-17.08 47.38,-13.57 44.11,-13.42 40.85,-13.26 36.91,-14.38 32.96,-15.50 30.33,-15.78 27.70,-16.07 22.80,-15.30 17.90,-14.53 17.15,-14.60 16.39,-14.68 15.70,-14.99 15.01,-15.30 14.46,-15.81 13.90,-16.33 13.54,-16.99 13.18,-17.65 13.05,-18.40 12.92,-19.15 13.03,-19.89 13.15,-20.64 13.50,-21.31 13.84,-21.99 14.39,-22.51 14.93,-23.04 15.61,-23.36 16.30,-23.69 17.05,-23.78 17.80,-23.87 18.54,-23.71 19.28,-23.56 19.93,-23.17 20.58,-22.79 21.08,-22.22 21.58,-21.65 21.86,-20.95 22.15,-20.25 22.20,-19.49 22.25,-18.74 22.05,-18.01 21.86,-17.28 21.44,-16.65 21.02,-16.02 20.43,-15.55 19.83,-15.09 19.11,-14.84 18.40,-14.59 17.64,-14.58 16.89,-14.57 16.17,-14.81 15.45,-15.04 14.84,-15.49 14.23,-15.94 13.80,-16.57 13.37,-17.19 13.16,-17.91 12.95,-18.64 12.98,-19.40 13.02,-20.15 13.29,-20.86 13.56,-21.56 14.05,-22.15 14.53,-22.73 15.18,-23.12 15.82,-23.52 16.56,-23.69 17.29,-23.86 17.29,-23.86 17.29,-23.86 20.34,-23.93 23.40,-23.99 26.11,-24.13 28.82,-24.27 31.96,-23.71 35.10,-23.14 39.68,-21.72 44.26,-20.29 44.26,-23.22 44.26,-26.15 43.95,-29.76 43.63,-33.37 43.01,-36.54 42.40,-39.70 40.70,-42.47 39.01,-45.24 35.61,-47.86 32.22,-50.48 28.20,-51.76 24.18,-53.05 18.98,-51.96 13.77,-50.87 7.32,-48.27 0.88,-45.67 -4.72,-42.82 -10.34,-39.98 -13.65,-37.99 -16.95,-36.01 -19.96,-31.85 -22.97,-27.70 -21.62,-25.23 -20.26,-22.76 -19.31,-19.93 -18.36,-17.09 -17.48,-14.36 -16.60,-11.63 -14.80,-10.09 -12.99,-8.54 -10.70,-6.94 -8.41,-5.34 -3.82,-4.61 0.77,-3.88 1.23,-3.73 1.68,-3.58 2.08,-3.33 2.49,-3.07 2.82,-2.73 3.15,-2.39 3.39,-1.97 3.63,-1.56 3.77,-1.10 3.90,-0.65 3.92,-0.17 3.94,0.30 3.85,0.77 3.76,1.23 3.55,1.67 3.35,2.10 3.05,2.47 2.75,2.84 2.37,3.13 1.99,3.42 1.55,3.61 1.11,3.80 0.64,3.87 0.17,3.95 -0.30,3.92 -0.77,3.88 -0.77,3.88 L -0.77,3.88 Z"/></g><g transform="translate(416.39990234375 723.6000061035156) rotate(0 10.4000244140625 21.5999755859375)" stroke="none"><path fill="#1e1e1e" d="M 3.57,-1.78 Q 3.57,-1.78 5.28,1.95 6.99,5.70 9.41,9.97 11.84,14.23 14.28,18.95 16.72,23.67 18.70,28.56 20.67,33.45 21.52,37.80 22.37,42.15 22.20,42.64 22.03,43.13 21.71,43.55 21.39,43.96 20.95,44.25 20.52,44.53 20.01,44.67 19.51,44.80 18.99,44.77 18.47,44.74 17.99,44.54 17.51,44.34 17.11,44.00 16.72,43.66 16.45,43.21 16.19,42.76 16.08,42.25 15.98,41.74 16.04,41.22 16.10,40.70 16.32,40.23 16.55,39.76 16.91,39.38 17.27,39.01 17.73,38.77 18.20,38.53 18.71,38.45 19.23,38.37 19.74,38.46 20.26,38.55 20.71,38.80 21.17,39.05 21.53,39.43 21.88,39.81 22.09,40.29 22.31,40.76 22.36,41.28 22.41,41.80 22.29,42.31 22.18,42.82 21.90,43.26 21.63,43.71 21.23,44.04 20.83,44.37 20.34,44.56 19.86,44.75 19.33,44.77 18.81,44.79 18.31,44.65 17.81,44.51 17.38,44.21 16.95,43.91 16.64,43.49 16.33,43.07 16.17,42.58 16.01,42.08 16.02,41.56 16.02,41.04 16.02,41.04 16.02,41.04 15.54,38.42 15.06,35.80 13.08,31.26 11.09,26.72 8.55,22.25 6.00,17.77 3.18,13.39 0.36,9.01 -1.60,5.40 -3.57,1.78 -3.73,1.33 -3.89,0.88 -3.94,0.40 -3.99,-0.07 -3.92,-0.55 -3.86,-1.03 -3.68,-1.48 -3.50,-1.92 -3.22,-2.31 -2.93,-2.70 -2.57,-3.02 -2.20,-3.33 -1.77,-3.54 -1.34,-3.76 -0.87,-3.87 -0.40,-3.97 0.07,-3.96 0.56,-3.95 1.02,-3.83 1.49,-3.70 1.91,-3.47 2.33,-3.24 2.68,-2.91 3.04,-2.59 3.30,-2.18 3.57,-1.78 3.57,-1.78 L 3.57,-1.78 Z"/></g><g transform="translate(472.39990234375 770.0000305175781) rotate(0 1.60003662109375 24)" stroke="none"><path fill="#1e1e1e" d="M 4.03,-0.57 Q 4.03,-0.57 4.52,2.64 5.00,5.85 5.16,9.71 5.32,13.56 5.22,17.95 5.12,22.34 5.01,26.96 4.91,31.57 5.28,35.66 5.64,39.76 6.06,42.04 6.48,44.32 6.81,45.98 7.14,47.64 7.10,48.28 7.05,48.92 6.80,49.51 6.55,50.10 6.13,50.58 5.70,51.07 5.15,51.39 4.59,51.70 3.96,51.83 3.33,51.96 2.70,51.87 2.06,51.79 1.48,51.51 0.91,51.23 0.45,50.78 -0.00,50.33 -0.29,49.76 -0.57,49.19 -0.67,48.55 -0.76,47.92 -0.64,47.29 -0.53,46.66 -0.21,46.10 0.09,45.53 0.56,45.10 1.04,44.67 1.62,44.41 2.21,44.16 2.85,44.10 3.49,44.04 4.11,44.19 4.73,44.34 5.28,44.68 5.82,45.03 6.23,45.52 6.63,46.02 6.86,46.62 7.08,47.22 7.10,47.86 7.13,48.50 6.94,49.12 6.76,49.73 6.39,50.25 6.02,50.78 5.50,51.15 4.98,51.53 4.37,51.73 3.76,51.92 3.12,51.91 2.48,51.89 1.87,51.68 1.27,51.46 0.77,51.06 0.26,50.66 -0.07,50.13 -0.42,49.59 -0.58,48.97 -0.74,48.35 -0.74,48.35 -0.74,48.35 -0.71,46.65 -0.67,44.96 -0.66,42.71 -0.65,40.46 -1.23,36.04 -1.82,31.63 -1.99,27.05 -2.16,22.48 -2.43,18.23 -2.69,13.99 -2.93,10.50 -3.16,7.02 -3.60,3.79 -4.03,0.57 -4.04,0.08 -4.05,-0.40 -3.94,-0.88 -3.84,-1.36 -3.62,-1.80 -3.40,-2.24 -3.08,-2.61 -2.76,-2.99 -2.36,-3.28 -1.96,-3.56 -1.51,-3.75 -1.05,-3.93 -0.57,-4.00 -0.08,-4.07 0.40,-4.02 0.89,-3.97 1.35,-3.81 1.81,-3.64 2.22,-3.37 2.63,-3.10 2.97,-2.74 3.30,-2.38 3.54,-1.95 3.77,-1.52 3.90,-1.05 4.03,-0.57 4.03,-0.57 L 4.03,-0.57 Z"/></g><g transform="translate(782.7999267578125 749.1999816894531) rotate(0 20 -7.99993896484375)" stroke="none"><path fill="#1e1e1e" d="M -1.17,4.71 Q -1.17,4.71 -3.14,4.29 -5.10,3.87 -6.91,2.74 -8.72,1.61 -10.21,-0.84 -11.69,-3.31 -12.26,-6.62 -12.83,-9.93 -12.99,-12.67 -13.15,-15.41 -12.06,-18.95 -10.97,-22.49 -8.06,-25.38 -5.16,-28.27 -3.35,-29.99 -1.55,-31.70 2.16,-33.63 5.87,-35.55 9.95,-36.72 14.03,-37.89 16.80,-38.52 19.58,-39.15 23.91,-38.31 28.24,-37.46 32.68,-33.76 37.13,-30.06 39.84,-25.95 42.54,-21.83 44.95,-17.32 47.36,-12.82 48.62,-9.25 49.88,-5.68 49.44,-1.24 49.01,3.19 47.27,6.42 45.52,9.64 42.12,12.47 38.72,15.29 35.27,17.04 31.82,18.79 29.65,20.02 27.48,21.25 25.15,22.00 22.82,22.76 20.46,22.53 18.10,22.30 15.48,20.13 12.85,17.95 11.79,13.50 10.72,9.05 4.87,6.59 -0.97,4.13 -1.61,3.87 -2.24,3.61 -2.76,3.15 -3.28,2.70 -3.62,2.10 -3.97,1.51 -4.11,0.83 -4.25,0.16 -4.16,-0.51 -4.08,-1.20 -3.78,-1.82 -3.48,-2.44 -3.00,-2.93 -2.52,-3.42 -1.90,-3.73 -1.29,-4.05 -0.61,-4.15 0.06,-4.25 0.74,-4.13 1.41,-4.00 2.02,-3.67 2.62,-3.34 3.09,-2.83 3.55,-2.33 3.83,-1.70 4.11,-1.07 4.17,-0.38 4.24,0.29 4.08,0.96 3.92,1.63 3.56,2.21 3.19,2.80 2.66,3.24 2.13,3.67 1.49,3.92 0.85,4.16 0.16,4.19 -0.52,4.22 -1.18,4.02 -1.84,3.83 -2.40,3.43 -2.97,3.04 -3.38,2.48 -3.78,1.93 -3.99,1.27 -4.20,0.62 -4.19,-0.06 -4.18,-0.75 -3.95,-1.40 -3.72,-2.05 -3.30,-2.59 -2.87,-3.13 -2.30,-3.51 -1.72,-3.88 -1.05,-4.06 -0.39,-4.23 0.29,-4.18 0.97,-4.13 0.97,-4.13 0.97,-4.13 9.05,-1.97 17.13,0.19 18.51,3.78 19.90,7.38 21.91,10.64 23.93,13.91 26.24,12.94 28.54,11.98 31.30,10.75 34.06,9.51 36.60,7.47 39.15,5.43 40.57,3.70 42.00,1.98 42.52,-0.89 43.04,-3.78 42.22,-6.62 41.41,-9.46 38.93,-13.53 36.45,-17.60 34.15,-20.69 31.86,-23.78 28.86,-26.20 25.87,-28.62 23.51,-29.20 21.15,-29.77 19.01,-29.41 16.88,-29.05 13.73,-27.89 10.59,-26.72 8.12,-25.32 5.65,-23.91 3.75,-22.13 1.84,-20.35 -0.28,-18.03 -2.41,-15.70 -2.29,-13.52 -2.17,-11.34 -2.21,-8.52 -2.25,-5.71 -0.53,-5.21 1.17,-4.71 1.72,-4.50 2.27,-4.29 2.75,-3.95 3.23,-3.62 3.61,-3.18 4.00,-2.74 4.27,-2.22 4.54,-1.70 4.68,-1.13 4.82,-0.56 4.81,0.01 4.81,0.60 4.67,1.16 4.53,1.73 4.26,2.25 3.98,2.77 3.59,3.20 3.20,3.64 2.72,3.97 2.24,4.30 1.69,4.51 1.14,4.71 0.56,4.78 -0.01,4.85 -0.59,4.78 -1.17,4.71 -1.17,4.71 L -1.17,4.71 Z"/></g><g transform="translate(803.5999755859375 736.4000549316406) rotate(0 12 17.5999755859375)" stroke="none"><path fill="#1e1e1e" d="M 4.03,-1.83 Q 4.03,-1.83 6.11,3.31 8.19,8.46 11.56,13.11 14.94,17.76 17.42,21.88 19.90,25.99 21.21,28.16 22.51,30.33 24.74,29.66 26.98,28.99 27.29,29.39 27.61,29.79 27.82,30.25 28.03,30.72 28.13,31.22 28.22,31.72 28.19,32.23 28.16,32.74 28.02,33.23 27.87,33.72 27.60,34.15 27.34,34.59 26.98,34.95 26.62,35.32 26.19,35.58 25.75,35.85 25.26,36.00 24.78,36.16 24.27,36.19 23.76,36.22 23.26,36.13 22.75,36.04 22.29,35.84 21.82,35.63 21.42,35.32 21.01,35.00 20.98,32.03 20.95,29.05 21.50,28.64 22.05,28.23 22.71,28.02 23.36,27.81 24.04,27.82 24.73,27.82 25.37,28.05 26.02,28.28 26.56,28.70 27.10,29.12 27.48,29.69 27.86,30.26 28.04,30.92 28.21,31.58 28.17,32.27 28.12,32.95 27.86,33.59 27.60,34.22 27.15,34.74 26.70,35.25 26.11,35.60 25.52,35.95 24.85,36.09 24.18,36.23 23.50,36.15 22.82,36.06 22.20,35.77 21.58,35.47 21.09,35.00 20.59,34.52 20.28,33.91 19.97,33.30 19.86,32.62 19.76,31.95 19.88,31.27 20.00,30.60 20.32,29.99 20.65,29.39 21.16,28.93 21.66,28.46 22.28,28.18 22.91,27.90 23.59,27.83 24.27,27.77 24.94,27.92 25.61,28.08 26.19,28.44 26.77,28.80 27.21,29.33 27.65,29.85 27.90,30.49 28.14,31.13 28.17,31.82 28.20,32.50 28.01,33.16 27.82,33.82 27.40,31.40 26.98,28.99 27.29,29.39 27.61,29.79 27.82,30.25 28.03,30.72 28.13,31.22 28.22,31.72 28.19,32.23 28.16,32.74 28.02,33.23 27.87,33.72 27.60,34.15 27.34,34.59 26.98,34.95 26.62,35.32 26.19,35.58 25.75,35.85 25.26,36.00 24.78,36.16 24.27,36.19 23.76,36.22 23.26,36.13 22.75,36.04 22.29,35.84 21.82,35.63 21.42,35.32 21.01,35.00 18.47,34.39 15.93,33.77 15.10,31.68 14.27,29.59 11.74,25.85 9.20,22.12 5.10,16.94 1.00,11.77 -1.51,6.80 -4.03,1.83 -4.19,1.32 -4.35,0.81 -4.39,0.28 -4.42,-0.25 -4.33,-0.77 -4.23,-1.30 -4.02,-1.79 -3.80,-2.27 -3.47,-2.70 -3.14,-3.12 -2.72,-3.45 -2.30,-3.78 -1.82,-4.00 -1.33,-4.22 -0.80,-4.32 -0.28,-4.42 0.24,-4.39 0.78,-4.36 1.29,-4.20 1.80,-4.04 2.26,-3.77 2.72,-3.50 3.10,-3.12 3.48,-2.74 3.75,-2.29 4.03,-1.83 4.03,-1.83 L 4.03,-1.83 Z"/></g><g transform="translate(875.5999755859375 830.7999572753906) rotate(0 -0.800048828125 -13.5999755859375)" stroke="none"><path fill="#1e1e1e" d="M -3.07,3.69 Q -3.07,3.69 -5.77,1.28 -8.47,-1.12 -10.53,-3.89 -12.60,-6.67 -13.92,-8.68 -15.24,-10.68 -16.40,-13.76 -17.57,-16.84 -18.13,-19.86 -18.68,-22.88 -17.62,-25.77 -16.55,-28.65 -14.13,-30.14 -11.72,-31.63 -7.70,-31.80 -3.69,-31.97 -0.35,-31.55 2.98,-31.13 5.92,-29.83 8.86,-28.53 11.38,-26.15 13.90,-23.78 15.26,-20.42 16.63,-17.07 15.95,-13.62 15.28,-10.18 12.88,-7.80 10.49,-5.42 7.30,-4.10 4.11,-2.78 1.70,-2.19 -0.71,-1.60 -2.75,-0.72 -4.79,0.14 -5.49,0.15 -6.19,0.16 -6.87,0.00 -7.55,-0.15 -8.17,-0.46 -8.79,-0.78 -9.32,-1.23 -9.85,-1.69 -10.25,-2.25 -10.66,-2.82 -10.91,-3.47 -11.17,-4.12 -11.27,-4.81 -11.36,-5.50 -11.29,-6.20 -11.21,-6.89 -10.97,-7.55 -10.74,-8.20 -10.35,-8.78 -9.96,-9.36 -9.45,-9.83 -8.93,-10.30 -8.32,-10.63 -7.70,-10.97 -7.03,-11.14 -6.35,-11.32 -1.37,-7.46 3.60,-3.59 4.08,-2.92 4.56,-2.25 4.80,-1.46 5.04,-0.68 5.01,0.14 4.99,0.96 4.71,1.73 4.42,2.50 3.90,3.15 3.39,3.79 2.69,4.23 2.00,4.67 1.20,4.87 0.40,5.07 -0.41,5.00 -1.23,4.93 -1.99,4.60 -2.74,4.28 -3.35,3.73 -3.97,3.18 -4.37,2.46 -4.77,1.74 -4.93,0.93 -5.08,0.13 -4.97,-0.68 -4.86,-1.50 -4.49,-2.23 -4.12,-2.97 -3.54,-3.55 -2.96,-4.13 -2.22,-4.50 -1.48,-4.86 -0.67,-4.97 0.14,-5.08 0.95,-4.92 1.76,-4.77 2.47,-4.36 3.19,-3.96 3.74,-3.34 4.29,-2.73 4.61,-1.97 4.93,-1.22 5.00,-0.40 5.07,0.42 4.87,1.21 4.67,2.01 4.22,2.71 3.78,3.40 3.13,3.91 2.49,4.43 1.72,4.71 0.95,4.99 0.12,5.01 -0.69,5.04 -1.48,4.79 -2.26,4.55 -2.93,4.07 -3.60,3.59 -3.60,3.59 -3.60,3.59 -4.19,1.86 -4.79,0.14 -5.49,0.15 -6.19,0.16 -6.87,0.00 -7.55,-0.15 -8.17,-0.46 -8.79,-0.78 -9.32,-1.23 -9.85,-1.69 -10.25,-2.25 -10.66,-2.82 -10.91,-3.47 -11.17,-4.12 -11.27,-4.81 -11.36,-5.50 -11.29,-6.20 -11.21,-6.89 -10.97,-7.55 -10.74,-8.20 -10.35,-8.78 -9.96,-9.36 -9.45,-9.83 -8.93,-10.30 -8.32,-10.63 -7.70,-10.97 -7.03,-11.14 -6.35,-11.32 -6.10,-11.65 -5.84,-11.99 -2.83,-12.46 0.17,-12.93 3.24,-14.89 6.31,-16.85 3.88,-19.01 1.46,-21.18 -0.84,-21.52 -3.15,-21.85 -5.78,-20.97 -8.41,-20.09 -6.69,-16.02 -4.96,-11.95 -3.76,-10.01 -2.56,-8.07 0.25,-5.88 3.07,-3.69 3.47,-3.26 3.86,-2.84 4.15,-2.34 4.43,-1.83 4.59,-1.28 4.74,-0.72 4.76,-0.14 4.78,0.43 4.66,1.00 4.54,1.56 4.28,2.08 4.03,2.60 3.66,3.05 3.29,3.49 2.82,3.84 2.36,4.18 1.82,4.40 1.29,4.62 0.71,4.71 0.14,4.80 -0.43,4.74 -1.00,4.69 -1.55,4.50 -2.10,4.31 -2.58,4.00 -3.07,3.69 -3.07,3.69 L -3.07,3.69 Z"/></g><g transform="translate(710.7999267578125 731.6000061035156) rotate(0 -71.20001220703125 12)" stroke="none"><path fill="#1e1e1e" d="M 0,3.59 Q 0,3.59 -7.81,3.46 -15.63,3.33 -23.10,3.23 -30.56,3.13 -39.17,3.52 -47.79,3.91 -58.78,4.97 -69.76,6.03 -80.06,6.47 -90.36,6.91 -98.33,7.55 -106.31,8.18 -112.07,8.44 -117.83,8.71 -121.39,8.52 -124.96,8.33 -127.16,8.42 -129.37,8.51 -129.80,8.42 -130.23,8.33 -130.63,8.15 -131.02,7.96 -131.36,7.69 -131.70,7.41 -131.97,7.06 -132.23,6.71 -132.40,6.31 -132.58,5.91 -132.65,5.48 -132.72,5.05 -132.69,4.61 -132.65,4.17 -132.52,3.76 -132.38,3.34 -132.15,2.97 -131.91,2.60 -131.60,2.30 -131.28,1.99 -130.91,1.77 -130.53,1.55 -130.11,1.43 -129.69,1.30 -129.25,1.28 -128.81,1.27 -126.06,2.91 -123.30,4.55 -118.85,6.90 -114.40,9.25 -109.12,12.26 -103.84,15.26 -99.70,18.00 -95.56,20.73 -92.26,23.90 -88.96,27.07 -86.58,28.64 -84.20,30.21 -83.94,30.53 -83.68,30.84 -83.50,31.20 -83.32,31.57 -83.24,31.97 -83.15,32.37 -83.17,32.77 -83.18,33.18 -83.29,33.57 -83.40,33.96 -83.60,34.32 -83.80,34.67 -84.08,34.96 -84.36,35.26 -84.70,35.48 -85.04,35.70 -85.43,35.83 -85.81,35.96 -86.22,36.00 -86.62,36.04 -87.02,35.97 -87.42,35.91 -87.80,35.76 -88.18,35.60 -88.50,35.36 -88.83,35.12 -92.38,32.58 -95.93,30.03 -100.89,27.21 -105.85,24.39 -111.66,21.32 -117.46,18.25 -122.18,16.02 -126.90,13.80 -130.19,11.37 -133.48,8.94 -135.63,6.39 -137.77,3.85 -139.25,1.31 -140.74,-1.22 -142.28,-3.56 -143.82,-5.89 -143.98,-6.34 -144.14,-6.79 -144.19,-7.26 -144.24,-7.74 -144.17,-8.21 -144.10,-8.68 -143.93,-9.12 -143.75,-9.57 -143.47,-9.95 -143.19,-10.34 -142.83,-10.65 -142.46,-10.95 -142.04,-11.17 -141.61,-11.38 -141.15,-11.48 -140.68,-11.59 -140.21,-11.58 -139.73,-11.57 -139.27,-11.44 -138.81,-11.32 -138.39,-11.09 -137.98,-10.86 -137.63,-10.54 -137.28,-10.21 -137.01,-9.82 -136.75,-9.42 -130.98,-9.25 -125.21,-9.08 -119.60,-8.33 -113.99,-7.57 -109.27,-7.18 -104.55,-6.80 -101.86,-7.29 -99.18,-7.77 -97.01,-8.21 -94.83,-8.65 -94.21,-8.61 -93.58,-8.58 -93.00,-8.35 -92.41,-8.12 -91.93,-7.72 -91.45,-7.32 -91.13,-6.78 -90.80,-6.25 -90.66,-5.63 -90.53,-5.02 -90.59,-4.40 -90.66,-3.78 -90.92,-3.21 -91.18,-2.64 -91.61,-2.18 -92.04,-1.72 -92.59,-1.43 -93.14,-1.13 -93.76,-1.02 -94.38,-0.92 -95.00,-1.02 -95.62,-1.12 -96.17,-1.41 -96.73,-1.70 -97.16,-2.15 -97.59,-2.61 -97.86,-3.17 -98.12,-3.74 -98.19,-4.36 -98.26,-4.99 -98.13,-5.60 -98.00,-6.21 -97.68,-6.75 -97.36,-7.29 -96.88,-7.70 -96.41,-8.11 -95.83,-8.34 -95.24,-8.58 -94.62,-8.61 -93.99,-8.65 -93.39,-8.48 -92.78,-8.32 -92.26,-7.97 -91.74,-7.62 -91.36,-7.12 -90.98,-6.62 -90.78,-6.03 -90.57,-5.44 -90.57,-4.81 -90.57,-4.18 -90.77,-3.59 -90.96,-3.00 -91.34,-2.49 -91.72,-1.99 -92.24,-1.64 -92.75,-1.29 -93.36,-1.12 -93.96,-0.94 -93.96,-0.95 -93.96,-0.95 -96.18,-0.88 -98.39,-0.82 -101.65,-0.63 -104.91,-0.45 -109.84,-0.64 -114.76,-0.83 -121.04,-1.44 -127.31,-2.05 -131.69,-3.48 -136.07,-4.92 -139.95,-5.40 -143.82,-5.89 -143.98,-6.34 -144.14,-6.79 -144.19,-7.26 -144.24,-7.74 -144.17,-8.21 -144.10,-8.68 -143.93,-9.12 -143.75,-9.56 -143.47,-9.95 -143.19,-10.34 -142.83,-10.65 -142.46,-10.95 -142.04,-11.17 -141.61,-11.38 -141.15,-11.48 -140.68,-11.59 -140.21,-11.58 -139.73,-11.57 -139.27,-11.44 -138.81,-11.32 -138.39,-11.09 -137.98,-10.86 -137.63,-10.54 -137.28,-10.21 -137.01,-9.82 -136.75,-9.42 -135.44,-6.97 -134.13,-4.52 -133.24,-2.28 -132.35,-0.05 -131.06,2.13 -129.77,4.32 -127.15,6.53 -124.52,8.74 -119.67,10.96 -114.81,13.17 -108.90,16.20 -102.98,19.23 -97.69,22.12 -92.41,25.00 -88.30,27.61 -84.20,30.21 -83.94,30.53 -83.68,30.84 -83.50,31.20 -83.32,31.57 -83.24,31.97 -83.15,32.37 -83.17,32.77 -83.18,33.18 -83.29,33.57 -83.40,33.96 -83.60,34.31 -83.80,34.67 -84.08,34.96 -84.36,35.26 -84.70,35.48 -85.04,35.70 -85.43,35.83 -85.81,35.96 -86.22,36.00 -86.62,36.04 -87.02,35.97 -87.42,35.91 -87.80,35.76 -88.18,35.60 -88.50,35.36 -88.83,35.12 -90.94,33.26 -93.05,31.41 -95.98,28.69 -98.91,25.97 -102.95,23.51 -106.98,21.05 -112.27,18.33 -117.56,15.60 -123.46,12.05 -129.37,8.51 -129.80,8.42 -130.23,8.33 -130.63,8.15 -131.02,7.96 -131.36,7.69 -131.70,7.41 -131.97,7.06 -132.23,6.71 -132.40,6.31 -132.58,5.91 -132.65,5.48 -132.72,5.05 -132.69,4.61 -132.65,4.17 -132.52,3.76 -132.38,3.34 -132.15,2.97 -131.91,2.60 -131.60,2.30 -131.29,1.99 -130.91,1.77 -130.53,1.55 -130.11,1.43 -129.69,1.30 -129.25,1.28 -128.81,1.27 -126.58,1.76 -124.34,2.26 -121.21,2.76 -118.08,3.25 -112.42,2.95 -106.76,2.66 -98.69,1.97 -90.62,1.27 -80.48,0.77 -70.34,0.26 -59.22,-0.90 -48.10,-2.07 -39.33,-2.60 -30.56,-3.13 -23.10,-3.23 -15.63,-3.33 -7.81,-3.46 0,-3.59 0.42,-3.53 0.85,-3.48 1.26,-3.33 1.66,-3.18 2.02,-2.93 2.38,-2.68 2.66,-2.36 2.95,-2.04 3.15,-1.65 3.35,-1.27 3.46,-0.85 3.56,-0.43 3.56,0.00 3.56,0.43 3.46,0.85 3.35,1.27 3.15,1.65 2.95,2.04 2.66,2.36 2.38,2.68 2.02,2.93 1.66,3.18 1.26,3.33 0.85,3.48 0.42,3.53 -0.00,3.59 -0.00,3.59 L 0,3.59 Z"/></g><g transform="translate(350.7999267578125 158.80001831054688) rotate(0 203.20001220703125 145.60000610351562)" stroke="none"><path fill="#1e1e1e" d="M 2.92,-3.65 Q 2.92,-3.65 5.23,-1.81 7.54,0.01 9.75,2.44 11.96,4.87 13.81,7.30 15.67,9.72 17.25,11.45 18.84,13.17 21.07,14.88 23.30,16.59 27.90,18.62 32.51,20.65 35.96,23.46 39.40,26.26 44.26,29.75 49.13,33.23 54.60,38.17 60.07,43.12 66.71,47.85 73.36,52.58 78.70,57.57 84.03,62.57 88.39,65.94 92.75,69.32 96.02,71.67 99.28,74.03 103.39,76.90 107.49,79.78 112.13,83.88 116.77,87.99 122.82,93.38 128.87,98.78 133.71,102.89 138.55,107.01 143.37,111.07 148.19,115.13 153.83,119.09 159.46,123.05 164.23,126.63 168.99,130.21 174.21,134.01 179.42,137.82 185.38,142.70 191.35,147.59 197.93,152.36 204.52,157.13 211.93,162.40 219.34,167.66 228.94,174.50 238.54,181.34 249.46,188.35 260.39,195.36 269.64,201.11 278.89,206.85 286.94,211.58 294.99,216.31 300.79,220.21 306.59,224.11 311.30,227.11 316.01,230.12 319.81,232.29 323.61,234.46 327.25,237.35 330.89,240.24 334.13,242.19 337.37,244.15 341.15,246.95 344.93,249.75 349.71,253.22 354.49,256.68 359.18,259.48 363.87,262.27 368.29,265.39 372.71,268.50 376.32,270.67 379.92,272.84 382.48,274.03 385.05,275.22 388.36,277.70 391.66,280.18 396.27,281.97 400.88,283.75 402.81,284.78 404.73,285.81 405.97,286.15 407.21,286.50 407.65,286.86 408.10,287.22 408.45,287.68 408.80,288.14 409.02,288.67 409.25,289.19 409.35,289.76 409.44,290.33 409.40,290.90 409.35,291.48 409.17,292.02 408.99,292.57 408.69,293.06 408.38,293.55 407.97,293.95 407.56,294.35 407.06,294.64 406.56,294.93 406.01,295.09 405.46,295.25 404.88,295.28 404.31,295.30 403.74,295.19 403.18,295.08 402.66,294.83 402.14,294.59 399.83,294.57 397.53,294.56 396.76,294.29 395.99,294.02 395.35,293.52 394.71,293.02 394.25,292.34 393.80,291.66 393.59,290.88 393.38,290.09 393.44,289.28 393.49,288.46 393.80,287.71 394.11,286.96 394.64,286.34 395.17,285.73 395.88,285.31 396.58,284.90 397.38,284.73 398.17,284.56 398.98,284.66 399.79,284.76 400.53,285.11 401.26,285.46 401.85,286.02 402.43,286.59 402.81,287.31 403.18,288.04 403.31,288.84 403.43,289.65 403.29,290.45 403.15,291.25 402.76,291.97 402.37,292.68 401.78,293.24 401.18,293.79 400.44,294.13 399.69,294.46 398.88,294.54 398.07,294.62 397.28,294.44 396.48,294.25 395.79,293.83 395.10,293.40 394.58,292.77 394.05,292.15 393.76,291.39 393.47,290.63 393.43,289.81 393.40,289.00 393.62,288.22 393.85,287.43 394.31,286.76 394.78,286.10 395.43,285.61 396.08,285.12 396.86,284.87 397.63,284.62 398.45,284.63 399.26,284.63 399.26,284.63 399.26,284.63 401.05,285.63 402.85,286.62 405.03,286.56 407.21,286.50 407.65,286.86 408.10,287.22 408.45,287.68 408.80,288.14 409.02,288.67 409.25,289.19 409.35,289.76 409.44,290.33 409.40,290.90 409.35,291.48 409.17,292.02 408.99,292.57 408.69,293.06 408.38,293.54 407.97,293.95 407.56,294.35 407.06,294.64 406.56,294.93 406.01,295.09 405.46,295.25 404.88,295.28 404.31,295.30 403.74,295.19 403.18,295.08 402.66,294.83 402.14,294.59 399.65,293.00 397.17,291.41 394.41,290.05 391.66,288.68 388.76,287.02 385.86,285.36 383.93,282.99 381.99,280.63 379.59,279.01 377.18,277.39 373.41,275.13 369.65,272.87 365.39,269.88 361.13,266.89 356.23,263.98 351.32,261.07 346.51,257.61 341.69,254.16 338.05,251.50 334.41,248.83 331.01,246.59 327.62,244.35 324.30,241.68 320.99,239.02 317.09,236.78 313.18,234.55 308.42,231.51 303.65,228.47 297.99,224.66 292.32,220.85 284.22,216.09 276.11,211.32 266.83,205.56 257.54,199.79 246.51,192.71 235.48,185.63 225.89,178.80 216.29,171.96 208.85,166.69 201.42,161.42 194.70,156.55 187.99,151.69 182.14,146.90 176.29,142.11 171.04,138.30 165.79,134.48 161.08,130.97 156.38,127.45 150.54,123.37 144.71,119.28 139.86,115.24 135.02,111.20 130.10,107.07 125.19,102.94 119.11,97.60 113.03,92.26 108.61,88.43 104.19,84.60 99.97,81.78 95.75,78.96 92.41,76.58 89.07,74.20 84.39,70.76 79.70,67.32 74.58,62.78 69.46,58.24 62.33,53.51 55.20,48.79 49.90,44.47 44.60,40.16 39.28,37.01 33.95,33.86 30.74,31.88 27.53,29.91 25.46,28.78 23.38,27.65 20.34,26.45 17.31,25.25 14.38,22.43 11.46,19.61 9.74,17.54 8.02,15.47 6.42,13.30 4.82,11.13 3.23,9.23 1.65,7.34 -0.63,5.49 -2.92,3.65 -3.31,3.24 -3.70,2.84 -3.99,2.36 -4.28,1.87 -4.44,1.33 -4.60,0.79 -4.63,0.23 -4.66,-0.32 -4.55,-0.88 -4.44,-1.43 -4.21,-1.94 -3.97,-2.45 -3.62,-2.89 -3.27,-3.33 -2.82,-3.68 -2.37,-4.02 -1.86,-4.25 -1.34,-4.47 -0.78,-4.57 -0.23,-4.66 0.32,-4.62 0.88,-4.58 1.42,-4.41 1.96,-4.24 2.44,-3.94 2.92,-3.65 2.92,-3.65 L 2.92,-3.65 Z"/></g><g transform="translate(502.7999267578125 277.1999816894531) rotate(0 12 27.20001220703125)" stroke="none"><path fill="#1e1e1e" d="M 3.71,-1.85 Q 3.71,-1.85 6.75,4.67 9.78,11.20 11.99,16.87 14.19,22.55 16.03,28.74 17.87,34.93 19.48,39.25 21.09,43.57 20.85,45.74 20.60,47.92 20.38,45.97 20.17,44.01 20.39,43.42 20.62,42.83 21.02,42.34 21.42,41.86 21.96,41.52 22.49,41.19 23.11,41.04 23.72,40.90 24.35,40.96 24.98,41.02 25.56,41.27 26.14,41.53 26.60,41.96 27.07,42.38 27.37,42.94 27.68,43.49 27.79,44.11 27.90,44.74 27.81,45.36 27.72,45.99 27.43,46.55 27.14,47.11 26.69,47.55 26.24,47.99 25.67,48.27 25.10,48.54 24.47,48.62 23.84,48.70 23.22,48.57 22.60,48.45 22.06,48.13 21.51,47.81 21.10,47.33 20.68,46.86 20.44,46.28 20.19,45.69 20.15,45.06 20.11,44.43 20.27,43.82 20.43,43.21 20.77,42.68 21.12,42.15 21.62,41.76 22.11,41.37 22.71,41.16 23.30,40.95 23.94,40.94 24.57,40.93 25.17,41.12 25.77,41.32 26.28,41.69 26.79,42.07 27.15,42.58 27.52,43.10 27.69,43.71 27.87,44.31 27.85,44.95 27.82,45.58 27.82,45.58 27.82,45.58 24.64,49.34 21.46,53.09 18.43,49.46 15.40,45.82 13.56,41.34 11.72,36.87 9.78,31.03 7.83,25.19 5.46,19.87 3.09,14.55 -0.31,8.20 -3.71,1.85 -3.87,1.38 -4.04,0.91 -4.09,0.41 -4.14,-0.08 -4.07,-0.57 -4.00,-1.07 -3.82,-1.53 -3.63,-2.00 -3.34,-2.40 -3.05,-2.81 -2.67,-3.13 -2.28,-3.46 -1.84,-3.68 -1.39,-3.90 -0.90,-4.01 -0.41,-4.12 0.08,-4.11 0.58,-4.10 1.06,-3.97 1.54,-3.85 1.98,-3.60 2.42,-3.36 2.79,-3.02 3.15,-2.68 3.43,-2.27 3.71,-1.85 3.71,-1.85 L 3.71,-1.85 Z"/></g><g transform="translate(509.199951171875 275.6000061035156) rotate(0 20.79998779296875 0)" stroke="none"><path fill="#1e1e1e" d="M -0.35,-4.23 Q -0.35,-4.23 5.18,-4.48 10.72,-4.72 18.80,-4.30 26.88,-3.88 30.68,-3.76 34.48,-3.64 38.61,-2.22 42.74,-0.81 43.05,-0.30 43.36,0.19 43.50,0.76 43.64,1.33 43.58,1.92 43.53,2.51 43.29,3.05 43.05,3.59 42.65,4.03 42.25,4.46 41.74,4.75 41.22,5.03 40.64,5.14 40.06,5.24 39.47,5.16 38.89,5.07 38.36,4.81 37.84,4.54 37.42,4.12 37.01,3.69 36.75,3.16 36.50,2.63 36.42,2.05 36.35,1.46 36.46,0.88 36.58,0.30 36.88,-0.20 37.17,-0.71 37.62,-1.10 38.06,-1.49 38.60,-1.72 39.15,-1.95 39.74,-1.99 40.33,-2.03 40.90,-1.88 41.47,-1.73 41.97,-1.41 42.46,-1.09 42.82,-0.62 43.19,-0.16 43.39,0.39 43.59,0.94 43.60,1.53 43.61,2.12 43.43,2.69 43.25,3.25 42.90,3.73 42.55,4.20 42.07,4.54 41.58,4.88 41.02,5.05 40.45,5.22 39.86,5.19 39.27,5.17 38.72,4.96 38.17,4.75 37.71,4.38 37.25,4.00 37.25,4.01 37.25,4.01 35.76,3.66 34.27,3.30 30.46,3.20 26.65,3.10 19.00,2.99 11.35,2.88 5.85,3.56 0.35,4.23 -0.15,4.21 -0.67,4.19 -1.16,4.05 -1.65,3.91 -2.10,3.65 -2.54,3.40 -2.91,3.05 -3.28,2.69 -3.56,2.26 -3.83,1.83 -3.99,1.34 -4.16,0.86 -4.20,0.35 -4.24,-0.16 -4.16,-0.66 -4.08,-1.17 -3.88,-1.64 -3.68,-2.11 -3.37,-2.52 -3.07,-2.93 -2.67,-3.26 -2.28,-3.58 -1.81,-3.80 -1.35,-4.02 -0.85,-4.13 -0.35,-4.23 -0.35,-4.23 L -0.35,-4.23 Z"/></g><g transform="translate(568.39990234375 317.1999816894531) rotate(0 20.800048828125 11.20001220703125)" stroke="none"><path fill="#1e1e1e" d="M 4.66,-0.93 Q 4.66,-0.93 5.30,3.72 5.95,8.37 6.47,10.84 6.99,13.32 7.63,16.05 8.27,18.79 9.40,21.08 10.53,23.37 10.65,23.94 10.77,24.52 10.75,25.10 10.73,25.68 10.57,26.25 10.41,26.81 10.12,27.32 9.83,27.82 9.43,28.25 9.02,28.67 8.53,28.99 8.04,29.30 7.49,29.49 6.93,29.68 6.35,29.73 5.77,29.78 5.19,29.69 4.61,29.60 4.07,29.37 3.54,29.14 3.07,28.79 2.60,28.45 2.23,27.99 1.85,27.54 1.60,27.02 1.35,26.49 1.33,23.46 1.31,20.43 0.91,18.20 0.51,15.96 0.33,12.73 0.16,9.49 0.54,6.35 0.92,3.21 1.09,-0.28 1.27,-3.78 3.32,-6.06 5.37,-8.35 8.30,-8.69 11.22,-9.04 15.00,-7.75 18.78,-6.47 23.15,-5.32 27.52,-4.16 31.57,-3.57 35.61,-2.97 38.78,-2.73 41.96,-2.50 42.60,-2.33 43.25,-2.17 43.81,-1.80 44.37,-1.44 44.78,-0.92 45.19,-0.40 45.42,0.22 45.64,0.85 45.66,1.51 45.67,2.18 45.47,2.81 45.27,3.45 44.88,3.99 44.49,4.53 43.94,4.91 43.40,5.30 42.76,5.49 42.12,5.68 41.46,5.66 40.79,5.63 40.17,5.40 39.54,5.17 39.03,4.74 38.51,4.32 38.16,3.76 37.80,3.20 37.64,2.55 37.49,1.90 37.55,1.24 37.61,0.57 37.87,-0.03 38.14,-0.64 38.59,-1.13 39.04,-1.62 39.62,-1.95 40.20,-2.27 40.86,-2.39 41.51,-2.51 42.17,-2.42 42.83,-2.32 43.43,-2.02 44.02,-1.72 44.49,-1.25 44.96,-0.77 45.25,-0.18 45.54,0.41 45.63,1.07 45.71,1.74 45.58,2.39 45.45,3.04 45.12,3.62 44.79,4.20 44.29,4.64 43.79,5.08 43.17,5.34 42.56,5.60 41.90,5.65 41.23,5.70 41.23,5.70 41.23,5.70 38.07,5.37 34.90,5.05 30.37,4.89 25.83,4.73 20.84,4.10 15.85,3.47 13.55,1.85 11.25,0.23 10.99,2.43 10.73,4.64 10.33,6.80 9.94,8.97 10.11,11.75 10.28,14.52 10.40,18.95 10.53,23.37 10.65,23.94 10.77,24.52 10.75,25.10 10.73,25.68 10.57,26.25 10.41,26.81 10.12,27.32 9.83,27.82 9.43,28.25 9.02,28.67 8.53,28.99 8.04,29.30 7.49,29.49 6.93,29.68 6.35,29.73 5.77,29.78 5.19,29.69 4.61,29.60 4.08,29.37 3.54,29.14 3.07,28.79 2.60,28.45 2.23,27.99 1.85,27.54 1.60,27.02 1.35,26.49 1.11,26.04 0.88,25.59 0.17,23.16 -0.52,20.72 -1.13,17.73 -1.74,14.73 -2.01,12.38 -2.27,10.02 -3.46,5.47 -4.66,0.93 -4.70,0.36 -4.74,-0.21 -4.65,-0.77 -4.55,-1.34 -4.33,-1.86 -4.10,-2.39 -3.76,-2.84 -3.41,-3.30 -2.96,-3.66 -2.52,-4.02 -2.00,-4.27 -1.48,-4.51 -0.92,-4.62 -0.36,-4.73 0.20,-4.71 0.78,-4.68 1.33,-4.52 1.88,-4.36 2.37,-4.07 2.87,-3.78 3.28,-3.38 3.69,-2.99 3.99,-2.50 4.30,-2.02 4.48,-1.47 4.66,-0.93 4.66,-0.93 L 4.66,-0.93 Z"/></g><g transform="translate(626 366.8000183105469) rotate(0 28 14.399993896484375)" stroke="none"><path fill="#1e1e1e" d="M 3.51,-1.95 Q 3.51,-1.95 5.65,2.28 7.79,6.52 9.25,11.91 10.71,17.29 12.53,21.53 14.34,25.76 16.06,29.47 17.78,33.18 18.76,35.23 19.75,37.28 20.71,38.13 21.67,38.98 21.77,39.43 21.88,39.89 21.88,40.35 21.87,40.82 21.76,41.27 21.64,41.72 21.42,42.13 21.20,42.54 20.89,42.88 20.58,43.23 20.19,43.49 19.80,43.75 19.37,43.91 18.93,44.07 18.47,44.12 18.01,44.18 17.54,44.11 17.08,44.05 16.65,43.88 16.21,43.72 15.83,43.45 15.45,43.18 15.15,42.83 14.84,42.48 14.63,42.06 14.42,41.65 12.98,38.44 11.53,35.24 10.07,30.55 8.61,25.85 7.13,22.04 5.65,18.23 4.81,14.43 3.97,10.63 3.10,8.47 2.23,6.30 2.83,2.11 3.43,-2.07 6.34,-3.14 9.25,-4.20 14.78,-4.52 20.32,-4.84 27.51,-6.23 34.70,-7.62 39.68,-8.63 44.67,-9.63 47.53,-10.64 50.39,-11.65 50.48,-12.43 50.57,-13.20 50.73,-13.80 50.90,-14.40 51.25,-14.92 51.60,-15.43 52.09,-15.81 52.58,-16.19 53.17,-16.39 53.76,-16.59 54.39,-16.59 55.01,-16.59 55.60,-16.40 56.19,-16.20 56.69,-15.82 57.18,-15.45 57.53,-14.93 57.88,-14.42 58.05,-13.82 58.22,-13.22 58.19,-12.60 58.15,-11.98 57.92,-11.40 57.70,-10.82 57.29,-10.34 56.89,-9.87 56.36,-9.55 55.83,-9.22 55.22,-9.09 54.61,-8.95 53.99,-9.02 53.37,-9.09 52.81,-9.35 52.24,-9.61 51.79,-10.03 51.34,-10.46 51.04,-11.01 50.75,-11.56 50.65,-12.17 50.55,-12.79 50.65,-13.40 50.75,-14.02 51.04,-14.57 51.33,-15.12 51.78,-15.55 52.23,-15.97 52.79,-16.24 53.36,-16.50 53.98,-16.57 54.59,-16.64 55.20,-16.50 55.81,-16.37 56.35,-16.05 56.88,-15.73 57.28,-15.26 57.69,-14.79 57.92,-14.21 58.15,-13.63 58.19,-13.01 58.22,-12.39 58.22,-12.39 58.22,-12.39 55.43,-8.56 52.64,-4.74 49.43,-3.85 46.22,-2.96 41.26,-1.66 36.30,-0.37 28.74,1.48 21.19,3.33 15.39,3.66 9.60,3.98 10.24,6.62 10.88,9.25 11.42,12.42 11.97,15.58 13.76,19.49 15.55,23.40 17.45,28.22 19.36,33.04 20.51,36.01 21.67,38.98 21.77,39.43 21.88,39.89 21.88,40.35 21.87,40.82 21.76,41.27 21.64,41.72 21.42,42.13 21.20,42.54 20.89,42.88 20.58,43.23 20.19,43.49 19.80,43.75 19.37,43.91 18.93,44.07 18.47,44.12 18.01,44.18 17.54,44.11 17.08,44.05 16.65,43.88 16.22,43.72 15.83,43.45 15.45,43.18 15.15,42.83 14.84,42.48 14.63,42.06 14.42,41.65 13.31,38.74 12.19,35.83 10.38,32.10 8.56,28.37 6.40,23.77 4.23,19.17 2.81,14.60 1.40,10.03 -1.05,5.99 -3.51,1.95 -3.69,1.50 -3.88,1.05 -3.95,0.57 -4.02,0.09 -3.97,-0.38 -3.92,-0.86 -3.76,-1.32 -3.60,-1.78 -3.33,-2.18 -3.07,-2.59 -2.71,-2.92 -2.36,-3.25 -1.93,-3.48 -1.51,-3.72 -1.04,-3.85 -0.57,-3.97 -0.09,-3.99 0.38,-4.00 0.86,-3.89 1.33,-3.79 1.77,-3.57 2.20,-3.36 2.57,-3.05 2.94,-2.73 3.23,-2.34 3.51,-1.95 3.51,-1.95 L 3.51,-1.95 Z"/></g><g transform="translate(829.199951171875 462.8000183105469) rotate(0 20.79998779296875 -8.800018310546875)" stroke="none"><path fill="#1e1e1e" d="M 3.72,-0.67 Q 3.72,-0.67 4.49,4.41 5.25,9.49 6.17,12.38 7.08,15.27 7.62,16.99 8.15,18.71 8.23,19.19 8.30,19.67 8.25,20.15 8.21,20.64 8.05,21.10 7.89,21.56 7.63,21.97 7.36,22.38 7.00,22.71 6.65,23.04 6.23,23.28 5.80,23.52 5.33,23.65 4.86,23.78 4.38,23.79 3.89,23.81 3.41,23.71 2.94,23.60 2.50,23.39 2.06,23.18 1.69,22.86 1.31,22.55 1.03,22.16 0.74,21.77 0.55,21.31 0.37,20.86 0.72,14.61 1.08,8.35 2.17,0.24 3.27,-7.87 5.19,-14.68 7.12,-21.49 9.90,-26.85 12.67,-32.22 14.23,-35.11 15.78,-37.99 19.91,-39.57 24.03,-41.14 26.54,-39.32 29.05,-37.49 31.78,-32.56 34.51,-27.62 36.94,-22.32 39.36,-17.03 40.88,-11.82 42.39,-6.62 43.04,-2.85 43.68,0.91 41.51,4.09 39.33,7.26 37.07,9.69 34.80,12.12 30.98,13.96 27.16,15.79 24.61,16.65 22.06,17.50 19.37,17.94 16.68,18.38 14.32,18.03 11.95,17.68 9.64,15.65 7.32,13.62 2.31,8.60 -2.68,3.57 -3.18,3.04 -3.68,2.52 -3.99,1.87 -4.30,1.21 -4.38,0.49 -4.46,-0.22 -4.31,-0.92 -4.16,-1.63 -3.79,-2.25 -3.42,-2.87 -2.87,-3.34 -2.32,-3.81 -1.65,-4.09 -0.98,-4.36 -0.25,-4.40 0.46,-4.44 1.16,-4.25 1.85,-4.06 2.45,-3.66 3.05,-3.25 3.49,-2.68 3.93,-2.11 4.17,-1.42 4.40,-0.74 4.41,-0.02 4.41,0.70 4.18,1.38 3.95,2.07 3.52,2.65 3.08,3.23 2.49,3.63 1.89,4.04 1.19,4.24 0.50,4.44 -0.21,4.40 -0.94,4.36 -1.61,4.10 -2.28,3.84 -2.84,3.37 -3.39,2.90 -3.76,2.29 -4.14,1.67 -4.30,0.96 -4.46,0.26 -4.38,-0.45 -4.31,-1.17 -4.01,-1.83 -3.71,-2.49 -3.21,-3.01 -2.72,-3.54 -2.08,-3.88 -1.44,-4.22 -0.73,-4.34 -0.01,-4.47 0.69,-4.35 1.40,-4.24 2.04,-3.90 2.68,-3.57 2.68,-3.57 2.68,-3.57 9.28,3.03 15.89,9.64 19.96,9.18 24.04,8.73 26.73,7.68 29.42,6.62 31.63,4.42 33.85,2.22 35.72,0.99 37.60,-0.23 36.96,-2.49 36.32,-4.76 34.80,-9.42 33.28,-14.08 30.74,-19.01 28.19,-23.94 24.69,-29.08 21.18,-34.23 19.61,-31.86 18.04,-29.49 15.62,-24.65 13.20,-19.81 11.56,-13.44 9.92,-7.06 9.12,0.69 8.32,8.45 8.24,13.58 8.15,18.71 8.23,19.19 8.30,19.67 8.25,20.15 8.21,20.64 8.05,21.10 7.89,21.56 7.63,21.97 7.36,22.38 7.01,22.71 6.65,23.04 6.23,23.28 5.80,23.52 5.33,23.65 4.86,23.78 4.38,23.79 3.89,23.81 3.41,23.71 2.94,23.60 2.50,23.39 2.06,23.18 1.69,22.86 1.31,22.55 1.03,22.16 0.74,21.77 0.55,21.32 0.37,20.86 0.18,19.05 -0.00,17.24 -0.79,13.99 -1.57,10.74 -2.65,5.70 -3.72,0.67 -3.75,0.22 -3.77,-0.23 -3.69,-0.68 -3.61,-1.13 -3.42,-1.54 -3.23,-1.96 -2.95,-2.32 -2.67,-2.68 -2.31,-2.96 -1.95,-3.24 -1.53,-3.42 -1.12,-3.61 -0.67,-3.69 -0.22,-3.77 0.23,-3.75 0.68,-3.72 1.12,-3.58 1.55,-3.44 1.94,-3.21 2.33,-2.97 2.66,-2.65 2.98,-2.32 3.21,-1.93 3.45,-1.54 3.58,-1.11 3.72,-0.67 3.72,-0.67 L 3.72,-0.67 Z"/></g><g transform="translate(906 480.3999938964844) rotate(0 2.39996337890625 -21.600006103515625)" stroke="none"><path fill="#1e1e1e" d="M -2.50,3.75 Q -2.50,3.75 -5.25,1.88 -8.00,0.00 -9.65,-1.46 -11.29,-2.93 -12.60,-4.64 -13.90,-6.34 -15.04,-8.71 -16.19,-11.08 -16.68,-14.92 -17.18,-18.77 -17.20,-22.60 -17.23,-26.43 -16.72,-30.00 -16.20,-33.58 -13.13,-37.21 -10.06,-40.83 -6.56,-42.82 -3.06,-44.81 0.10,-45.32 3.26,-45.83 6.80,-44.27 10.33,-42.70 12.89,-39.14 15.45,-35.57 16.82,-33.40 18.19,-31.23 19.30,-30.36 20.41,-29.48 20.66,-28.93 20.90,-28.38 21.00,-27.79 21.11,-27.20 21.07,-26.60 21.02,-25.99 20.84,-25.42 20.66,-24.85 20.34,-24.34 20.03,-23.82 19.60,-23.40 19.17,-22.98 18.65,-22.67 18.13,-22.36 17.56,-22.19 16.98,-22.01 16.38,-21.98 15.78,-21.95 15.19,-22.06 14.60,-22.18 14.05,-22.43 13.50,-22.68 13.03,-23.06 12.56,-23.43 12.19,-23.91 11.83,-24.38 13.53,-22.95 15.24,-21.52 11.67,-22.19 8.10,-22.86 4.71,-23.75 1.32,-24.64 -1.41,-25.44 -4.15,-26.24 -8.12,-27.64 -12.08,-29.03 -12.74,-29.55 -13.41,-30.07 -13.87,-30.77 -14.33,-31.47 -14.55,-32.28 -14.77,-33.09 -14.71,-33.93 -14.65,-34.77 -14.33,-35.55 -14.01,-36.32 -13.46,-36.96 -12.91,-37.59 -12.19,-38.02 -11.46,-38.44 -10.64,-38.61 -9.82,-38.78 -8.98,-38.68 -8.15,-38.58 -7.39,-38.22 -6.63,-37.86 -6.03,-37.28 -5.42,-36.69 -5.04,-35.94 -4.65,-35.20 -4.53,-34.37 -4.40,-33.54 -4.55,-32.71 -4.69,-31.88 -5.09,-31.14 -5.50,-30.40 -6.11,-29.83 -6.73,-29.26 -7.50,-28.92 -8.26,-28.57 -9.10,-28.49 -9.94,-28.41 -10.75,-28.60 -11.57,-28.79 -12.29,-29.23 -13.00,-29.68 -13.54,-30.32 -14.08,-30.97 -14.38,-31.75 -14.68,-32.54 -14.72,-33.38 -14.75,-34.22 -14.52,-35.02 -14.28,-35.83 -13.80,-36.52 -13.32,-37.21 -12.65,-37.71 -11.97,-38.21 -11.18,-38.47 -10.38,-38.73 -9.54,-38.72 -8.69,-38.71 -7.90,-38.43 -7.11,-38.16 -7.11,-38.16 -7.11,-38.16 -4.18,-36.78 -1.25,-35.41 1.00,-34.62 3.26,-33.84 8.22,-32.32 13.18,-30.80 16.80,-30.14 20.41,-29.48 20.66,-28.93 20.90,-28.38 21.00,-27.79 21.11,-27.20 21.07,-26.60 21.02,-26.00 20.84,-25.42 20.66,-24.85 20.34,-24.34 20.03,-23.82 19.60,-23.40 19.17,-22.98 18.65,-22.67 18.13,-22.36 17.56,-22.19 16.98,-22.01 16.38,-21.98 15.78,-21.95 15.19,-22.06 14.60,-22.18 14.05,-22.43 13.50,-22.68 13.03,-23.06 12.56,-23.43 12.19,-23.91 11.83,-24.38 10.94,-25.32 10.06,-26.26 8.90,-28.35 7.74,-30.45 6.51,-32.57 5.28,-34.70 3.10,-35.81 0.92,-36.92 -1.35,-35.76 -3.63,-34.60 -5.49,-32.98 -7.35,-31.36 -7.62,-29.08 -7.89,-26.81 -7.61,-23.36 -7.32,-19.92 -6.49,-15.84 -5.66,-11.77 -4.34,-9.56 -3.03,-7.36 -0.26,-5.56 2.50,-3.75 2.91,-3.39 3.32,-3.04 3.64,-2.60 3.96,-2.16 4.16,-1.65 4.36,-1.15 4.43,-0.61 4.51,-0.07 4.45,0.46 4.39,1.00 4.21,1.52 4.02,2.03 3.72,2.48 3.42,2.93 3.02,3.30 2.62,3.67 2.14,3.93 1.66,4.19 1.14,4.33 0.61,4.46 0.07,4.47 -0.47,4.48 -1.00,4.36 -1.53,4.24 -2.01,3.99 -2.50,3.75 -2.50,3.75 L -2.50,3.75 Z"/></g><g transform="translate(928.39990234375 477.1999816894531) rotate(0 17.60003662109375 -13.5999755859375)" stroke="none"><path fill="#1e1e1e" d="M -4.07,1.35 Q -4.07,1.35 -5.25,-2.87 -6.42,-7.10 -6.69,-10.83 -6.97,-14.55 -5.46,-18.56 -3.96,-22.57 -1.62,-25.11 0.71,-27.66 4.95,-28.43 9.19,-29.20 11.18,-27.56 13.17,-25.92 14.73,-21.35 16.28,-16.79 17.24,-12.62 18.20,-8.45 20.12,-6.23 22.04,-4.01 22.19,-3.49 22.34,-2.98 22.36,-2.44 22.38,-1.91 22.28,-1.38 22.17,-0.85 21.94,-0.37 21.71,0.11 21.37,0.53 21.03,0.94 20.60,1.27 20.18,1.59 19.68,1.80 19.19,2.01 18.66,2.10 18.13,2.19 17.59,2.14 17.06,2.10 16.55,1.93 16.04,1.76 15.58,1.48 15.13,1.19 14.76,0.80 14.38,0.42 14.11,-0.04 13.84,-0.50 14.62,-4.62 15.39,-8.73 16.16,-11.61 16.92,-14.48 18.35,-17.22 19.77,-19.97 22.92,-22.43 26.07,-24.89 28.73,-24.78 31.38,-24.67 33.88,-23.16 36.38,-21.64 37.84,-19.38 39.31,-17.12 40.15,-14.97 40.99,-12.82 41.48,-10.60 41.97,-8.38 41.88,-8.60 41.80,-8.83 42.65,-8.39 43.50,-7.96 44.17,-7.27 44.84,-6.59 45.26,-5.72 45.67,-4.86 45.79,-3.91 45.91,-2.96 45.71,-2.02 45.52,-1.09 45.04,-0.26 44.56,0.56 43.84,1.19 43.12,1.82 42.24,2.19 41.35,2.55 40.40,2.62 39.44,2.68 38.52,2.44 37.59,2.20 36.79,1.67 35.99,1.15 35.40,0.40 34.81,-0.35 34.49,-1.25 34.17,-2.15 34.16,-3.11 34.14,-4.07 34.44,-4.98 34.73,-5.89 35.30,-6.66 35.86,-7.43 36.65,-7.98 37.43,-8.53 38.35,-8.80 39.27,-9.07 40.23,-9.03 41.18,-8.99 42.08,-8.65 42.97,-8.31 43.71,-7.70 44.45,-7.09 44.95,-6.28 45.46,-5.46 45.68,-4.53 45.90,-3.60 45.81,-2.65 45.72,-1.70 45.33,-0.82 44.94,0.04 44.29,0.75 43.64,1.45 42.80,1.91 41.97,2.37 41.02,2.54 40.08,2.71 39.13,2.57 38.19,2.43 38.19,2.43 38.19,2.43 34.68,-0.56 31.18,-3.56 30.82,-6.26 30.46,-8.96 29.70,-12.39 28.95,-15.82 27.21,-13.93 25.48,-12.04 23.76,-8.03 22.04,-4.01 22.19,-3.49 22.34,-2.98 22.36,-2.44 22.38,-1.91 22.28,-1.38 22.17,-0.85 21.94,-0.37 21.71,0.11 21.37,0.53 21.03,0.94 20.60,1.27 20.18,1.59 19.68,1.80 19.19,2.01 18.66,2.10 18.13,2.19 17.59,2.14 17.06,2.10 16.55,1.93 16.04,1.76 15.58,1.48 15.13,1.19 14.76,0.80 14.38,0.42 14.11,-0.04 13.84,-0.50 13.32,-0.77 12.79,-1.03 11.71,-3.71 10.63,-6.39 9.45,-10.11 8.28,-13.82 5.76,-16.53 3.24,-19.24 2.09,-16.90 0.94,-14.56 0.92,-12.00 0.90,-9.45 2.49,-5.40 4.07,-1.35 4.18,-0.85 4.28,-0.34 4.26,0.17 4.24,0.69 4.09,1.18 3.95,1.68 3.69,2.13 3.43,2.58 3.07,2.95 2.71,3.33 2.27,3.60 1.84,3.88 1.34,4.04 0.85,4.21 0.34,4.25 -0.17,4.29 -0.68,4.21 -1.19,4.12 -1.67,3.92 -2.15,3.72 -2.56,3.40 -2.97,3.09 -3.30,2.69 -3.63,2.29 -3.85,1.82 -4.07,1.35 -4.07,1.35 L -4.07,1.35 Z"/></g><g transform="translate(1002 456.3999938964844) rotate(0 11.199951171875 15.20001220703125)" stroke="none"><path fill="#1e1e1e" d="M -0.70,4.95 Q -0.70,4.95 -3.89,4.42 -7.07,3.89 -8.53,7.03 -9.99,10.17 -9.51,13.66 -9.03,17.14 -6.37,15.82 -3.72,14.51 -3.60,11.07 -3.49,7.62 -3.61,6.88 -3.73,6.14 -3.68,5.49 -3.63,4.83 -3.43,4.21 -3.22,3.59 -2.88,3.04 -2.53,2.49 -2.06,2.03 -1.59,1.58 -1.02,1.25 -0.46,0.92 0.16,0.73 0.78,0.55 1.44,0.52 2.09,0.49 2.73,0.62 3.37,0.75 3.96,1.03 4.55,1.31 5.06,1.72 5.57,2.13 5.96,2.65 6.36,3.17 6.62,3.77 6.87,4.37 6.98,5.01 7.09,5.66 7.11,9.29 7.14,12.93 8.54,15.91 9.95,18.89 9.66,16.51 9.36,14.12 11.35,11.42 13.33,8.72 15.70,6.62 18.06,4.51 22.40,4.15 26.75,3.78 29.22,6.48 31.69,9.17 33.49,13.00 35.28,16.84 36.54,19.81 37.80,22.78 38.95,25.14 40.10,27.50 40.71,27.54 41.32,27.57 41.95,28.15 42.58,28.74 42.99,29.49 43.40,30.24 43.55,31.09 43.70,31.93 43.57,32.78 43.44,33.63 43.05,34.39 42.65,35.16 42.04,35.75 41.42,36.35 40.65,36.72 39.87,37.09 39.02,37.19 38.17,37.29 37.33,37.12 36.49,36.94 35.75,36.51 35.01,36.08 34.45,35.43 33.88,34.78 33.56,33.99 33.23,33.19 33.17,32.34 33.12,31.48 33.34,30.65 33.56,29.82 34.03,29.11 34.50,28.39 35.18,27.87 35.86,27.34 36.67,27.06 37.48,26.77 38.34,26.76 39.19,26.75 40.01,27.02 40.83,27.28 41.51,27.79 42.20,28.30 42.69,29.01 43.18,29.71 43.42,30.54 43.66,31.36 43.62,32.22 43.59,33.08 43.28,33.88 42.97,34.68 42.42,35.34 41.87,36.00 41.14,36.45 40.41,36.90 39.58,37.09 38.74,37.29 37.89,37.20 37.03,37.12 36.25,36.77 35.47,36.42 35.47,36.42 35.47,36.42 33.48,34.74 31.49,33.05 30.27,29.78 29.05,26.51 27.92,23.86 26.78,21.22 24.28,17.76 21.77,14.30 19.36,18.52 16.96,22.74 14.45,24.83 11.94,26.91 9.38,27.35 6.82,27.79 3.57,26.07 0.33,24.34 -0.68,22.25 -1.70,20.16 -2.80,16.61 -3.91,13.07 -3.82,9.60 -3.73,6.14 -3.68,5.49 -3.63,4.83 -3.43,4.21 -3.22,3.59 -2.88,3.04 -2.53,2.49 -2.06,2.03 -1.59,1.58 -1.03,1.25 -0.46,0.92 0.16,0.74 0.78,0.55 1.44,0.52 2.09,0.49 2.73,0.62 3.37,0.75 3.96,1.03 4.55,1.30 5.06,1.72 5.57,2.13 5.96,2.65 6.36,3.17 6.62,3.77 6.87,4.37 6.98,5.01 7.09,5.66 7.08,6.41 7.06,7.16 7.09,10.90 7.12,14.64 5.88,17.82 4.64,21.01 1.94,24.05 -0.75,27.08 -4.51,28.18 -8.27,29.29 -11.89,27.59 -15.51,25.89 -17.20,23.15 -18.90,20.41 -19.77,16.93 -20.65,13.46 -20.26,10.49 -19.87,7.52 -18.66,3.94 -17.45,0.36 -14.51,-2.31 -11.57,-4.99 -8.69,-5.36 -5.80,-5.73 -2.54,-5.34 0.70,-4.95 1.29,-4.79 1.87,-4.64 2.40,-4.35 2.93,-4.05 3.37,-3.64 3.81,-3.24 4.14,-2.73 4.48,-2.23 4.68,-1.66 4.88,-1.09 4.94,-0.49 5.00,0.10 4.91,0.70 4.83,1.30 4.60,1.86 4.38,2.41 4.02,2.90 3.67,3.39 3.21,3.78 2.75,4.17 2.21,4.44 1.67,4.71 1.08,4.84 0.49,4.98 -0.10,4.96 -0.70,4.95 -0.70,4.95 L -0.70,4.95 Z"/></g><g transform="translate(1070.800048828125 469.1999816894531) rotate(0 9.599853515625 -18.39996337890625)" stroke="none"><path fill="#1e1e1e" d="M -1.99,4.65 Q -1.99,4.65 -5.16,3.16 -8.33,1.66 -10.01,3.89 -11.69,6.11 -11.28,9.12 -10.88,12.13 -6.90,8.00 -2.92,3.86 0.01,-2.10 2.96,-8.08 6.20,-16.17 9.44,-24.26 11.77,-32.62 14.10,-40.98 15.16,-45.06 16.22,-49.15 16.36,-49.51 16.51,-49.88 16.73,-50.21 16.96,-50.53 17.26,-50.79 17.56,-51.04 17.91,-51.22 18.27,-51.40 18.65,-51.49 19.04,-51.58 19.43,-51.58 19.83,-51.57 20.21,-51.47 20.59,-51.37 20.94,-51.19 21.29,-51.00 21.58,-50.73 21.88,-50.46 22.10,-50.14 22.32,-49.81 22.45,-49.44 22.59,-49.06 22.63,-48.67 22.67,-48.28 22.62,-47.89 22.57,-47.49 21.82,-43.78 21.08,-40.07 20.12,-34.95 19.16,-29.84 18.69,-23.62 18.21,-17.39 19.74,-11.96 21.26,-6.52 23.95,-3.08 26.65,0.35 28.98,1.52 31.31,2.70 31.99,-0.12 32.68,-2.96 33.00,-3.58 33.33,-4.20 33.83,-4.69 34.34,-5.17 34.97,-5.47 35.61,-5.77 36.31,-5.85 37.00,-5.93 37.69,-5.78 38.38,-5.63 38.98,-5.28 39.58,-4.92 40.04,-4.39 40.50,-3.85 40.76,-3.20 41.03,-2.55 41.07,-1.85 41.11,-1.15 40.93,-0.47 40.74,0.19 40.35,0.78 39.96,1.36 39.41,1.79 38.85,2.22 38.19,2.44 37.52,2.67 36.82,2.68 36.12,2.68 35.45,2.46 34.79,2.24 34.22,1.82 33.66,1.40 33.27,0.82 32.87,0.24 32.68,-0.43 32.48,-1.10 32.52,-1.80 32.55,-2.50 32.81,-3.16 33.06,-3.81 33.52,-4.35 33.97,-4.89 34.57,-5.25 35.17,-5.62 35.85,-5.77 36.54,-5.93 37.23,-5.85 37.93,-5.78 38.57,-5.49 39.21,-5.20 39.72,-4.72 40.23,-4.24 40.57,-3.62 40.90,-3.00 41.02,-2.31 41.13,-1.62 41.02,-0.93 40.91,-0.23 40.91,-0.23 40.91,-0.23 39.57,2.91 38.22,6.07 36.01,7.61 33.80,9.15 30.90,8.76 28.01,8.38 25.02,6.23 22.03,4.07 18.69,-0.30 15.35,-4.68 13.50,-11.16 11.66,-17.64 11.92,-24.30 12.18,-30.95 12.94,-36.66 13.70,-42.38 14.96,-45.76 16.22,-49.15 16.36,-49.51 16.51,-49.88 16.73,-50.21 16.96,-50.53 17.26,-50.79 17.56,-51.04 17.91,-51.22 18.27,-51.40 18.65,-51.49 19.04,-51.58 19.43,-51.58 19.83,-51.57 20.21,-51.47 20.59,-51.37 20.94,-51.19 21.29,-51.00 21.58,-50.73 21.88,-50.46 22.10,-50.14 22.32,-49.81 22.45,-49.44 22.59,-49.06 22.63,-48.67 22.67,-48.28 22.62,-47.89 22.57,-47.49 21.72,-43.36 20.88,-39.22 18.74,-30.41 16.61,-21.60 13.66,-13.09 10.72,-4.58 7.77,2.51 4.82,9.61 2.18,13.67 -0.44,17.74 -3.68,19.85 -6.91,21.97 -10.70,21.58 -14.50,21.19 -17.04,19.12 -19.58,17.04 -20.58,14.03 -21.58,11.02 -21.80,7.73 -22.02,4.43 -21.09,0.41 -20.15,-3.61 -17.62,-5.87 -15.09,-8.13 -11.92,-8.42 -8.76,-8.72 -6.65,-7.95 -4.54,-7.18 -1.27,-5.92 1.99,-4.65 2.52,-4.34 3.05,-4.04 3.49,-3.61 3.93,-3.19 4.25,-2.67 4.58,-2.16 4.77,-1.58 4.96,-1.00 5.01,-0.39 5.06,0.21 4.96,0.81 4.86,1.41 4.62,1.98 4.38,2.54 4.01,3.02 3.64,3.51 3.17,3.90 2.69,4.28 2.14,4.54 1.59,4.80 0.99,4.92 0.39,5.05 -0.21,5.02 -0.82,4.99 -1.40,4.82 -1.99,4.65 -1.99,4.65 L -1.99,4.65 Z"/></g></svg>